<mxfile host="app.diagrams.net" modified="2021-12-13T15:50:34.524Z" agent="5.0 (X11)" etag="mrVPbzQZHINvwDFLl-IO" version="15.0.4" type="github" pages="12">
  <diagram id="C5RBs43oDa-KdzZeNtuy" name="CreateAccount">
    <mxGraphModel dx="739" dy="481" grid="1" gridSize="10" guides="1" tooltips="1" connect="1" arrows="1" fold="1" page="1" pageScale="1" pageWidth="827" pageHeight="1169" math="0" shadow="0">
      <root>
        <mxCell id="WIyWlLk6GJQsqaUBKTNV-0" />
        <mxCell id="WIyWlLk6GJQsqaUBKTNV-1" parent="WIyWlLk6GJQsqaUBKTNV-0" />
        <mxCell id="_WGznxZKvZAiyuZvH91c-0" value="API&lt;span style=&quot;white-space: pre&quot;&gt;	&lt;/span&gt;" style="rounded=1;whiteSpace=wrap;html=1;" vertex="1" parent="WIyWlLk6GJQsqaUBKTNV-1">
          <mxGeometry x="100" y="80" width="120" height="60" as="geometry" />
        </mxCell>
        <mxCell id="_WGznxZKvZAiyuZvH91c-1" value="Client" style="rounded=1;whiteSpace=wrap;html=1;" vertex="1" parent="WIyWlLk6GJQsqaUBKTNV-1">
          <mxGeometry x="320" y="80" width="120" height="60" as="geometry" />
        </mxCell>
        <mxCell id="_WGznxZKvZAiyuZvH91c-2" value="Fabric" style="rounded=1;whiteSpace=wrap;html=1;" vertex="1" parent="WIyWlLk6GJQsqaUBKTNV-1">
          <mxGeometry x="550" y="80" width="120" height="60" as="geometry" />
        </mxCell>
        <mxCell id="_WGznxZKvZAiyuZvH91c-4" value="" style="endArrow=none;dashed=1;html=1;dashPattern=1 3;strokeWidth=2;entryX=0.5;entryY=1;entryDx=0;entryDy=0;" edge="1" parent="WIyWlLk6GJQsqaUBKTNV-1" target="_WGznxZKvZAiyuZvH91c-0">
          <mxGeometry width="50" height="50" relative="1" as="geometry">
            <mxPoint x="160" y="800" as="sourcePoint" />
            <mxPoint x="440" y="290" as="targetPoint" />
          </mxGeometry>
        </mxCell>
        <mxCell id="_WGznxZKvZAiyuZvH91c-5" value="" style="endArrow=none;dashed=1;html=1;dashPattern=1 3;strokeWidth=2;" edge="1" parent="WIyWlLk6GJQsqaUBKTNV-1">
          <mxGeometry width="50" height="50" relative="1" as="geometry">
            <mxPoint x="380" y="650" as="sourcePoint" />
            <mxPoint x="379.5" y="140" as="targetPoint" />
          </mxGeometry>
        </mxCell>
        <mxCell id="_WGznxZKvZAiyuZvH91c-6" value="" style="endArrow=none;dashed=1;html=1;dashPattern=1 3;strokeWidth=2;entryX=0.558;entryY=1.067;entryDx=0;entryDy=0;entryPerimeter=0;" edge="1" parent="WIyWlLk6GJQsqaUBKTNV-1" target="_WGznxZKvZAiyuZvH91c-2">
          <mxGeometry width="50" height="50" relative="1" as="geometry">
            <mxPoint x="617" y="320" as="sourcePoint" />
            <mxPoint x="440" y="290" as="targetPoint" />
          </mxGeometry>
        </mxCell>
        <mxCell id="_WGznxZKvZAiyuZvH91c-7" value="" style="endArrow=classic;html=1;" edge="1" parent="WIyWlLk6GJQsqaUBKTNV-1">
          <mxGeometry width="50" height="50" relative="1" as="geometry">
            <mxPoint x="40" y="200" as="sourcePoint" />
            <mxPoint x="160" y="200" as="targetPoint" />
          </mxGeometry>
        </mxCell>
        <mxCell id="_WGznxZKvZAiyuZvH91c-8" value="CreateAccount" style="text;html=1;strokeColor=none;fillColor=none;align=center;verticalAlign=middle;whiteSpace=wrap;rounded=0;" vertex="1" parent="WIyWlLk6GJQsqaUBKTNV-1">
          <mxGeometry x="70" y="170" width="40" height="20" as="geometry" />
        </mxCell>
        <mxCell id="_WGznxZKvZAiyuZvH91c-9" value="" style="endArrow=classic;html=1;" edge="1" parent="WIyWlLk6GJQsqaUBKTNV-1">
          <mxGeometry width="50" height="50" relative="1" as="geometry">
            <mxPoint x="160" y="240" as="sourcePoint" />
            <mxPoint x="380" y="240" as="targetPoint" />
          </mxGeometry>
        </mxCell>
        <mxCell id="_WGznxZKvZAiyuZvH91c-37" value="" style="endArrow=classic;html=1;strokeColor=#000000;" edge="1" parent="WIyWlLk6GJQsqaUBKTNV-1">
          <mxGeometry width="50" height="50" relative="1" as="geometry">
            <mxPoint x="380" y="280" as="sourcePoint" />
            <mxPoint x="620" y="280" as="targetPoint" />
          </mxGeometry>
        </mxCell>
        <mxCell id="_WGznxZKvZAiyuZvH91c-38" value="CreateAccount" style="text;html=1;strokeColor=none;fillColor=none;align=center;verticalAlign=middle;whiteSpace=wrap;rounded=0;" vertex="1" parent="WIyWlLk6GJQsqaUBKTNV-1">
          <mxGeometry x="480" y="250" width="40" height="20" as="geometry" />
        </mxCell>
        <mxCell id="_WGznxZKvZAiyuZvH91c-40" value="Existed ?" style="rhombus;whiteSpace=wrap;html=1;" vertex="1" parent="WIyWlLk6GJQsqaUBKTNV-1">
          <mxGeometry x="580" y="320" width="80" height="40" as="geometry" />
        </mxCell>
        <mxCell id="_WGznxZKvZAiyuZvH91c-41" value="" style="endArrow=classic;html=1;strokeColor=#000000;exitX=1;exitY=0.5;exitDx=0;exitDy=0;exitPerimeter=0;" edge="1" parent="WIyWlLk6GJQsqaUBKTNV-1" source="_WGznxZKvZAiyuZvH91c-40">
          <mxGeometry width="50" height="50" relative="1" as="geometry">
            <mxPoint x="620" y="390" as="sourcePoint" />
            <mxPoint x="620" y="390" as="targetPoint" />
            <Array as="points">
              <mxPoint x="720" y="340" />
              <mxPoint x="720" y="390" />
            </Array>
          </mxGeometry>
        </mxCell>
        <mxCell id="_WGznxZKvZAiyuZvH91c-44" value="" style="endArrow=none;dashed=1;html=1;dashPattern=1 3;strokeWidth=2;entryX=0.5;entryY=1;entryDx=0;entryDy=0;" edge="1" parent="WIyWlLk6GJQsqaUBKTNV-1" target="_WGznxZKvZAiyuZvH91c-40">
          <mxGeometry width="50" height="50" relative="1" as="geometry">
            <mxPoint x="620" y="490" as="sourcePoint" />
            <mxPoint x="440" y="320" as="targetPoint" />
          </mxGeometry>
        </mxCell>
        <mxCell id="_WGznxZKvZAiyuZvH91c-46" value="No" style="text;html=1;strokeColor=none;fillColor=none;align=center;verticalAlign=middle;whiteSpace=wrap;rounded=0;" vertex="1" parent="WIyWlLk6GJQsqaUBKTNV-1">
          <mxGeometry x="720" y="350" width="40" height="20" as="geometry" />
        </mxCell>
        <mxCell id="_WGznxZKvZAiyuZvH91c-47" value="" style="endArrow=classic;html=1;strokeColor=#000000;" edge="1" parent="WIyWlLk6GJQsqaUBKTNV-1">
          <mxGeometry width="50" height="50" relative="1" as="geometry">
            <mxPoint x="620" y="290" as="sourcePoint" />
            <mxPoint x="620" y="310" as="targetPoint" />
            <Array as="points">
              <mxPoint x="720" y="290" />
              <mxPoint x="720" y="310" />
            </Array>
          </mxGeometry>
        </mxCell>
        <mxCell id="_WGznxZKvZAiyuZvH91c-49" value="" style="endArrow=classic;html=1;exitX=0;exitY=0.5;exitDx=0;exitDy=0;dashed=1;strokeColor=#FF0000;" edge="1" parent="WIyWlLk6GJQsqaUBKTNV-1" source="_WGznxZKvZAiyuZvH91c-40">
          <mxGeometry width="50" height="50" relative="1" as="geometry">
            <mxPoint x="390" y="280" as="sourcePoint" />
            <mxPoint x="380" y="340" as="targetPoint" />
          </mxGeometry>
        </mxCell>
        <mxCell id="_WGznxZKvZAiyuZvH91c-50" value="" style="endArrow=classic;html=1;dashed=1;strokeColor=#FF0000;" edge="1" parent="WIyWlLk6GJQsqaUBKTNV-1">
          <mxGeometry width="50" height="50" relative="1" as="geometry">
            <mxPoint x="380" y="360" as="sourcePoint" />
            <mxPoint x="160" y="360" as="targetPoint" />
          </mxGeometry>
        </mxCell>
        <mxCell id="_WGznxZKvZAiyuZvH91c-51" value="Yes" style="text;html=1;strokeColor=none;fillColor=none;align=center;verticalAlign=middle;whiteSpace=wrap;rounded=0;" vertex="1" parent="WIyWlLk6GJQsqaUBKTNV-1">
          <mxGeometry x="460" y="310" width="40" height="20" as="geometry" />
        </mxCell>
        <mxCell id="_WGznxZKvZAiyuZvH91c-52" value="AccountExists(id)" style="text;html=1;strokeColor=none;fillColor=none;align=center;verticalAlign=middle;whiteSpace=wrap;rounded=0;" vertex="1" parent="WIyWlLk6GJQsqaUBKTNV-1">
          <mxGeometry x="690" y="260" width="40" height="20" as="geometry" />
        </mxCell>
        <mxCell id="_WGznxZKvZAiyuZvH91c-53" value="" style="endArrow=classic;html=1;strokeColor=#000000;" edge="1" parent="WIyWlLk6GJQsqaUBKTNV-1">
          <mxGeometry width="50" height="50" relative="1" as="geometry">
            <mxPoint x="620" y="420" as="sourcePoint" />
            <mxPoint x="620" y="470" as="targetPoint" />
            <Array as="points">
              <mxPoint x="720" y="420" />
              <mxPoint x="720" y="470" />
            </Array>
          </mxGeometry>
        </mxCell>
        <mxCell id="_WGznxZKvZAiyuZvH91c-54" value="CreateAccount" style="text;html=1;strokeColor=none;fillColor=none;align=center;verticalAlign=middle;whiteSpace=wrap;rounded=0;" vertex="1" parent="WIyWlLk6GJQsqaUBKTNV-1">
          <mxGeometry x="750" y="430" width="40" height="20" as="geometry" />
        </mxCell>
        <mxCell id="_WGznxZKvZAiyuZvH91c-55" value="Error ?" style="rhombus;whiteSpace=wrap;html=1;" vertex="1" parent="WIyWlLk6GJQsqaUBKTNV-1">
          <mxGeometry x="580" y="490" width="80" height="40" as="geometry" />
        </mxCell>
        <mxCell id="_WGznxZKvZAiyuZvH91c-57" value="" style="endArrow=none;dashed=1;html=1;dashPattern=1 3;strokeWidth=2;entryX=0.5;entryY=1;entryDx=0;entryDy=0;" edge="1" parent="WIyWlLk6GJQsqaUBKTNV-1" target="_WGznxZKvZAiyuZvH91c-55">
          <mxGeometry width="50" height="50" relative="1" as="geometry">
            <mxPoint x="620" y="800" as="sourcePoint" />
            <mxPoint x="440" y="380" as="targetPoint" />
          </mxGeometry>
        </mxCell>
        <mxCell id="_WGznxZKvZAiyuZvH91c-58" value="" style="endArrow=classic;html=1;exitX=0;exitY=0.5;exitDx=0;exitDy=0;dashed=1;strokeColor=#FF0000;" edge="1" parent="WIyWlLk6GJQsqaUBKTNV-1" source="_WGznxZKvZAiyuZvH91c-55">
          <mxGeometry width="50" height="50" relative="1" as="geometry">
            <mxPoint x="390" y="430" as="sourcePoint" />
            <mxPoint x="380" y="510" as="targetPoint" />
          </mxGeometry>
        </mxCell>
        <mxCell id="_WGznxZKvZAiyuZvH91c-59" value="" style="endArrow=classic;html=1;strokeColor=#000000;exitX=1;exitY=0.5;exitDx=0;exitDy=0;" edge="1" parent="WIyWlLk6GJQsqaUBKTNV-1" source="_WGznxZKvZAiyuZvH91c-55">
          <mxGeometry width="50" height="50" relative="1" as="geometry">
            <mxPoint x="390" y="430" as="sourcePoint" />
            <mxPoint x="620" y="560" as="targetPoint" />
            <Array as="points">
              <mxPoint x="720" y="510" />
              <mxPoint x="720" y="560" />
            </Array>
          </mxGeometry>
        </mxCell>
        <mxCell id="_WGznxZKvZAiyuZvH91c-60" value="No" style="text;html=1;strokeColor=none;fillColor=none;align=center;verticalAlign=middle;whiteSpace=wrap;rounded=0;" vertex="1" parent="WIyWlLk6GJQsqaUBKTNV-1">
          <mxGeometry x="720" y="520" width="40" height="20" as="geometry" />
        </mxCell>
        <mxCell id="_WGznxZKvZAiyuZvH91c-63" value="Yes" style="text;strokeColor=none;fillColor=none;align=left;verticalAlign=top;spacingLeft=4;spacingRight=4;overflow=hidden;rotatable=0;points=[[0,0.5],[1,0.5]];portConstraint=eastwest;" vertex="1" parent="WIyWlLk6GJQsqaUBKTNV-1">
          <mxGeometry x="460" y="480" width="60" height="26" as="geometry" />
        </mxCell>
        <mxCell id="_WGznxZKvZAiyuZvH91c-64" value="" style="endArrow=classic;html=1;dashed=1;strokeColor=#FF0000;" edge="1" parent="WIyWlLk6GJQsqaUBKTNV-1">
          <mxGeometry width="50" height="50" relative="1" as="geometry">
            <mxPoint x="380" y="540" as="sourcePoint" />
            <mxPoint x="160" y="540" as="targetPoint" />
          </mxGeometry>
        </mxCell>
        <mxCell id="_WGznxZKvZAiyuZvH91c-65" value="" style="endArrow=classic;html=1;strokeColor=#000000;" edge="1" parent="WIyWlLk6GJQsqaUBKTNV-1">
          <mxGeometry width="50" height="50" relative="1" as="geometry">
            <mxPoint x="620" y="590" as="sourcePoint" />
            <mxPoint x="380" y="590" as="targetPoint" />
          </mxGeometry>
        </mxCell>
        <mxCell id="_WGznxZKvZAiyuZvH91c-66" value="CreateAccount" style="text;html=1;strokeColor=none;fillColor=none;align=center;verticalAlign=middle;whiteSpace=wrap;rounded=0;" vertex="1" parent="WIyWlLk6GJQsqaUBKTNV-1">
          <mxGeometry x="480" y="565" width="40" height="20" as="geometry" />
        </mxCell>
        <mxCell id="_WGznxZKvZAiyuZvH91c-67" value="Error?" style="rhombus;whiteSpace=wrap;html=1;" vertex="1" parent="WIyWlLk6GJQsqaUBKTNV-1">
          <mxGeometry x="340" y="650" width="80" height="40" as="geometry" />
        </mxCell>
        <mxCell id="_WGznxZKvZAiyuZvH91c-69" value="Yes" style="text;strokeColor=none;fillColor=none;align=left;verticalAlign=top;spacingLeft=4;spacingRight=4;overflow=hidden;rotatable=0;points=[[0,0.5],[1,0.5]];portConstraint=eastwest;" vertex="1" parent="WIyWlLk6GJQsqaUBKTNV-1">
          <mxGeometry x="240" y="640" width="60" height="26" as="geometry" />
        </mxCell>
        <mxCell id="_WGznxZKvZAiyuZvH91c-70" value="" style="endArrow=classic;html=1;strokeColor=#000000;exitX=1;exitY=0.5;exitDx=0;exitDy=0;" edge="1" parent="WIyWlLk6GJQsqaUBKTNV-1" source="_WGznxZKvZAiyuZvH91c-67">
          <mxGeometry width="50" height="50" relative="1" as="geometry">
            <mxPoint x="390" y="550" as="sourcePoint" />
            <mxPoint x="380" y="720" as="targetPoint" />
            <Array as="points">
              <mxPoint x="480" y="670" />
              <mxPoint x="480" y="720" />
            </Array>
          </mxGeometry>
        </mxCell>
        <mxCell id="_WGznxZKvZAiyuZvH91c-71" value="" style="endArrow=none;dashed=1;html=1;dashPattern=1 3;strokeWidth=2;exitX=0.5;exitY=1;exitDx=0;exitDy=0;exitPerimeter=0;" edge="1" parent="WIyWlLk6GJQsqaUBKTNV-1" source="_WGznxZKvZAiyuZvH91c-67">
          <mxGeometry width="50" height="50" relative="1" as="geometry">
            <mxPoint x="390" y="610" as="sourcePoint" />
            <mxPoint x="380" y="800" as="targetPoint" />
          </mxGeometry>
        </mxCell>
        <mxCell id="_WGznxZKvZAiyuZvH91c-72" value="No" style="text;strokeColor=none;fillColor=none;align=left;verticalAlign=top;spacingLeft=4;spacingRight=4;overflow=hidden;rotatable=0;points=[[0,0.5],[1,0.5]];portConstraint=eastwest;" vertex="1" parent="WIyWlLk6GJQsqaUBKTNV-1">
          <mxGeometry x="450" y="640" width="60" height="26" as="geometry" />
        </mxCell>
        <mxCell id="_WGznxZKvZAiyuZvH91c-74" value="" style="endArrow=classic;html=1;dashed=1;strokeColor=#FF0000;exitX=0;exitY=0.5;exitDx=0;exitDy=0;" edge="1" parent="WIyWlLk6GJQsqaUBKTNV-1" source="_WGznxZKvZAiyuZvH91c-67">
          <mxGeometry width="50" height="50" relative="1" as="geometry">
            <mxPoint x="390" y="640" as="sourcePoint" />
            <mxPoint x="160" y="670" as="targetPoint" />
          </mxGeometry>
        </mxCell>
        <mxCell id="_WGznxZKvZAiyuZvH91c-75" value="" style="endArrow=classic;html=1;dashed=1;strokeColor=#FF0000;" edge="1" parent="WIyWlLk6GJQsqaUBKTNV-1">
          <mxGeometry width="50" height="50" relative="1" as="geometry">
            <mxPoint x="160" y="690" as="sourcePoint" />
            <mxPoint x="60" y="690" as="targetPoint" />
          </mxGeometry>
        </mxCell>
        <mxCell id="_WGznxZKvZAiyuZvH91c-76" value="" style="endArrow=classic;html=1;dashed=1;strokeColor=#FF0000;" edge="1" parent="WIyWlLk6GJQsqaUBKTNV-1">
          <mxGeometry width="50" height="50" relative="1" as="geometry">
            <mxPoint x="160" y="560" as="sourcePoint" />
            <mxPoint x="70" y="560" as="targetPoint" />
          </mxGeometry>
        </mxCell>
        <mxCell id="_WGznxZKvZAiyuZvH91c-77" value="" style="endArrow=classic;html=1;dashed=1;strokeColor=#FF0000;" edge="1" parent="WIyWlLk6GJQsqaUBKTNV-1">
          <mxGeometry width="50" height="50" relative="1" as="geometry">
            <mxPoint x="160" y="380" as="sourcePoint" />
            <mxPoint x="70" y="380" as="targetPoint" />
          </mxGeometry>
        </mxCell>
        <mxCell id="_WGznxZKvZAiyuZvH91c-78" value="Created Successfully" style="text;html=1;strokeColor=none;fillColor=none;align=center;verticalAlign=middle;whiteSpace=wrap;rounded=0;" vertex="1" parent="WIyWlLk6GJQsqaUBKTNV-1">
          <mxGeometry x="410" y="730" width="40" height="20" as="geometry" />
        </mxCell>
        <mxCell id="_WGznxZKvZAiyuZvH91c-79" style="edgeStyle=none;rounded=0;orthogonalLoop=1;jettySize=auto;html=1;exitX=0.75;exitY=1;exitDx=0;exitDy=0;dashed=1;strokeColor=#FF0000;" edge="1" parent="WIyWlLk6GJQsqaUBKTNV-1" source="_WGznxZKvZAiyuZvH91c-78" target="_WGznxZKvZAiyuZvH91c-78">
          <mxGeometry relative="1" as="geometry" />
        </mxCell>
        <mxCell id="_WGznxZKvZAiyuZvH91c-80" value="Created Successfully" style="text;html=1;strokeColor=none;fillColor=none;align=center;verticalAlign=middle;whiteSpace=wrap;rounded=0;" vertex="1" parent="WIyWlLk6GJQsqaUBKTNV-1">
          <mxGeometry x="650" y="565" width="40" height="20" as="geometry" />
        </mxCell>
      </root>
    </mxGraphModel>
  </diagram>
  <diagram id="kb2A1f-VpU-Gq5P20vvr" name="GetAllAccounts">
    <mxGraphModel dx="739" dy="481" grid="1" gridSize="10" guides="1" tooltips="1" connect="1" arrows="1" fold="1" page="1" pageScale="1" pageWidth="827" pageHeight="1169" math="0" shadow="0">
      <root>
        <mxCell id="ueTMvPXVKf2m_dbtW49i-0" />
        <mxCell id="ueTMvPXVKf2m_dbtW49i-1" parent="ueTMvPXVKf2m_dbtW49i-0" />
        <mxCell id="ueTMvPXVKf2m_dbtW49i-2" value="API" style="rounded=1;whiteSpace=wrap;html=1;" vertex="1" parent="ueTMvPXVKf2m_dbtW49i-1">
          <mxGeometry x="100" y="30" width="120" height="60" as="geometry" />
        </mxCell>
        <mxCell id="SFKMhrFDoCjTkCOqEAOS-0" value="Client" style="rounded=1;whiteSpace=wrap;html=1;" vertex="1" parent="ueTMvPXVKf2m_dbtW49i-1">
          <mxGeometry x="350" y="30" width="120" height="60" as="geometry" />
        </mxCell>
        <mxCell id="SFKMhrFDoCjTkCOqEAOS-1" value="Fabric" style="rounded=1;whiteSpace=wrap;html=1;" vertex="1" parent="ueTMvPXVKf2m_dbtW49i-1">
          <mxGeometry x="610" y="30" width="120" height="60" as="geometry" />
        </mxCell>
        <mxCell id="SFKMhrFDoCjTkCOqEAOS-2" value="" style="endArrow=none;dashed=1;html=1;dashPattern=1 3;strokeWidth=2;exitX=0.5;exitY=1;exitDx=0;exitDy=0;" edge="1" parent="ueTMvPXVKf2m_dbtW49i-1" source="ueTMvPXVKf2m_dbtW49i-2">
          <mxGeometry width="50" height="50" relative="1" as="geometry">
            <mxPoint x="390" y="160" as="sourcePoint" />
            <mxPoint x="160" y="440" as="targetPoint" />
          </mxGeometry>
        </mxCell>
        <mxCell id="SFKMhrFDoCjTkCOqEAOS-3" value="" style="endArrow=classic;html=1;" edge="1" parent="ueTMvPXVKf2m_dbtW49i-1">
          <mxGeometry width="50" height="50" relative="1" as="geometry">
            <mxPoint x="40" y="140" as="sourcePoint" />
            <mxPoint x="160" y="140" as="targetPoint" />
          </mxGeometry>
        </mxCell>
        <mxCell id="SFKMhrFDoCjTkCOqEAOS-4" value="GetAllAccount" style="text;html=1;strokeColor=none;fillColor=none;align=center;verticalAlign=middle;whiteSpace=wrap;rounded=0;" vertex="1" parent="ueTMvPXVKf2m_dbtW49i-1">
          <mxGeometry x="80" y="110" width="40" height="20" as="geometry" />
        </mxCell>
        <mxCell id="SFKMhrFDoCjTkCOqEAOS-5" value="" style="endArrow=none;dashed=1;html=1;dashPattern=1 3;strokeWidth=2;entryX=0.5;entryY=1;entryDx=0;entryDy=0;" edge="1" parent="ueTMvPXVKf2m_dbtW49i-1" target="SFKMhrFDoCjTkCOqEAOS-0">
          <mxGeometry width="50" height="50" relative="1" as="geometry">
            <mxPoint x="410" y="200" as="sourcePoint" />
            <mxPoint x="440" y="260" as="targetPoint" />
          </mxGeometry>
        </mxCell>
        <mxCell id="SFKMhrFDoCjTkCOqEAOS-6" value="" style="endArrow=classic;html=1;" edge="1" parent="ueTMvPXVKf2m_dbtW49i-1">
          <mxGeometry width="50" height="50" relative="1" as="geometry">
            <mxPoint x="160" y="160" as="sourcePoint" />
            <mxPoint x="410" y="160" as="targetPoint" />
          </mxGeometry>
        </mxCell>
        <mxCell id="SFKMhrFDoCjTkCOqEAOS-8" value="Error" style="rhombus;whiteSpace=wrap;html=1;" vertex="1" parent="ueTMvPXVKf2m_dbtW49i-1">
          <mxGeometry x="370" y="200" width="80" height="40" as="geometry" />
        </mxCell>
        <mxCell id="SFKMhrFDoCjTkCOqEAOS-9" value="" style="endArrow=classic;html=1;dashed=1;strokeColor=#FF0000;exitX=0;exitY=0.5;exitDx=0;exitDy=0;" edge="1" parent="ueTMvPXVKf2m_dbtW49i-1" source="SFKMhrFDoCjTkCOqEAOS-8">
          <mxGeometry width="50" height="50" relative="1" as="geometry">
            <mxPoint x="390" y="310" as="sourcePoint" />
            <mxPoint x="160" y="220" as="targetPoint" />
          </mxGeometry>
        </mxCell>
        <mxCell id="SFKMhrFDoCjTkCOqEAOS-10" value="" style="endArrow=classic;html=1;dashed=1;strokeColor=#FF0000;" edge="1" parent="ueTMvPXVKf2m_dbtW49i-1">
          <mxGeometry width="50" height="50" relative="1" as="geometry">
            <mxPoint x="160" y="240" as="sourcePoint" />
            <mxPoint x="40" y="240" as="targetPoint" />
          </mxGeometry>
        </mxCell>
        <mxCell id="SFKMhrFDoCjTkCOqEAOS-11" value="" style="endArrow=classic;html=1;" edge="1" parent="ueTMvPXVKf2m_dbtW49i-1">
          <mxGeometry width="50" height="50" relative="1" as="geometry">
            <mxPoint x="450" y="220" as="sourcePoint" />
            <mxPoint x="410" y="280" as="targetPoint" />
            <Array as="points">
              <mxPoint x="520" y="220" />
              <mxPoint x="520" y="280" />
            </Array>
          </mxGeometry>
        </mxCell>
        <mxCell id="SFKMhrFDoCjTkCOqEAOS-12" value="" style="endArrow=none;dashed=1;html=1;dashPattern=1 3;strokeWidth=2;entryX=0.5;entryY=1;entryDx=0;entryDy=0;" edge="1" parent="ueTMvPXVKf2m_dbtW49i-1" target="SFKMhrFDoCjTkCOqEAOS-8">
          <mxGeometry width="50" height="50" relative="1" as="geometry">
            <mxPoint x="410" y="440" as="sourcePoint" />
            <mxPoint x="440" y="260" as="targetPoint" />
          </mxGeometry>
        </mxCell>
        <mxCell id="SFKMhrFDoCjTkCOqEAOS-13" value="No" style="text;html=1;strokeColor=none;fillColor=none;align=center;verticalAlign=middle;whiteSpace=wrap;rounded=0;" vertex="1" parent="ueTMvPXVKf2m_dbtW49i-1">
          <mxGeometry x="520" y="240" width="40" height="20" as="geometry" />
        </mxCell>
        <mxCell id="SFKMhrFDoCjTkCOqEAOS-14" value="Yes" style="text;html=1;strokeColor=none;fillColor=none;align=center;verticalAlign=middle;whiteSpace=wrap;rounded=0;" vertex="1" parent="ueTMvPXVKf2m_dbtW49i-1">
          <mxGeometry x="260" y="190" width="40" height="20" as="geometry" />
        </mxCell>
        <mxCell id="SFKMhrFDoCjTkCOqEAOS-15" value="" style="endArrow=classic;html=1;" edge="1" parent="ueTMvPXVKf2m_dbtW49i-1">
          <mxGeometry width="50" height="50" relative="1" as="geometry">
            <mxPoint x="410" y="320" as="sourcePoint" />
            <mxPoint x="160" y="320" as="targetPoint" />
          </mxGeometry>
        </mxCell>
        <mxCell id="SFKMhrFDoCjTkCOqEAOS-16" value="" style="endArrow=classic;html=1;" edge="1" parent="ueTMvPXVKf2m_dbtW49i-1">
          <mxGeometry width="50" height="50" relative="1" as="geometry">
            <mxPoint x="160" y="360" as="sourcePoint" />
            <mxPoint x="40" y="360" as="targetPoint" />
          </mxGeometry>
        </mxCell>
        <mxCell id="SFKMhrFDoCjTkCOqEAOS-17" value="[]Accounts" style="text;html=1;strokeColor=none;fillColor=none;align=center;verticalAlign=middle;whiteSpace=wrap;rounded=0;" vertex="1" parent="ueTMvPXVKf2m_dbtW49i-1">
          <mxGeometry x="80" y="330" width="40" height="20" as="geometry" />
        </mxCell>
      </root>
    </mxGraphModel>
  </diagram>
  <diagram id="kiwetfjLdnTVlW79pGFN" name="GetAccountById">
    <mxGraphModel dx="739" dy="481" grid="1" gridSize="10" guides="1" tooltips="1" connect="1" arrows="1" fold="1" page="1" pageScale="1" pageWidth="827" pageHeight="1169" math="0" shadow="0">
      <root>
        <mxCell id="-UHCJPgmRpt9Z01PIQLc-0" />
        <mxCell id="-UHCJPgmRpt9Z01PIQLc-1" parent="-UHCJPgmRpt9Z01PIQLc-0" />
        <mxCell id="-UHCJPgmRpt9Z01PIQLc-2" value="API" style="rounded=1;whiteSpace=wrap;html=1;" vertex="1" parent="-UHCJPgmRpt9Z01PIQLc-1">
          <mxGeometry x="110" y="40" width="120" height="60" as="geometry" />
        </mxCell>
        <mxCell id="-UHCJPgmRpt9Z01PIQLc-3" value="Client" style="rounded=1;whiteSpace=wrap;html=1;" vertex="1" parent="-UHCJPgmRpt9Z01PIQLc-1">
          <mxGeometry x="320" y="40" width="120" height="60" as="geometry" />
        </mxCell>
        <mxCell id="-UHCJPgmRpt9Z01PIQLc-4" value="Fabric" style="rounded=1;whiteSpace=wrap;html=1;" vertex="1" parent="-UHCJPgmRpt9Z01PIQLc-1">
          <mxGeometry x="540" y="40" width="120" height="60" as="geometry" />
        </mxCell>
        <mxCell id="-UHCJPgmRpt9Z01PIQLc-5" value="" style="endArrow=none;dashed=1;html=1;dashPattern=1 3;strokeWidth=2;entryX=0.5;entryY=1;entryDx=0;entryDy=0;" edge="1" parent="-UHCJPgmRpt9Z01PIQLc-1" target="-UHCJPgmRpt9Z01PIQLc-2">
          <mxGeometry width="50" height="50" relative="1" as="geometry">
            <mxPoint x="170" y="470" as="sourcePoint" />
            <mxPoint x="440" y="230" as="targetPoint" />
          </mxGeometry>
        </mxCell>
        <mxCell id="-UHCJPgmRpt9Z01PIQLc-6" value="" style="endArrow=classic;html=1;strokeColor=#000000;" edge="1" parent="-UHCJPgmRpt9Z01PIQLc-1">
          <mxGeometry width="50" height="50" relative="1" as="geometry">
            <mxPoint x="40" y="160" as="sourcePoint" />
            <mxPoint x="170" y="160" as="targetPoint" />
          </mxGeometry>
        </mxCell>
        <mxCell id="-UHCJPgmRpt9Z01PIQLc-7" value="GetAccountById" style="text;html=1;strokeColor=none;fillColor=none;align=center;verticalAlign=middle;whiteSpace=wrap;rounded=0;" vertex="1" parent="-UHCJPgmRpt9Z01PIQLc-1">
          <mxGeometry x="80" y="140" width="40" height="20" as="geometry" />
        </mxCell>
        <mxCell id="-UHCJPgmRpt9Z01PIQLc-9" value="" style="endArrow=classic;html=1;strokeColor=#000000;" edge="1" parent="-UHCJPgmRpt9Z01PIQLc-1">
          <mxGeometry width="50" height="50" relative="1" as="geometry">
            <mxPoint x="170" y="200" as="sourcePoint" />
            <mxPoint x="380" y="200" as="targetPoint" />
          </mxGeometry>
        </mxCell>
        <mxCell id="-UHCJPgmRpt9Z01PIQLc-10" value="" style="endArrow=none;dashed=1;html=1;dashPattern=1 3;strokeWidth=2;entryX=0.5;entryY=1;entryDx=0;entryDy=0;" edge="1" parent="-UHCJPgmRpt9Z01PIQLc-1" target="-UHCJPgmRpt9Z01PIQLc-3">
          <mxGeometry width="50" height="50" relative="1" as="geometry">
            <mxPoint x="380" y="240" as="sourcePoint" />
            <mxPoint x="440" y="230" as="targetPoint" />
          </mxGeometry>
        </mxCell>
        <mxCell id="-UHCJPgmRpt9Z01PIQLc-12" value="Error ?" style="rhombus;whiteSpace=wrap;html=1;" vertex="1" parent="-UHCJPgmRpt9Z01PIQLc-1">
          <mxGeometry x="340" y="240" width="80" height="30" as="geometry" />
        </mxCell>
        <mxCell id="-UHCJPgmRpt9Z01PIQLc-13" value="" style="endArrow=classic;html=1;exitX=0;exitY=0.5;exitDx=0;exitDy=0;strokeColor=#FF0000;dashed=1;" edge="1" parent="-UHCJPgmRpt9Z01PIQLc-1" source="-UHCJPgmRpt9Z01PIQLc-12">
          <mxGeometry width="50" height="50" relative="1" as="geometry">
            <mxPoint x="390" y="280" as="sourcePoint" />
            <mxPoint x="170" y="255" as="targetPoint" />
          </mxGeometry>
        </mxCell>
        <mxCell id="-UHCJPgmRpt9Z01PIQLc-14" value="" style="endArrow=classic;html=1;strokeColor=#000000;exitX=1;exitY=0.5;exitDx=0;exitDy=0;" edge="1" parent="-UHCJPgmRpt9Z01PIQLc-1" source="-UHCJPgmRpt9Z01PIQLc-12">
          <mxGeometry width="50" height="50" relative="1" as="geometry">
            <mxPoint x="390" y="280" as="sourcePoint" />
            <mxPoint x="380" y="310" as="targetPoint" />
            <Array as="points">
              <mxPoint x="490" y="255" />
              <mxPoint x="490" y="310" />
            </Array>
          </mxGeometry>
        </mxCell>
        <mxCell id="-UHCJPgmRpt9Z01PIQLc-15" value="" style="endArrow=none;dashed=1;html=1;dashPattern=1 3;strokeWidth=2;exitX=0.5;exitY=1;exitDx=0;exitDy=0;" edge="1" parent="-UHCJPgmRpt9Z01PIQLc-1" source="-UHCJPgmRpt9Z01PIQLc-12">
          <mxGeometry width="50" height="50" relative="1" as="geometry">
            <mxPoint x="390" y="280" as="sourcePoint" />
            <mxPoint x="380" y="470" as="targetPoint" />
          </mxGeometry>
        </mxCell>
        <mxCell id="-UHCJPgmRpt9Z01PIQLc-16" value="No" style="text;html=1;strokeColor=none;fillColor=none;align=center;verticalAlign=middle;whiteSpace=wrap;rounded=0;" vertex="1" parent="-UHCJPgmRpt9Z01PIQLc-1">
          <mxGeometry x="440" y="230" width="40" height="20" as="geometry" />
        </mxCell>
        <mxCell id="-UHCJPgmRpt9Z01PIQLc-17" value="Yes" style="text;html=1;strokeColor=none;fillColor=none;align=center;verticalAlign=middle;whiteSpace=wrap;rounded=0;" vertex="1" parent="-UHCJPgmRpt9Z01PIQLc-1">
          <mxGeometry x="260" y="230" width="40" height="20" as="geometry" />
        </mxCell>
        <mxCell id="-UHCJPgmRpt9Z01PIQLc-18" value="" style="endArrow=classic;html=1;strokeColor=#FF0000;dashed=1;" edge="1" parent="-UHCJPgmRpt9Z01PIQLc-1">
          <mxGeometry width="50" height="50" relative="1" as="geometry">
            <mxPoint x="170" y="290" as="sourcePoint" />
            <mxPoint x="40" y="290" as="targetPoint" />
          </mxGeometry>
        </mxCell>
        <mxCell id="-UHCJPgmRpt9Z01PIQLc-19" value="" style="endArrow=classic;html=1;strokeColor=#000000;" edge="1" parent="-UHCJPgmRpt9Z01PIQLc-1">
          <mxGeometry width="50" height="50" relative="1" as="geometry">
            <mxPoint x="380" y="360" as="sourcePoint" />
            <mxPoint x="170" y="360" as="targetPoint" />
          </mxGeometry>
        </mxCell>
        <mxCell id="-UHCJPgmRpt9Z01PIQLc-20" value="" style="endArrow=classic;html=1;strokeColor=#000000;" edge="1" parent="-UHCJPgmRpt9Z01PIQLc-1">
          <mxGeometry width="50" height="50" relative="1" as="geometry">
            <mxPoint x="170" y="400" as="sourcePoint" />
            <mxPoint x="40" y="400" as="targetPoint" />
          </mxGeometry>
        </mxCell>
        <mxCell id="-UHCJPgmRpt9Z01PIQLc-21" value="Account" style="text;html=1;strokeColor=none;fillColor=none;align=center;verticalAlign=middle;whiteSpace=wrap;rounded=0;" vertex="1" parent="-UHCJPgmRpt9Z01PIQLc-1">
          <mxGeometry x="90" y="370" width="40" height="20" as="geometry" />
        </mxCell>
      </root>
    </mxGraphModel>
  </diagram>
  <diagram id="OuVxKndwY4PWaCGTEHAx" name="UpdateAccountById">
    <mxGraphModel dx="739" dy="481" grid="1" gridSize="10" guides="1" tooltips="1" connect="1" arrows="1" fold="1" page="1" pageScale="1" pageWidth="827" pageHeight="1169" math="0" shadow="0">
      <root>
        <mxCell id="Xk5x-lt144TJNn0xgL5M-0" />
        <mxCell id="Xk5x-lt144TJNn0xgL5M-1" parent="Xk5x-lt144TJNn0xgL5M-0" />
        <mxCell id="Xk5x-lt144TJNn0xgL5M-2" value="API" style="rounded=1;whiteSpace=wrap;html=1;" vertex="1" parent="Xk5x-lt144TJNn0xgL5M-1">
          <mxGeometry x="100" y="40" width="120" height="60" as="geometry" />
        </mxCell>
        <mxCell id="Xk5x-lt144TJNn0xgL5M-3" value="Client" style="rounded=1;whiteSpace=wrap;html=1;" vertex="1" parent="Xk5x-lt144TJNn0xgL5M-1">
          <mxGeometry x="320" y="40" width="120" height="60" as="geometry" />
        </mxCell>
        <mxCell id="Xk5x-lt144TJNn0xgL5M-4" value="Fabric" style="rounded=1;whiteSpace=wrap;html=1;" vertex="1" parent="Xk5x-lt144TJNn0xgL5M-1">
          <mxGeometry x="560" y="40" width="120" height="60" as="geometry" />
        </mxCell>
        <mxCell id="Xk5x-lt144TJNn0xgL5M-5" value="" style="endArrow=none;dashed=1;html=1;dashPattern=1 3;strokeWidth=2;entryX=0.5;entryY=1;entryDx=0;entryDy=0;" edge="1" parent="Xk5x-lt144TJNn0xgL5M-1" target="Xk5x-lt144TJNn0xgL5M-2">
          <mxGeometry width="50" height="50" relative="1" as="geometry">
            <mxPoint x="160" y="480" as="sourcePoint" />
            <mxPoint x="440" y="230" as="targetPoint" />
          </mxGeometry>
        </mxCell>
        <mxCell id="Xk5x-lt144TJNn0xgL5M-6" value="" style="endArrow=none;dashed=1;html=1;dashPattern=1 3;strokeWidth=2;entryX=0.5;entryY=1;entryDx=0;entryDy=0;" edge="1" parent="Xk5x-lt144TJNn0xgL5M-1" target="Xk5x-lt144TJNn0xgL5M-3">
          <mxGeometry width="50" height="50" relative="1" as="geometry">
            <mxPoint x="380" y="240" as="sourcePoint" />
            <mxPoint x="440" y="230" as="targetPoint" />
          </mxGeometry>
        </mxCell>
        <mxCell id="Xk5x-lt144TJNn0xgL5M-7" value="" style="endArrow=classic;html=1;" edge="1" parent="Xk5x-lt144TJNn0xgL5M-1">
          <mxGeometry width="50" height="50" relative="1" as="geometry">
            <mxPoint x="40" y="160" as="sourcePoint" />
            <mxPoint x="160" y="160" as="targetPoint" />
          </mxGeometry>
        </mxCell>
        <mxCell id="Xk5x-lt144TJNn0xgL5M-8" value="" style="endArrow=classic;html=1;" edge="1" parent="Xk5x-lt144TJNn0xgL5M-1">
          <mxGeometry width="50" height="50" relative="1" as="geometry">
            <mxPoint x="160" y="200" as="sourcePoint" />
            <mxPoint x="380" y="200" as="targetPoint" />
          </mxGeometry>
        </mxCell>
        <mxCell id="Xk5x-lt144TJNn0xgL5M-9" value="Error ?" style="rhombus;whiteSpace=wrap;html=1;" vertex="1" parent="Xk5x-lt144TJNn0xgL5M-1">
          <mxGeometry x="340" y="240" width="80" height="40" as="geometry" />
        </mxCell>
        <mxCell id="Xk5x-lt144TJNn0xgL5M-10" value="" style="endArrow=none;dashed=1;html=1;dashPattern=1 3;strokeWidth=2;exitX=0.5;exitY=1;exitDx=0;exitDy=0;" edge="1" parent="Xk5x-lt144TJNn0xgL5M-1" source="Xk5x-lt144TJNn0xgL5M-9">
          <mxGeometry width="50" height="50" relative="1" as="geometry">
            <mxPoint x="390" y="280" as="sourcePoint" />
            <mxPoint x="380" y="470" as="targetPoint" />
          </mxGeometry>
        </mxCell>
        <mxCell id="Xk5x-lt144TJNn0xgL5M-11" value="" style="endArrow=classic;html=1;" edge="1" parent="Xk5x-lt144TJNn0xgL5M-1">
          <mxGeometry width="50" height="50" relative="1" as="geometry">
            <mxPoint x="420" y="260" as="sourcePoint" />
            <mxPoint x="380" y="320" as="targetPoint" />
            <Array as="points">
              <mxPoint x="480" y="260" />
              <mxPoint x="480" y="320" />
            </Array>
          </mxGeometry>
        </mxCell>
        <mxCell id="Xk5x-lt144TJNn0xgL5M-12" value="" style="endArrow=classic;html=1;dashed=1;strokeColor=#FF0000;exitX=0;exitY=0.5;exitDx=0;exitDy=0;" edge="1" parent="Xk5x-lt144TJNn0xgL5M-1" source="Xk5x-lt144TJNn0xgL5M-9">
          <mxGeometry width="50" height="50" relative="1" as="geometry">
            <mxPoint x="390" y="280" as="sourcePoint" />
            <mxPoint x="160" y="260" as="targetPoint" />
          </mxGeometry>
        </mxCell>
        <mxCell id="Xk5x-lt144TJNn0xgL5M-13" value="" style="endArrow=classic;html=1;dashed=1;strokeColor=#FF0000;" edge="1" parent="Xk5x-lt144TJNn0xgL5M-1">
          <mxGeometry width="50" height="50" relative="1" as="geometry">
            <mxPoint x="160" y="300" as="sourcePoint" />
            <mxPoint x="40" y="300" as="targetPoint" />
          </mxGeometry>
        </mxCell>
        <mxCell id="Xk5x-lt144TJNn0xgL5M-14" value="" style="endArrow=classic;html=1;" edge="1" parent="Xk5x-lt144TJNn0xgL5M-1">
          <mxGeometry width="50" height="50" relative="1" as="geometry">
            <mxPoint x="380" y="360" as="sourcePoint" />
            <mxPoint x="160" y="360" as="targetPoint" />
          </mxGeometry>
        </mxCell>
        <mxCell id="Xk5x-lt144TJNn0xgL5M-15" value="" style="endArrow=classic;html=1;" edge="1" parent="Xk5x-lt144TJNn0xgL5M-1">
          <mxGeometry width="50" height="50" relative="1" as="geometry">
            <mxPoint x="160" y="400" as="sourcePoint" />
            <mxPoint x="40" y="400" as="targetPoint" />
          </mxGeometry>
        </mxCell>
        <mxCell id="Xk5x-lt144TJNn0xgL5M-16" value="UpdateAccountById" style="text;html=1;strokeColor=none;fillColor=none;align=center;verticalAlign=middle;whiteSpace=wrap;rounded=0;" vertex="1" parent="Xk5x-lt144TJNn0xgL5M-1">
          <mxGeometry x="70" y="130" width="40" height="20" as="geometry" />
        </mxCell>
        <mxCell id="Xk5x-lt144TJNn0xgL5M-18" value="&lt;div&gt;No&lt;/div&gt;" style="text;html=1;strokeColor=none;fillColor=none;align=center;verticalAlign=middle;whiteSpace=wrap;rounded=0;" vertex="1" parent="Xk5x-lt144TJNn0xgL5M-1">
          <mxGeometry x="430" y="240" width="40" height="20" as="geometry" />
        </mxCell>
        <mxCell id="Xk5x-lt144TJNn0xgL5M-19" value="Yes" style="text;html=1;strokeColor=none;fillColor=none;align=center;verticalAlign=middle;whiteSpace=wrap;rounded=0;" vertex="1" parent="Xk5x-lt144TJNn0xgL5M-1">
          <mxGeometry x="250" y="240" width="40" height="20" as="geometry" />
        </mxCell>
        <mxCell id="Xk5x-lt144TJNn0xgL5M-20" value="Account" style="text;html=1;strokeColor=none;fillColor=none;align=center;verticalAlign=middle;whiteSpace=wrap;rounded=0;" vertex="1" parent="Xk5x-lt144TJNn0xgL5M-1">
          <mxGeometry x="80" y="370" width="40" height="20" as="geometry" />
        </mxCell>
        <mxCell id="nHbqz37R6IVGmaj9AQz1-0" value="&lt;div&gt;Updated Successfully&lt;/div&gt;" style="text;html=1;strokeColor=none;fillColor=none;align=center;verticalAlign=middle;whiteSpace=wrap;rounded=0;" vertex="1" parent="Xk5x-lt144TJNn0xgL5M-1">
          <mxGeometry x="410" y="330" width="40" height="20" as="geometry" />
        </mxCell>
      </root>
    </mxGraphModel>
  </diagram>
  <diagram id="AeYmUnvekMcBsTe7I8_v" name="DeleteAccountById">
    <mxGraphModel dx="739" dy="481" grid="1" gridSize="10" guides="1" tooltips="1" connect="1" arrows="1" fold="1" page="1" pageScale="1" pageWidth="827" pageHeight="1169" math="0" shadow="0">
      <root>
        <mxCell id="UXAm2xjnLWBrPN7gshoU-0" />
        <mxCell id="UXAm2xjnLWBrPN7gshoU-1" parent="UXAm2xjnLWBrPN7gshoU-0" />
        <mxCell id="UXAm2xjnLWBrPN7gshoU-2" value="API" style="rounded=1;whiteSpace=wrap;html=1;" vertex="1" parent="UXAm2xjnLWBrPN7gshoU-1">
          <mxGeometry x="90" y="40" width="120" height="60" as="geometry" />
        </mxCell>
        <mxCell id="UXAm2xjnLWBrPN7gshoU-3" value="Client" style="rounded=1;whiteSpace=wrap;html=1;" vertex="1" parent="UXAm2xjnLWBrPN7gshoU-1">
          <mxGeometry x="310" y="40" width="120" height="60" as="geometry" />
        </mxCell>
        <mxCell id="UXAm2xjnLWBrPN7gshoU-4" value="Fabric" style="rounded=1;whiteSpace=wrap;html=1;" vertex="1" parent="UXAm2xjnLWBrPN7gshoU-1">
          <mxGeometry x="540" y="40" width="120" height="60" as="geometry" />
        </mxCell>
        <mxCell id="UXAm2xjnLWBrPN7gshoU-5" value="" style="endArrow=none;dashed=1;html=1;dashPattern=1 3;strokeWidth=2;entryX=0.5;entryY=1;entryDx=0;entryDy=0;" edge="1" parent="UXAm2xjnLWBrPN7gshoU-1" target="UXAm2xjnLWBrPN7gshoU-2">
          <mxGeometry width="50" height="50" relative="1" as="geometry">
            <mxPoint x="150" y="480" as="sourcePoint" />
            <mxPoint x="440" y="230" as="targetPoint" />
          </mxGeometry>
        </mxCell>
        <mxCell id="UXAm2xjnLWBrPN7gshoU-6" value="" style="endArrow=none;dashed=1;html=1;dashPattern=1 3;strokeWidth=2;entryX=0.5;entryY=1;entryDx=0;entryDy=0;" edge="1" parent="UXAm2xjnLWBrPN7gshoU-1" target="UXAm2xjnLWBrPN7gshoU-3">
          <mxGeometry width="50" height="50" relative="1" as="geometry">
            <mxPoint x="370" y="240" as="sourcePoint" />
            <mxPoint x="440" y="230" as="targetPoint" />
          </mxGeometry>
        </mxCell>
        <mxCell id="UXAm2xjnLWBrPN7gshoU-7" value="" style="endArrow=classic;html=1;strokeColor=#000000;" edge="1" parent="UXAm2xjnLWBrPN7gshoU-1">
          <mxGeometry width="50" height="50" relative="1" as="geometry">
            <mxPoint x="20" y="160" as="sourcePoint" />
            <mxPoint x="150" y="160" as="targetPoint" />
          </mxGeometry>
        </mxCell>
        <mxCell id="UXAm2xjnLWBrPN7gshoU-9" value="DeleteAccountById" style="text;html=1;strokeColor=none;fillColor=none;align=center;verticalAlign=middle;whiteSpace=wrap;rounded=0;" vertex="1" parent="UXAm2xjnLWBrPN7gshoU-1">
          <mxGeometry x="60" y="130" width="40" height="20" as="geometry" />
        </mxCell>
        <mxCell id="UXAm2xjnLWBrPN7gshoU-10" value="" style="endArrow=classic;html=1;strokeColor=#000000;" edge="1" parent="UXAm2xjnLWBrPN7gshoU-1">
          <mxGeometry width="50" height="50" relative="1" as="geometry">
            <mxPoint x="150" y="190" as="sourcePoint" />
            <mxPoint x="370" y="190" as="targetPoint" />
          </mxGeometry>
        </mxCell>
        <mxCell id="UXAm2xjnLWBrPN7gshoU-11" value="Error" style="rhombus;whiteSpace=wrap;html=1;" vertex="1" parent="UXAm2xjnLWBrPN7gshoU-1">
          <mxGeometry x="330" y="240" width="80" height="40" as="geometry" />
        </mxCell>
        <mxCell id="UXAm2xjnLWBrPN7gshoU-12" value="" style="endArrow=none;dashed=1;html=1;dashPattern=1 3;strokeWidth=2;exitX=0.5;exitY=1;exitDx=0;exitDy=0;" edge="1" parent="UXAm2xjnLWBrPN7gshoU-1" source="UXAm2xjnLWBrPN7gshoU-11">
          <mxGeometry width="50" height="50" relative="1" as="geometry">
            <mxPoint x="390" y="280" as="sourcePoint" />
            <mxPoint x="370" y="480" as="targetPoint" />
          </mxGeometry>
        </mxCell>
        <mxCell id="UXAm2xjnLWBrPN7gshoU-13" value="" style="endArrow=classic;html=1;strokeColor=#000000;" edge="1" parent="UXAm2xjnLWBrPN7gshoU-1">
          <mxGeometry width="50" height="50" relative="1" as="geometry">
            <mxPoint x="410" y="260" as="sourcePoint" />
            <mxPoint x="370" y="330" as="targetPoint" />
            <Array as="points">
              <mxPoint x="520" y="260" />
              <mxPoint x="520" y="330" />
            </Array>
          </mxGeometry>
        </mxCell>
        <mxCell id="UXAm2xjnLWBrPN7gshoU-14" value="&lt;div&gt;No&lt;/div&gt;" style="text;html=1;strokeColor=none;fillColor=none;align=center;verticalAlign=middle;whiteSpace=wrap;rounded=0;" vertex="1" parent="UXAm2xjnLWBrPN7gshoU-1">
          <mxGeometry x="440" y="240" width="40" height="20" as="geometry" />
        </mxCell>
        <mxCell id="UXAm2xjnLWBrPN7gshoU-15" value="&lt;div&gt;Yes&lt;/div&gt;" style="text;html=1;strokeColor=none;fillColor=none;align=center;verticalAlign=middle;whiteSpace=wrap;rounded=0;" vertex="1" parent="UXAm2xjnLWBrPN7gshoU-1">
          <mxGeometry x="250" y="240" width="40" height="20" as="geometry" />
        </mxCell>
        <mxCell id="UXAm2xjnLWBrPN7gshoU-16" value="" style="endArrow=classic;html=1;exitX=0;exitY=0.5;exitDx=0;exitDy=0;strokeColor=#FF0000;dashed=1;" edge="1" parent="UXAm2xjnLWBrPN7gshoU-1" source="UXAm2xjnLWBrPN7gshoU-11">
          <mxGeometry width="50" height="50" relative="1" as="geometry">
            <mxPoint x="390" y="280" as="sourcePoint" />
            <mxPoint x="150" y="260" as="targetPoint" />
          </mxGeometry>
        </mxCell>
        <mxCell id="UXAm2xjnLWBrPN7gshoU-20" value="" style="endArrow=classic;html=1;dashed=1;strokeColor=#FF0000;" edge="1" parent="UXAm2xjnLWBrPN7gshoU-1">
          <mxGeometry width="50" height="50" relative="1" as="geometry">
            <mxPoint x="150" y="300" as="sourcePoint" />
            <mxPoint x="20" y="300" as="targetPoint" />
          </mxGeometry>
        </mxCell>
        <mxCell id="UXAm2xjnLWBrPN7gshoU-21" value="Deleted Successfully" style="text;html=1;strokeColor=none;fillColor=none;align=center;verticalAlign=middle;whiteSpace=wrap;rounded=0;" vertex="1" parent="UXAm2xjnLWBrPN7gshoU-1">
          <mxGeometry x="410" y="340" width="40" height="20" as="geometry" />
        </mxCell>
      </root>
    </mxGraphModel>
  </diagram>
  <diagram id="-TpHxn7B2gJL7WTY9rVX" name="AccountWithdraw">
    <mxGraphModel dx="739" dy="481" grid="1" gridSize="10" guides="1" tooltips="1" connect="1" arrows="1" fold="1" page="1" pageScale="1" pageWidth="827" pageHeight="1169" math="0" shadow="0">
      <root>
        <mxCell id="4ZSnhj1c13qDMbJ9sR96-0" />
        <mxCell id="4ZSnhj1c13qDMbJ9sR96-1" parent="4ZSnhj1c13qDMbJ9sR96-0" />
        <mxCell id="IxYfuJtBBKafqm8I3q9o-59" value="API" style="rounded=1;whiteSpace=wrap;html=1;" vertex="1" parent="4ZSnhj1c13qDMbJ9sR96-1">
          <mxGeometry x="80" y="50" width="120" height="60" as="geometry" />
        </mxCell>
        <mxCell id="IxYfuJtBBKafqm8I3q9o-60" value="Client" style="rounded=1;whiteSpace=wrap;html=1;" vertex="1" parent="4ZSnhj1c13qDMbJ9sR96-1">
          <mxGeometry x="300" y="50" width="120" height="60" as="geometry" />
        </mxCell>
        <mxCell id="IxYfuJtBBKafqm8I3q9o-61" value="Fabric" style="rounded=1;whiteSpace=wrap;html=1;" vertex="1" parent="4ZSnhj1c13qDMbJ9sR96-1">
          <mxGeometry x="530" y="50" width="120" height="60" as="geometry" />
        </mxCell>
        <mxCell id="IxYfuJtBBKafqm8I3q9o-62" value="" style="endArrow=none;dashed=1;html=1;dashPattern=1 3;strokeWidth=2;entryX=0.5;entryY=1;entryDx=0;entryDy=0;" edge="1" parent="4ZSnhj1c13qDMbJ9sR96-1" target="IxYfuJtBBKafqm8I3q9o-59">
          <mxGeometry width="50" height="50" relative="1" as="geometry">
            <mxPoint x="140" y="990" as="sourcePoint" />
            <mxPoint x="450" y="240" as="targetPoint" />
          </mxGeometry>
        </mxCell>
        <mxCell id="IxYfuJtBBKafqm8I3q9o-63" value="" style="endArrow=none;dashed=1;html=1;dashPattern=1 3;strokeWidth=2;entryX=0.5;entryY=1;entryDx=0;entryDy=0;exitX=0.5;exitY=0;exitDx=0;exitDy=0;" edge="1" parent="4ZSnhj1c13qDMbJ9sR96-1" source="IxYfuJtBBKafqm8I3q9o-90" target="IxYfuJtBBKafqm8I3q9o-60">
          <mxGeometry width="50" height="50" relative="1" as="geometry">
            <mxPoint x="360" y="790" as="sourcePoint" />
            <mxPoint x="450" y="240" as="targetPoint" />
          </mxGeometry>
        </mxCell>
        <mxCell id="IxYfuJtBBKafqm8I3q9o-64" value="" style="endArrow=classic;html=1;dashed=1;strokeColor=#FF0000;" edge="1" parent="4ZSnhj1c13qDMbJ9sR96-1">
          <mxGeometry width="50" height="50" relative="1" as="geometry">
            <mxPoint x="30" y="160" as="sourcePoint" />
            <mxPoint x="140" y="160" as="targetPoint" />
          </mxGeometry>
        </mxCell>
        <mxCell id="IxYfuJtBBKafqm8I3q9o-65" value="&lt;div&gt;AccountWithdraw&lt;/div&gt;" style="text;html=1;strokeColor=none;fillColor=none;align=center;verticalAlign=middle;whiteSpace=wrap;rounded=0;" vertex="1" parent="4ZSnhj1c13qDMbJ9sR96-1">
          <mxGeometry x="60" y="130" width="40" height="20" as="geometry" />
        </mxCell>
        <mxCell id="IxYfuJtBBKafqm8I3q9o-66" value="" style="endArrow=classic;html=1;dashed=1;strokeColor=#FF0000;" edge="1" parent="4ZSnhj1c13qDMbJ9sR96-1">
          <mxGeometry width="50" height="50" relative="1" as="geometry">
            <mxPoint x="140" y="170" as="sourcePoint" />
            <mxPoint x="360" y="170" as="targetPoint" />
          </mxGeometry>
        </mxCell>
        <mxCell id="IxYfuJtBBKafqm8I3q9o-67" value="" style="endArrow=classic;html=1;dashed=1;strokeColor=#FF0000;" edge="1" parent="4ZSnhj1c13qDMbJ9sR96-1">
          <mxGeometry width="50" height="50" relative="1" as="geometry">
            <mxPoint x="357.5" y="270" as="sourcePoint" />
            <mxPoint x="590" y="270" as="targetPoint" />
          </mxGeometry>
        </mxCell>
        <mxCell id="IxYfuJtBBKafqm8I3q9o-68" value="" style="endArrow=none;dashed=1;html=1;dashPattern=1 3;strokeWidth=2;entryX=0.5;entryY=1;entryDx=0;entryDy=0;exitX=0.5;exitY=0;exitDx=0;exitDy=0;" edge="1" parent="4ZSnhj1c13qDMbJ9sR96-1" source="IxYfuJtBBKafqm8I3q9o-70" target="IxYfuJtBBKafqm8I3q9o-61">
          <mxGeometry width="50" height="50" relative="1" as="geometry">
            <mxPoint x="590" y="300" as="sourcePoint" />
            <mxPoint x="450" y="240" as="targetPoint" />
          </mxGeometry>
        </mxCell>
        <mxCell id="IxYfuJtBBKafqm8I3q9o-69" value="Tx" style="text;html=1;strokeColor=none;fillColor=none;align=center;verticalAlign=middle;whiteSpace=wrap;rounded=0;" vertex="1" parent="4ZSnhj1c13qDMbJ9sR96-1">
          <mxGeometry x="60" y="170" width="40" height="20" as="geometry" />
        </mxCell>
        <mxCell id="IxYfuJtBBKafqm8I3q9o-70" value="Error ?" style="rhombus;whiteSpace=wrap;html=1;" vertex="1" parent="4ZSnhj1c13qDMbJ9sR96-1">
          <mxGeometry x="550" y="330" width="80" height="40" as="geometry" />
        </mxCell>
        <mxCell id="IxYfuJtBBKafqm8I3q9o-71" value="" style="endArrow=classic;html=1;dashed=1;strokeColor=#FF0000;" edge="1" parent="4ZSnhj1c13qDMbJ9sR96-1">
          <mxGeometry width="50" height="50" relative="1" as="geometry">
            <mxPoint x="590" y="290" as="sourcePoint" />
            <mxPoint x="590" y="320" as="targetPoint" />
            <Array as="points">
              <mxPoint x="690" y="290" />
              <mxPoint x="690" y="320" />
            </Array>
          </mxGeometry>
        </mxCell>
        <mxCell id="IxYfuJtBBKafqm8I3q9o-72" value="&lt;div&gt;GetState(Tx.Id)&lt;/div&gt;" style="text;html=1;strokeColor=none;fillColor=none;align=center;verticalAlign=middle;whiteSpace=wrap;rounded=0;" vertex="1" parent="4ZSnhj1c13qDMbJ9sR96-1">
          <mxGeometry x="650" y="250" width="40" height="20" as="geometry" />
        </mxCell>
        <mxCell id="IxYfuJtBBKafqm8I3q9o-73" value="" style="endArrow=classic;html=1;dashed=1;strokeColor=#FF0000;exitX=-0.075;exitY=0.5;exitDx=0;exitDy=0;exitPerimeter=0;" edge="1" parent="4ZSnhj1c13qDMbJ9sR96-1" source="IxYfuJtBBKafqm8I3q9o-70">
          <mxGeometry width="50" height="50" relative="1" as="geometry">
            <mxPoint x="400" y="320" as="sourcePoint" />
            <mxPoint x="360" y="350" as="targetPoint" />
          </mxGeometry>
        </mxCell>
        <mxCell id="IxYfuJtBBKafqm8I3q9o-74" value="" style="endArrow=classic;html=1;dashed=1;strokeColor=#FF0000;exitX=1;exitY=0.5;exitDx=0;exitDy=0;" edge="1" parent="4ZSnhj1c13qDMbJ9sR96-1" source="IxYfuJtBBKafqm8I3q9o-70">
          <mxGeometry width="50" height="50" relative="1" as="geometry">
            <mxPoint x="400" y="320" as="sourcePoint" />
            <mxPoint x="590" y="410" as="targetPoint" />
            <Array as="points">
              <mxPoint x="690" y="350" />
              <mxPoint x="690" y="410" />
            </Array>
          </mxGeometry>
        </mxCell>
        <mxCell id="IxYfuJtBBKafqm8I3q9o-75" value="" style="endArrow=none;dashed=1;html=1;dashPattern=1 3;strokeWidth=2;entryX=0.5;entryY=1;entryDx=0;entryDy=0;" edge="1" parent="4ZSnhj1c13qDMbJ9sR96-1" target="IxYfuJtBBKafqm8I3q9o-70">
          <mxGeometry width="50" height="50" relative="1" as="geometry">
            <mxPoint x="590" y="530" as="sourcePoint" />
            <mxPoint x="450" y="270" as="targetPoint" />
          </mxGeometry>
        </mxCell>
        <mxCell id="IxYfuJtBBKafqm8I3q9o-76" value="No" style="text;html=1;strokeColor=none;fillColor=none;align=center;verticalAlign=middle;whiteSpace=wrap;rounded=0;" vertex="1" parent="4ZSnhj1c13qDMbJ9sR96-1">
          <mxGeometry x="640" y="330" width="40" height="20" as="geometry" />
        </mxCell>
        <mxCell id="IxYfuJtBBKafqm8I3q9o-77" value="Yes" style="text;html=1;strokeColor=none;fillColor=none;align=center;verticalAlign=middle;whiteSpace=wrap;rounded=0;" vertex="1" parent="4ZSnhj1c13qDMbJ9sR96-1">
          <mxGeometry x="450" y="330" width="40" height="20" as="geometry" />
        </mxCell>
        <mxCell id="IxYfuJtBBKafqm8I3q9o-78" value="" style="endArrow=classic;html=1;dashed=1;strokeColor=#FF0000;" edge="1" parent="4ZSnhj1c13qDMbJ9sR96-1">
          <mxGeometry width="50" height="50" relative="1" as="geometry">
            <mxPoint x="590" y="450" as="sourcePoint" />
            <mxPoint x="590" y="490" as="targetPoint" />
            <Array as="points">
              <mxPoint x="690" y="450" />
              <mxPoint x="690" y="490" />
            </Array>
          </mxGeometry>
        </mxCell>
        <mxCell id="IxYfuJtBBKafqm8I3q9o-79" value="PutState(Tx.Id,&amp;nbsp; Account.Balance - Tx.Amount)" style="text;html=1;strokeColor=none;fillColor=none;align=center;verticalAlign=middle;whiteSpace=wrap;rounded=0;" vertex="1" parent="4ZSnhj1c13qDMbJ9sR96-1">
          <mxGeometry x="731" y="460" width="40" height="20" as="geometry" />
        </mxCell>
        <mxCell id="IxYfuJtBBKafqm8I3q9o-80" value="Error ?" style="rhombus;whiteSpace=wrap;html=1;" vertex="1" parent="4ZSnhj1c13qDMbJ9sR96-1">
          <mxGeometry x="550" y="530" width="80" height="40" as="geometry" />
        </mxCell>
        <mxCell id="IxYfuJtBBKafqm8I3q9o-81" value="" style="endArrow=classic;html=1;dashed=1;strokeColor=#FF0000;" edge="1" parent="4ZSnhj1c13qDMbJ9sR96-1">
          <mxGeometry width="50" height="50" relative="1" as="geometry">
            <mxPoint x="550" y="550" as="sourcePoint" />
            <mxPoint x="360" y="550" as="targetPoint" />
          </mxGeometry>
        </mxCell>
        <mxCell id="IxYfuJtBBKafqm8I3q9o-82" value="" style="endArrow=classic;html=1;exitX=1;exitY=0.5;exitDx=0;exitDy=0;" edge="1" parent="4ZSnhj1c13qDMbJ9sR96-1" source="IxYfuJtBBKafqm8I3q9o-80">
          <mxGeometry width="50" height="50" relative="1" as="geometry">
            <mxPoint x="470" y="480" as="sourcePoint" />
            <mxPoint x="590" y="630" as="targetPoint" />
            <Array as="points">
              <mxPoint x="690" y="550" />
              <mxPoint x="690" y="630" />
              <mxPoint x="660" y="630" />
            </Array>
          </mxGeometry>
        </mxCell>
        <mxCell id="IxYfuJtBBKafqm8I3q9o-83" value="" style="endArrow=none;dashed=1;html=1;dashPattern=1 3;strokeWidth=2;entryX=0.5;entryY=1;entryDx=0;entryDy=0;" edge="1" parent="4ZSnhj1c13qDMbJ9sR96-1" target="IxYfuJtBBKafqm8I3q9o-80">
          <mxGeometry width="50" height="50" relative="1" as="geometry">
            <mxPoint x="590" y="980" as="sourcePoint" />
            <mxPoint x="520" y="430" as="targetPoint" />
          </mxGeometry>
        </mxCell>
        <mxCell id="IxYfuJtBBKafqm8I3q9o-84" value="No" style="text;html=1;strokeColor=none;fillColor=none;align=center;verticalAlign=middle;whiteSpace=wrap;rounded=0;" vertex="1" parent="4ZSnhj1c13qDMbJ9sR96-1">
          <mxGeometry x="650" y="530" width="40" height="20" as="geometry" />
        </mxCell>
        <mxCell id="IxYfuJtBBKafqm8I3q9o-85" value="Yes" style="text;html=1;strokeColor=none;fillColor=none;align=center;verticalAlign=middle;whiteSpace=wrap;rounded=0;" vertex="1" parent="4ZSnhj1c13qDMbJ9sR96-1">
          <mxGeometry x="450" y="530" width="40" height="20" as="geometry" />
        </mxCell>
        <mxCell id="IxYfuJtBBKafqm8I3q9o-86" value="Updated Balance Successfully" style="text;html=1;strokeColor=none;fillColor=none;align=center;verticalAlign=middle;whiteSpace=wrap;rounded=0;" vertex="1" parent="4ZSnhj1c13qDMbJ9sR96-1">
          <mxGeometry x="620" y="660" width="40" height="20" as="geometry" />
        </mxCell>
        <mxCell id="IxYfuJtBBKafqm8I3q9o-87" value="" style="endArrow=classic;html=1;" edge="1" parent="4ZSnhj1c13qDMbJ9sR96-1">
          <mxGeometry width="50" height="50" relative="1" as="geometry">
            <mxPoint x="590" y="660" as="sourcePoint" />
            <mxPoint x="360" y="660" as="targetPoint" />
          </mxGeometry>
        </mxCell>
        <mxCell id="IxYfuJtBBKafqm8I3q9o-88" value="" style="endArrow=classic;html=1;" edge="1" parent="4ZSnhj1c13qDMbJ9sR96-1">
          <mxGeometry width="50" height="50" relative="1" as="geometry">
            <mxPoint x="360" y="690" as="sourcePoint" />
            <mxPoint x="360" y="730" as="targetPoint" />
            <Array as="points">
              <mxPoint x="430" y="690" />
              <mxPoint x="430" y="720" />
              <mxPoint x="430" y="730" />
            </Array>
          </mxGeometry>
        </mxCell>
        <mxCell id="IxYfuJtBBKafqm8I3q9o-89" value="UpdateBalance(Tx.Id, Account.Balance - Tx.Amount)" style="text;html=1;strokeColor=none;fillColor=none;align=center;verticalAlign=middle;whiteSpace=wrap;rounded=0;" vertex="1" parent="4ZSnhj1c13qDMbJ9sR96-1">
          <mxGeometry x="480" y="780" width="40" height="20" as="geometry" />
        </mxCell>
        <mxCell id="IxYfuJtBBKafqm8I3q9o-90" value="Error ?" style="rhombus;whiteSpace=wrap;html=1;" vertex="1" parent="4ZSnhj1c13qDMbJ9sR96-1">
          <mxGeometry x="320" y="850" width="80" height="40" as="geometry" />
        </mxCell>
        <mxCell id="IxYfuJtBBKafqm8I3q9o-91" value="" style="endArrow=classic;html=1;" edge="1" parent="4ZSnhj1c13qDMbJ9sR96-1">
          <mxGeometry width="50" height="50" relative="1" as="geometry">
            <mxPoint x="400" y="870" as="sourcePoint" />
            <mxPoint x="360" y="910" as="targetPoint" />
            <Array as="points">
              <mxPoint x="430" y="870" />
              <mxPoint x="460" y="870" />
              <mxPoint x="460" y="910" />
            </Array>
          </mxGeometry>
        </mxCell>
        <mxCell id="IxYfuJtBBKafqm8I3q9o-92" value="" style="endArrow=none;dashed=1;html=1;dashPattern=1 3;strokeWidth=2;exitX=0.5;exitY=1;exitDx=0;exitDy=0;" edge="1" parent="4ZSnhj1c13qDMbJ9sR96-1" source="IxYfuJtBBKafqm8I3q9o-90">
          <mxGeometry width="50" height="50" relative="1" as="geometry">
            <mxPoint x="470" y="780" as="sourcePoint" />
            <mxPoint x="360" y="990" as="targetPoint" />
          </mxGeometry>
        </mxCell>
        <mxCell id="IxYfuJtBBKafqm8I3q9o-93" value="" style="endArrow=classic;html=1;dashed=1;strokeColor=#FF0000;exitX=0;exitY=0.5;exitDx=0;exitDy=0;" edge="1" parent="4ZSnhj1c13qDMbJ9sR96-1" source="IxYfuJtBBKafqm8I3q9o-90">
          <mxGeometry width="50" height="50" relative="1" as="geometry">
            <mxPoint x="470" y="840" as="sourcePoint" />
            <mxPoint x="140" y="870" as="targetPoint" />
            <Array as="points">
              <mxPoint x="190" y="870" />
            </Array>
          </mxGeometry>
        </mxCell>
        <mxCell id="IxYfuJtBBKafqm8I3q9o-94" value="No" style="text;html=1;strokeColor=none;fillColor=none;align=center;verticalAlign=middle;whiteSpace=wrap;rounded=0;" vertex="1" parent="4ZSnhj1c13qDMbJ9sR96-1">
          <mxGeometry x="410" y="850" width="40" height="20" as="geometry" />
        </mxCell>
        <mxCell id="IxYfuJtBBKafqm8I3q9o-95" value="Yes" style="text;html=1;strokeColor=none;fillColor=none;align=center;verticalAlign=middle;whiteSpace=wrap;rounded=0;" vertex="1" parent="4ZSnhj1c13qDMbJ9sR96-1">
          <mxGeometry x="230" y="850" width="40" height="20" as="geometry" />
        </mxCell>
        <mxCell id="IxYfuJtBBKafqm8I3q9o-96" value="Updated Balance Successfully" style="text;html=1;strokeColor=none;fillColor=none;align=center;verticalAlign=middle;whiteSpace=wrap;rounded=0;" vertex="1" parent="4ZSnhj1c13qDMbJ9sR96-1">
          <mxGeometry x="380" y="930" width="40" height="20" as="geometry" />
        </mxCell>
        <mxCell id="IxYfuJtBBKafqm8I3q9o-97" value="" style="endArrow=classic;html=1;" edge="1" parent="4ZSnhj1c13qDMbJ9sR96-1">
          <mxGeometry width="50" height="50" relative="1" as="geometry">
            <mxPoint x="360" y="930" as="sourcePoint" />
            <mxPoint x="140" y="930" as="targetPoint" />
          </mxGeometry>
        </mxCell>
        <mxCell id="IxYfuJtBBKafqm8I3q9o-98" value="" style="endArrow=classic;html=1;" edge="1" parent="4ZSnhj1c13qDMbJ9sR96-1">
          <mxGeometry width="50" height="50" relative="1" as="geometry">
            <mxPoint x="140" y="970" as="sourcePoint" />
            <mxPoint x="40" y="970" as="targetPoint" />
          </mxGeometry>
        </mxCell>
        <mxCell id="IxYfuJtBBKafqm8I3q9o-99" value="" style="endArrow=classic;html=1;dashed=1;strokeColor=#FF0000;" edge="1" parent="4ZSnhj1c13qDMbJ9sR96-1">
          <mxGeometry width="50" height="50" relative="1" as="geometry">
            <mxPoint x="360" y="620" as="sourcePoint" />
            <mxPoint x="140" y="620" as="targetPoint" />
          </mxGeometry>
        </mxCell>
        <mxCell id="IxYfuJtBBKafqm8I3q9o-100" value="" style="endArrow=classic;html=1;dashed=1;strokeColor=#FF0000;" edge="1" parent="4ZSnhj1c13qDMbJ9sR96-1">
          <mxGeometry width="50" height="50" relative="1" as="geometry">
            <mxPoint x="140" y="639.5" as="sourcePoint" />
            <mxPoint x="40" y="639.5" as="targetPoint" />
          </mxGeometry>
        </mxCell>
        <mxCell id="IxYfuJtBBKafqm8I3q9o-101" value="" style="endArrow=classic;html=1;dashed=1;strokeColor=#FF0000;" edge="1" parent="4ZSnhj1c13qDMbJ9sR96-1">
          <mxGeometry width="50" height="50" relative="1" as="geometry">
            <mxPoint x="140" y="890" as="sourcePoint" />
            <mxPoint x="40" y="890" as="targetPoint" />
          </mxGeometry>
        </mxCell>
        <mxCell id="IxYfuJtBBKafqm8I3q9o-102" value="" style="endArrow=classic;html=1;dashed=1;strokeColor=#FF0000;" edge="1" parent="4ZSnhj1c13qDMbJ9sR96-1">
          <mxGeometry width="50" height="50" relative="1" as="geometry">
            <mxPoint x="360" y="380" as="sourcePoint" />
            <mxPoint x="140" y="380" as="targetPoint" />
          </mxGeometry>
        </mxCell>
        <mxCell id="IxYfuJtBBKafqm8I3q9o-103" value="" style="endArrow=classic;html=1;dashed=1;strokeColor=#FF0000;" edge="1" parent="4ZSnhj1c13qDMbJ9sR96-1">
          <mxGeometry width="50" height="50" relative="1" as="geometry">
            <mxPoint x="140" y="400" as="sourcePoint" />
            <mxPoint x="50" y="400" as="targetPoint" />
          </mxGeometry>
        </mxCell>
        <mxCell id="IxYfuJtBBKafqm8I3q9o-104" value="Account" style="text;html=1;strokeColor=none;fillColor=none;align=center;verticalAlign=middle;whiteSpace=wrap;rounded=0;" vertex="1" parent="4ZSnhj1c13qDMbJ9sR96-1">
          <mxGeometry x="70" y="950" width="40" height="20" as="geometry" />
        </mxCell>
        <mxCell id="IxYfuJtBBKafqm8I3q9o-105" value="CreateTx(Status = processing)" style="text;html=1;strokeColor=none;fillColor=none;align=center;verticalAlign=middle;whiteSpace=wrap;rounded=0;" vertex="1" parent="4ZSnhj1c13qDMbJ9sR96-1">
          <mxGeometry x="250" y="140" width="40" height="20" as="geometry" />
        </mxCell>
        <mxCell id="IxYfuJtBBKafqm8I3q9o-106" value="" style="endArrow=classic;html=1;strokeColor=#000000;" edge="1" parent="4ZSnhj1c13qDMbJ9sR96-1" target="IxYfuJtBBKafqm8I3q9o-107">
          <mxGeometry width="50" height="50" relative="1" as="geometry">
            <mxPoint x="360" y="210" as="sourcePoint" />
            <mxPoint x="140" y="210" as="targetPoint" />
          </mxGeometry>
        </mxCell>
        <mxCell id="IxYfuJtBBKafqm8I3q9o-107" value="&lt;div&gt;Error ?&lt;/div&gt;" style="rhombus;whiteSpace=wrap;html=1;" vertex="1" parent="4ZSnhj1c13qDMbJ9sR96-1">
          <mxGeometry x="320" y="200" width="80" height="30" as="geometry" />
        </mxCell>
        <mxCell id="IxYfuJtBBKafqm8I3q9o-108" value="" style="endArrow=classic;html=1;exitX=0;exitY=0.5;exitDx=0;exitDy=0;strokeColor=#FF0000;dashed=1;" edge="1" parent="4ZSnhj1c13qDMbJ9sR96-1" source="IxYfuJtBBKafqm8I3q9o-107">
          <mxGeometry width="50" height="50" relative="1" as="geometry">
            <mxPoint x="300" y="290" as="sourcePoint" />
            <mxPoint x="140" y="215" as="targetPoint" />
          </mxGeometry>
        </mxCell>
        <mxCell id="IxYfuJtBBKafqm8I3q9o-109" value="" style="endArrow=classic;html=1;strokeColor=#000000;exitX=1;exitY=0.5;exitDx=0;exitDy=0;" edge="1" parent="4ZSnhj1c13qDMbJ9sR96-1" source="IxYfuJtBBKafqm8I3q9o-107">
          <mxGeometry width="50" height="50" relative="1" as="geometry">
            <mxPoint x="300" y="290" as="sourcePoint" />
            <mxPoint x="360" y="250" as="targetPoint" />
            <Array as="points">
              <mxPoint x="470" y="215" />
              <mxPoint x="470" y="250" />
            </Array>
          </mxGeometry>
        </mxCell>
        <mxCell id="IxYfuJtBBKafqm8I3q9o-110" value="&lt;div&gt;AccountWithdraw(Tx.Id, Tx.Amount)&lt;/div&gt;" style="text;html=1;strokeColor=none;fillColor=none;align=center;verticalAlign=middle;whiteSpace=wrap;rounded=0;" vertex="1" parent="4ZSnhj1c13qDMbJ9sR96-1">
          <mxGeometry x="450" y="280" width="40" height="20" as="geometry" />
        </mxCell>
        <mxCell id="IxYfuJtBBKafqm8I3q9o-111" value="" style="endArrow=classic;html=1;strokeColor=#FF0000;rounded=1;dashed=1;" edge="1" parent="4ZSnhj1c13qDMbJ9sR96-1">
          <mxGeometry width="50" height="50" relative="1" as="geometry">
            <mxPoint x="140" y="240" as="sourcePoint" />
            <mxPoint x="30" y="240" as="targetPoint" />
          </mxGeometry>
        </mxCell>
        <mxCell id="IxYfuJtBBKafqm8I3q9o-112" value="No" style="text;html=1;strokeColor=none;fillColor=none;align=center;verticalAlign=middle;whiteSpace=wrap;rounded=0;" vertex="1" parent="4ZSnhj1c13qDMbJ9sR96-1">
          <mxGeometry x="410" y="190" width="40" height="20" as="geometry" />
        </mxCell>
        <mxCell id="IxYfuJtBBKafqm8I3q9o-113" value="Yes" style="text;html=1;strokeColor=none;fillColor=none;align=center;verticalAlign=middle;whiteSpace=wrap;rounded=0;" vertex="1" parent="4ZSnhj1c13qDMbJ9sR96-1">
          <mxGeometry x="230" y="190" width="40" height="20" as="geometry" />
        </mxCell>
        <mxCell id="IxYfuJtBBKafqm8I3q9o-114" value="UpdateTx(Status = Success)" style="text;html=1;strokeColor=none;fillColor=none;align=center;verticalAlign=middle;whiteSpace=wrap;rounded=0;" vertex="1" parent="4ZSnhj1c13qDMbJ9sR96-1">
          <mxGeometry x="470" y="700" width="40" height="20" as="geometry" />
        </mxCell>
        <mxCell id="IxYfuJtBBKafqm8I3q9o-115" value="" style="endArrow=classic;html=1;" edge="1" parent="4ZSnhj1c13qDMbJ9sR96-1">
          <mxGeometry width="50" height="50" relative="1" as="geometry">
            <mxPoint x="360" y="570" as="sourcePoint" />
            <mxPoint x="360" y="600" as="targetPoint" />
            <Array as="points">
              <mxPoint x="430" y="570" />
              <mxPoint x="430" y="600" />
            </Array>
          </mxGeometry>
        </mxCell>
        <mxCell id="IxYfuJtBBKafqm8I3q9o-116" value="UpdateTx(Status = Fail)" style="text;html=1;strokeColor=none;fillColor=none;align=center;verticalAlign=middle;whiteSpace=wrap;rounded=0;" vertex="1" parent="4ZSnhj1c13qDMbJ9sR96-1">
          <mxGeometry x="470" y="575" width="40" height="20" as="geometry" />
        </mxCell>
        <mxCell id="IxYfuJtBBKafqm8I3q9o-117" value="" style="endArrow=classic;html=1;" edge="1" parent="4ZSnhj1c13qDMbJ9sR96-1">
          <mxGeometry width="50" height="50" relative="1" as="geometry">
            <mxPoint x="360" y="770" as="sourcePoint" />
            <mxPoint x="360" y="810" as="targetPoint" />
            <Array as="points">
              <mxPoint x="430" y="770" />
              <mxPoint x="430" y="810" />
            </Array>
          </mxGeometry>
        </mxCell>
      </root>
    </mxGraphModel>
  </diagram>
  <diagram id="8Xx-ZP5It4hP0mF1my6a" name="AccountDeposit">
    <mxGraphModel dx="739" dy="481" grid="1" gridSize="10" guides="1" tooltips="1" connect="1" arrows="1" fold="1" page="1" pageScale="1" pageWidth="827" pageHeight="1169" math="0" shadow="0">
      <root>
        <mxCell id="EAjtQnlSvajGU_DfiBUz-0" />
        <mxCell id="EAjtQnlSvajGU_DfiBUz-1" parent="EAjtQnlSvajGU_DfiBUz-0" />
        <mxCell id="EAjtQnlSvajGU_DfiBUz-2" value="API" style="rounded=1;whiteSpace=wrap;html=1;" vertex="1" parent="EAjtQnlSvajGU_DfiBUz-1">
          <mxGeometry x="70" y="40" width="120" height="60" as="geometry" />
        </mxCell>
        <mxCell id="EAjtQnlSvajGU_DfiBUz-3" value="Client" style="rounded=1;whiteSpace=wrap;html=1;" vertex="1" parent="EAjtQnlSvajGU_DfiBUz-1">
          <mxGeometry x="290" y="40" width="120" height="60" as="geometry" />
        </mxCell>
        <mxCell id="EAjtQnlSvajGU_DfiBUz-4" value="Fabric" style="rounded=1;whiteSpace=wrap;html=1;" vertex="1" parent="EAjtQnlSvajGU_DfiBUz-1">
          <mxGeometry x="520" y="40" width="120" height="60" as="geometry" />
        </mxCell>
        <mxCell id="EAjtQnlSvajGU_DfiBUz-5" value="" style="endArrow=none;dashed=1;html=1;dashPattern=1 3;strokeWidth=2;entryX=0.5;entryY=1;entryDx=0;entryDy=0;" edge="1" parent="EAjtQnlSvajGU_DfiBUz-1" target="EAjtQnlSvajGU_DfiBUz-2">
          <mxGeometry width="50" height="50" relative="1" as="geometry">
            <mxPoint x="130" y="980" as="sourcePoint" />
            <mxPoint x="440" y="230" as="targetPoint" />
          </mxGeometry>
        </mxCell>
        <mxCell id="EAjtQnlSvajGU_DfiBUz-6" value="" style="endArrow=none;dashed=1;html=1;dashPattern=1 3;strokeWidth=2;entryX=0.5;entryY=1;entryDx=0;entryDy=0;exitX=0.5;exitY=0;exitDx=0;exitDy=0;" edge="1" parent="EAjtQnlSvajGU_DfiBUz-1" target="EAjtQnlSvajGU_DfiBUz-3" source="EAjtQnlSvajGU_DfiBUz-34">
          <mxGeometry width="50" height="50" relative="1" as="geometry">
            <mxPoint x="350" y="780" as="sourcePoint" />
            <mxPoint x="440" y="230" as="targetPoint" />
          </mxGeometry>
        </mxCell>
        <mxCell id="EAjtQnlSvajGU_DfiBUz-7" value="" style="endArrow=classic;html=1;dashed=1;strokeColor=#FF0000;" edge="1" parent="EAjtQnlSvajGU_DfiBUz-1">
          <mxGeometry width="50" height="50" relative="1" as="geometry">
            <mxPoint x="20" y="150" as="sourcePoint" />
            <mxPoint x="130" y="150" as="targetPoint" />
          </mxGeometry>
        </mxCell>
        <mxCell id="EAjtQnlSvajGU_DfiBUz-8" value="&lt;div&gt;AccountDeposit&lt;/div&gt;" style="text;html=1;strokeColor=none;fillColor=none;align=center;verticalAlign=middle;whiteSpace=wrap;rounded=0;" vertex="1" parent="EAjtQnlSvajGU_DfiBUz-1">
          <mxGeometry x="50" y="120" width="40" height="20" as="geometry" />
        </mxCell>
        <mxCell id="EAjtQnlSvajGU_DfiBUz-9" value="" style="endArrow=classic;html=1;dashed=1;strokeColor=#FF0000;" edge="1" parent="EAjtQnlSvajGU_DfiBUz-1">
          <mxGeometry width="50" height="50" relative="1" as="geometry">
            <mxPoint x="130" y="160" as="sourcePoint" />
            <mxPoint x="350" y="160" as="targetPoint" />
          </mxGeometry>
        </mxCell>
        <mxCell id="EAjtQnlSvajGU_DfiBUz-10" value="" style="endArrow=classic;html=1;dashed=1;strokeColor=#FF0000;" edge="1" parent="EAjtQnlSvajGU_DfiBUz-1">
          <mxGeometry width="50" height="50" relative="1" as="geometry">
            <mxPoint x="347.5" y="260" as="sourcePoint" />
            <mxPoint x="580" y="260" as="targetPoint" />
          </mxGeometry>
        </mxCell>
        <mxCell id="EAjtQnlSvajGU_DfiBUz-11" value="" style="endArrow=none;dashed=1;html=1;dashPattern=1 3;strokeWidth=2;entryX=0.5;entryY=1;entryDx=0;entryDy=0;exitX=0.5;exitY=0;exitDx=0;exitDy=0;" edge="1" parent="EAjtQnlSvajGU_DfiBUz-1" source="EAjtQnlSvajGU_DfiBUz-14" target="EAjtQnlSvajGU_DfiBUz-4">
          <mxGeometry width="50" height="50" relative="1" as="geometry">
            <mxPoint x="580" y="290" as="sourcePoint" />
            <mxPoint x="440" y="230" as="targetPoint" />
          </mxGeometry>
        </mxCell>
        <mxCell id="EAjtQnlSvajGU_DfiBUz-13" value="Tx" style="text;html=1;strokeColor=none;fillColor=none;align=center;verticalAlign=middle;whiteSpace=wrap;rounded=0;" vertex="1" parent="EAjtQnlSvajGU_DfiBUz-1">
          <mxGeometry x="50" y="160" width="40" height="20" as="geometry" />
        </mxCell>
        <mxCell id="EAjtQnlSvajGU_DfiBUz-14" value="Error ?" style="rhombus;whiteSpace=wrap;html=1;" vertex="1" parent="EAjtQnlSvajGU_DfiBUz-1">
          <mxGeometry x="540" y="320" width="80" height="40" as="geometry" />
        </mxCell>
        <mxCell id="EAjtQnlSvajGU_DfiBUz-15" value="" style="endArrow=classic;html=1;dashed=1;strokeColor=#FF0000;" edge="1" parent="EAjtQnlSvajGU_DfiBUz-1">
          <mxGeometry width="50" height="50" relative="1" as="geometry">
            <mxPoint x="580" y="280" as="sourcePoint" />
            <mxPoint x="580" y="310" as="targetPoint" />
            <Array as="points">
              <mxPoint x="680" y="280" />
              <mxPoint x="680" y="310" />
            </Array>
          </mxGeometry>
        </mxCell>
        <mxCell id="EAjtQnlSvajGU_DfiBUz-16" value="&lt;div&gt;GetState(Tx.Id)&lt;/div&gt;" style="text;html=1;strokeColor=none;fillColor=none;align=center;verticalAlign=middle;whiteSpace=wrap;rounded=0;" vertex="1" parent="EAjtQnlSvajGU_DfiBUz-1">
          <mxGeometry x="640" y="240" width="40" height="20" as="geometry" />
        </mxCell>
        <mxCell id="EAjtQnlSvajGU_DfiBUz-17" value="" style="endArrow=classic;html=1;dashed=1;strokeColor=#FF0000;exitX=-0.075;exitY=0.5;exitDx=0;exitDy=0;exitPerimeter=0;" edge="1" parent="EAjtQnlSvajGU_DfiBUz-1" source="EAjtQnlSvajGU_DfiBUz-14">
          <mxGeometry width="50" height="50" relative="1" as="geometry">
            <mxPoint x="390" y="310" as="sourcePoint" />
            <mxPoint x="350" y="340" as="targetPoint" />
          </mxGeometry>
        </mxCell>
        <mxCell id="EAjtQnlSvajGU_DfiBUz-18" value="" style="endArrow=classic;html=1;dashed=1;strokeColor=#FF0000;exitX=1;exitY=0.5;exitDx=0;exitDy=0;" edge="1" parent="EAjtQnlSvajGU_DfiBUz-1" source="EAjtQnlSvajGU_DfiBUz-14">
          <mxGeometry width="50" height="50" relative="1" as="geometry">
            <mxPoint x="390" y="310" as="sourcePoint" />
            <mxPoint x="580" y="400" as="targetPoint" />
            <Array as="points">
              <mxPoint x="680" y="340" />
              <mxPoint x="680" y="400" />
            </Array>
          </mxGeometry>
        </mxCell>
        <mxCell id="EAjtQnlSvajGU_DfiBUz-19" value="" style="endArrow=none;dashed=1;html=1;dashPattern=1 3;strokeWidth=2;entryX=0.5;entryY=1;entryDx=0;entryDy=0;" edge="1" parent="EAjtQnlSvajGU_DfiBUz-1" target="EAjtQnlSvajGU_DfiBUz-14">
          <mxGeometry width="50" height="50" relative="1" as="geometry">
            <mxPoint x="580" y="520" as="sourcePoint" />
            <mxPoint x="440" y="260" as="targetPoint" />
          </mxGeometry>
        </mxCell>
        <mxCell id="EAjtQnlSvajGU_DfiBUz-20" value="No" style="text;html=1;strokeColor=none;fillColor=none;align=center;verticalAlign=middle;whiteSpace=wrap;rounded=0;" vertex="1" parent="EAjtQnlSvajGU_DfiBUz-1">
          <mxGeometry x="630" y="320" width="40" height="20" as="geometry" />
        </mxCell>
        <mxCell id="EAjtQnlSvajGU_DfiBUz-21" value="Yes" style="text;html=1;strokeColor=none;fillColor=none;align=center;verticalAlign=middle;whiteSpace=wrap;rounded=0;" vertex="1" parent="EAjtQnlSvajGU_DfiBUz-1">
          <mxGeometry x="440" y="320" width="40" height="20" as="geometry" />
        </mxCell>
        <mxCell id="EAjtQnlSvajGU_DfiBUz-22" value="" style="endArrow=classic;html=1;dashed=1;strokeColor=#FF0000;" edge="1" parent="EAjtQnlSvajGU_DfiBUz-1">
          <mxGeometry width="50" height="50" relative="1" as="geometry">
            <mxPoint x="580" y="440" as="sourcePoint" />
            <mxPoint x="580" y="480" as="targetPoint" />
            <Array as="points">
              <mxPoint x="680" y="440" />
              <mxPoint x="680" y="480" />
            </Array>
          </mxGeometry>
        </mxCell>
        <mxCell id="EAjtQnlSvajGU_DfiBUz-23" value="PutState(Tx.Id,&amp;nbsp; Account.Balance + Tx.Amount)" style="text;html=1;strokeColor=none;fillColor=none;align=center;verticalAlign=middle;whiteSpace=wrap;rounded=0;" vertex="1" parent="EAjtQnlSvajGU_DfiBUz-1">
          <mxGeometry x="721" y="450" width="40" height="20" as="geometry" />
        </mxCell>
        <mxCell id="EAjtQnlSvajGU_DfiBUz-24" value="Error ?" style="rhombus;whiteSpace=wrap;html=1;" vertex="1" parent="EAjtQnlSvajGU_DfiBUz-1">
          <mxGeometry x="540" y="520" width="80" height="40" as="geometry" />
        </mxCell>
        <mxCell id="EAjtQnlSvajGU_DfiBUz-25" value="" style="endArrow=classic;html=1;dashed=1;strokeColor=#FF0000;" edge="1" parent="EAjtQnlSvajGU_DfiBUz-1">
          <mxGeometry width="50" height="50" relative="1" as="geometry">
            <mxPoint x="540" y="540" as="sourcePoint" />
            <mxPoint x="350" y="540" as="targetPoint" />
          </mxGeometry>
        </mxCell>
        <mxCell id="EAjtQnlSvajGU_DfiBUz-26" value="" style="endArrow=classic;html=1;exitX=1;exitY=0.5;exitDx=0;exitDy=0;" edge="1" parent="EAjtQnlSvajGU_DfiBUz-1" source="EAjtQnlSvajGU_DfiBUz-24">
          <mxGeometry width="50" height="50" relative="1" as="geometry">
            <mxPoint x="460" y="470" as="sourcePoint" />
            <mxPoint x="580" y="620" as="targetPoint" />
            <Array as="points">
              <mxPoint x="680" y="540" />
              <mxPoint x="680" y="620" />
              <mxPoint x="650" y="620" />
            </Array>
          </mxGeometry>
        </mxCell>
        <mxCell id="EAjtQnlSvajGU_DfiBUz-27" value="" style="endArrow=none;dashed=1;html=1;dashPattern=1 3;strokeWidth=2;entryX=0.5;entryY=1;entryDx=0;entryDy=0;" edge="1" parent="EAjtQnlSvajGU_DfiBUz-1" target="EAjtQnlSvajGU_DfiBUz-24">
          <mxGeometry width="50" height="50" relative="1" as="geometry">
            <mxPoint x="580" y="970" as="sourcePoint" />
            <mxPoint x="510" y="420" as="targetPoint" />
          </mxGeometry>
        </mxCell>
        <mxCell id="EAjtQnlSvajGU_DfiBUz-28" value="No" style="text;html=1;strokeColor=none;fillColor=none;align=center;verticalAlign=middle;whiteSpace=wrap;rounded=0;" vertex="1" parent="EAjtQnlSvajGU_DfiBUz-1">
          <mxGeometry x="640" y="520" width="40" height="20" as="geometry" />
        </mxCell>
        <mxCell id="EAjtQnlSvajGU_DfiBUz-29" value="Yes" style="text;html=1;strokeColor=none;fillColor=none;align=center;verticalAlign=middle;whiteSpace=wrap;rounded=0;" vertex="1" parent="EAjtQnlSvajGU_DfiBUz-1">
          <mxGeometry x="440" y="520" width="40" height="20" as="geometry" />
        </mxCell>
        <mxCell id="EAjtQnlSvajGU_DfiBUz-30" value="Updated Balance Successfully" style="text;html=1;strokeColor=none;fillColor=none;align=center;verticalAlign=middle;whiteSpace=wrap;rounded=0;" vertex="1" parent="EAjtQnlSvajGU_DfiBUz-1">
          <mxGeometry x="610" y="650" width="40" height="20" as="geometry" />
        </mxCell>
        <mxCell id="EAjtQnlSvajGU_DfiBUz-31" value="" style="endArrow=classic;html=1;" edge="1" parent="EAjtQnlSvajGU_DfiBUz-1">
          <mxGeometry width="50" height="50" relative="1" as="geometry">
            <mxPoint x="580" y="650" as="sourcePoint" />
            <mxPoint x="350" y="650" as="targetPoint" />
          </mxGeometry>
        </mxCell>
        <mxCell id="EAjtQnlSvajGU_DfiBUz-32" value="" style="endArrow=classic;html=1;" edge="1" parent="EAjtQnlSvajGU_DfiBUz-1">
          <mxGeometry width="50" height="50" relative="1" as="geometry">
            <mxPoint x="350" y="680" as="sourcePoint" />
            <mxPoint x="350" y="720" as="targetPoint" />
            <Array as="points">
              <mxPoint x="420" y="680" />
              <mxPoint x="420" y="710" />
              <mxPoint x="420" y="720" />
            </Array>
          </mxGeometry>
        </mxCell>
        <mxCell id="EAjtQnlSvajGU_DfiBUz-33" value="UpdateBalance(Tx.Id, Account.Balance + Tx.Amount)" style="text;html=1;strokeColor=none;fillColor=none;align=center;verticalAlign=middle;whiteSpace=wrap;rounded=0;" vertex="1" parent="EAjtQnlSvajGU_DfiBUz-1">
          <mxGeometry x="470" y="770" width="40" height="20" as="geometry" />
        </mxCell>
        <mxCell id="EAjtQnlSvajGU_DfiBUz-34" value="Error ?" style="rhombus;whiteSpace=wrap;html=1;" vertex="1" parent="EAjtQnlSvajGU_DfiBUz-1">
          <mxGeometry x="310" y="840" width="80" height="40" as="geometry" />
        </mxCell>
        <mxCell id="EAjtQnlSvajGU_DfiBUz-35" value="" style="endArrow=classic;html=1;" edge="1" parent="EAjtQnlSvajGU_DfiBUz-1">
          <mxGeometry width="50" height="50" relative="1" as="geometry">
            <mxPoint x="390" y="860" as="sourcePoint" />
            <mxPoint x="350" y="900" as="targetPoint" />
            <Array as="points">
              <mxPoint x="420" y="860" />
              <mxPoint x="450" y="860" />
              <mxPoint x="450" y="900" />
            </Array>
          </mxGeometry>
        </mxCell>
        <mxCell id="EAjtQnlSvajGU_DfiBUz-36" value="" style="endArrow=none;dashed=1;html=1;dashPattern=1 3;strokeWidth=2;exitX=0.5;exitY=1;exitDx=0;exitDy=0;" edge="1" parent="EAjtQnlSvajGU_DfiBUz-1" source="EAjtQnlSvajGU_DfiBUz-34">
          <mxGeometry width="50" height="50" relative="1" as="geometry">
            <mxPoint x="460" y="770" as="sourcePoint" />
            <mxPoint x="350" y="980" as="targetPoint" />
          </mxGeometry>
        </mxCell>
        <mxCell id="EAjtQnlSvajGU_DfiBUz-37" value="" style="endArrow=classic;html=1;dashed=1;strokeColor=#FF0000;exitX=0;exitY=0.5;exitDx=0;exitDy=0;" edge="1" parent="EAjtQnlSvajGU_DfiBUz-1" source="EAjtQnlSvajGU_DfiBUz-34">
          <mxGeometry width="50" height="50" relative="1" as="geometry">
            <mxPoint x="460" y="830" as="sourcePoint" />
            <mxPoint x="130" y="860" as="targetPoint" />
            <Array as="points">
              <mxPoint x="180" y="860" />
            </Array>
          </mxGeometry>
        </mxCell>
        <mxCell id="EAjtQnlSvajGU_DfiBUz-38" value="No" style="text;html=1;strokeColor=none;fillColor=none;align=center;verticalAlign=middle;whiteSpace=wrap;rounded=0;" vertex="1" parent="EAjtQnlSvajGU_DfiBUz-1">
          <mxGeometry x="400" y="840" width="40" height="20" as="geometry" />
        </mxCell>
        <mxCell id="EAjtQnlSvajGU_DfiBUz-39" value="Yes" style="text;html=1;strokeColor=none;fillColor=none;align=center;verticalAlign=middle;whiteSpace=wrap;rounded=0;" vertex="1" parent="EAjtQnlSvajGU_DfiBUz-1">
          <mxGeometry x="220" y="840" width="40" height="20" as="geometry" />
        </mxCell>
        <mxCell id="EAjtQnlSvajGU_DfiBUz-40" value="Updated Balance Successfully" style="text;html=1;strokeColor=none;fillColor=none;align=center;verticalAlign=middle;whiteSpace=wrap;rounded=0;" vertex="1" parent="EAjtQnlSvajGU_DfiBUz-1">
          <mxGeometry x="370" y="920" width="40" height="20" as="geometry" />
        </mxCell>
        <mxCell id="EAjtQnlSvajGU_DfiBUz-41" value="" style="endArrow=classic;html=1;" edge="1" parent="EAjtQnlSvajGU_DfiBUz-1">
          <mxGeometry width="50" height="50" relative="1" as="geometry">
            <mxPoint x="350" y="920" as="sourcePoint" />
            <mxPoint x="130" y="920" as="targetPoint" />
          </mxGeometry>
        </mxCell>
        <mxCell id="EAjtQnlSvajGU_DfiBUz-42" value="" style="endArrow=classic;html=1;" edge="1" parent="EAjtQnlSvajGU_DfiBUz-1">
          <mxGeometry width="50" height="50" relative="1" as="geometry">
            <mxPoint x="130" y="960" as="sourcePoint" />
            <mxPoint x="30" y="960" as="targetPoint" />
          </mxGeometry>
        </mxCell>
        <mxCell id="EAjtQnlSvajGU_DfiBUz-43" value="" style="endArrow=classic;html=1;dashed=1;strokeColor=#FF0000;" edge="1" parent="EAjtQnlSvajGU_DfiBUz-1">
          <mxGeometry width="50" height="50" relative="1" as="geometry">
            <mxPoint x="350" y="610" as="sourcePoint" />
            <mxPoint x="130" y="610" as="targetPoint" />
          </mxGeometry>
        </mxCell>
        <mxCell id="EAjtQnlSvajGU_DfiBUz-44" value="" style="endArrow=classic;html=1;dashed=1;strokeColor=#FF0000;" edge="1" parent="EAjtQnlSvajGU_DfiBUz-1">
          <mxGeometry width="50" height="50" relative="1" as="geometry">
            <mxPoint x="130" y="629.5" as="sourcePoint" />
            <mxPoint x="30" y="629.5" as="targetPoint" />
          </mxGeometry>
        </mxCell>
        <mxCell id="EAjtQnlSvajGU_DfiBUz-45" value="" style="endArrow=classic;html=1;dashed=1;strokeColor=#FF0000;" edge="1" parent="EAjtQnlSvajGU_DfiBUz-1">
          <mxGeometry width="50" height="50" relative="1" as="geometry">
            <mxPoint x="130" y="880" as="sourcePoint" />
            <mxPoint x="30" y="880" as="targetPoint" />
          </mxGeometry>
        </mxCell>
        <mxCell id="EAjtQnlSvajGU_DfiBUz-46" value="" style="endArrow=classic;html=1;dashed=1;strokeColor=#FF0000;" edge="1" parent="EAjtQnlSvajGU_DfiBUz-1">
          <mxGeometry width="50" height="50" relative="1" as="geometry">
            <mxPoint x="350" y="370" as="sourcePoint" />
            <mxPoint x="130" y="370" as="targetPoint" />
          </mxGeometry>
        </mxCell>
        <mxCell id="EAjtQnlSvajGU_DfiBUz-47" value="" style="endArrow=classic;html=1;dashed=1;strokeColor=#FF0000;" edge="1" parent="EAjtQnlSvajGU_DfiBUz-1">
          <mxGeometry width="50" height="50" relative="1" as="geometry">
            <mxPoint x="130" y="390" as="sourcePoint" />
            <mxPoint x="40" y="390" as="targetPoint" />
          </mxGeometry>
        </mxCell>
        <mxCell id="EAjtQnlSvajGU_DfiBUz-48" value="Account" style="text;html=1;strokeColor=none;fillColor=none;align=center;verticalAlign=middle;whiteSpace=wrap;rounded=0;" vertex="1" parent="EAjtQnlSvajGU_DfiBUz-1">
          <mxGeometry x="60" y="940" width="40" height="20" as="geometry" />
        </mxCell>
        <mxCell id="_zvlmkg_Ug1x5w9QbblZ-0" value="CreateTx(Status = processing)" style="text;html=1;strokeColor=none;fillColor=none;align=center;verticalAlign=middle;whiteSpace=wrap;rounded=0;" vertex="1" parent="EAjtQnlSvajGU_DfiBUz-1">
          <mxGeometry x="240" y="130" width="40" height="20" as="geometry" />
        </mxCell>
        <mxCell id="_zvlmkg_Ug1x5w9QbblZ-1" value="" style="endArrow=classic;html=1;strokeColor=#000000;" edge="1" parent="EAjtQnlSvajGU_DfiBUz-1" target="_zvlmkg_Ug1x5w9QbblZ-2">
          <mxGeometry width="50" height="50" relative="1" as="geometry">
            <mxPoint x="350" y="200" as="sourcePoint" />
            <mxPoint x="130" y="200" as="targetPoint" />
          </mxGeometry>
        </mxCell>
        <mxCell id="_zvlmkg_Ug1x5w9QbblZ-2" value="&lt;div&gt;Error ?&lt;/div&gt;" style="rhombus;whiteSpace=wrap;html=1;" vertex="1" parent="EAjtQnlSvajGU_DfiBUz-1">
          <mxGeometry x="310" y="190" width="80" height="30" as="geometry" />
        </mxCell>
        <mxCell id="_zvlmkg_Ug1x5w9QbblZ-5" value="" style="endArrow=classic;html=1;exitX=0;exitY=0.5;exitDx=0;exitDy=0;strokeColor=#FF0000;dashed=1;" edge="1" parent="EAjtQnlSvajGU_DfiBUz-1" source="_zvlmkg_Ug1x5w9QbblZ-2">
          <mxGeometry width="50" height="50" relative="1" as="geometry">
            <mxPoint x="290" y="280" as="sourcePoint" />
            <mxPoint x="130" y="205" as="targetPoint" />
          </mxGeometry>
        </mxCell>
        <mxCell id="_zvlmkg_Ug1x5w9QbblZ-6" value="" style="endArrow=classic;html=1;strokeColor=#000000;exitX=1;exitY=0.5;exitDx=0;exitDy=0;" edge="1" parent="EAjtQnlSvajGU_DfiBUz-1" source="_zvlmkg_Ug1x5w9QbblZ-2">
          <mxGeometry width="50" height="50" relative="1" as="geometry">
            <mxPoint x="290" y="280" as="sourcePoint" />
            <mxPoint x="350" y="240" as="targetPoint" />
            <Array as="points">
              <mxPoint x="460" y="205" />
              <mxPoint x="460" y="240" />
            </Array>
          </mxGeometry>
        </mxCell>
        <mxCell id="_zvlmkg_Ug1x5w9QbblZ-7" value="&lt;div&gt;AccountDeposit(Tx.Id, Tx.Amount)&lt;/div&gt;" style="text;html=1;strokeColor=none;fillColor=none;align=center;verticalAlign=middle;whiteSpace=wrap;rounded=0;" vertex="1" parent="EAjtQnlSvajGU_DfiBUz-1">
          <mxGeometry x="440" y="270" width="40" height="20" as="geometry" />
        </mxCell>
        <mxCell id="_zvlmkg_Ug1x5w9QbblZ-8" value="" style="endArrow=classic;html=1;strokeColor=#FF0000;rounded=1;dashed=1;" edge="1" parent="EAjtQnlSvajGU_DfiBUz-1">
          <mxGeometry width="50" height="50" relative="1" as="geometry">
            <mxPoint x="130" y="230" as="sourcePoint" />
            <mxPoint x="20" y="230" as="targetPoint" />
          </mxGeometry>
        </mxCell>
        <mxCell id="_zvlmkg_Ug1x5w9QbblZ-9" value="No" style="text;html=1;strokeColor=none;fillColor=none;align=center;verticalAlign=middle;whiteSpace=wrap;rounded=0;" vertex="1" parent="EAjtQnlSvajGU_DfiBUz-1">
          <mxGeometry x="400" y="180" width="40" height="20" as="geometry" />
        </mxCell>
        <mxCell id="_zvlmkg_Ug1x5w9QbblZ-10" value="Yes" style="text;html=1;strokeColor=none;fillColor=none;align=center;verticalAlign=middle;whiteSpace=wrap;rounded=0;" vertex="1" parent="EAjtQnlSvajGU_DfiBUz-1">
          <mxGeometry x="220" y="180" width="40" height="20" as="geometry" />
        </mxCell>
        <mxCell id="_zvlmkg_Ug1x5w9QbblZ-13" value="UpdateTx(Status = Success)" style="text;html=1;strokeColor=none;fillColor=none;align=center;verticalAlign=middle;whiteSpace=wrap;rounded=0;" vertex="1" parent="EAjtQnlSvajGU_DfiBUz-1">
          <mxGeometry x="460" y="690" width="40" height="20" as="geometry" />
        </mxCell>
        <mxCell id="_zvlmkg_Ug1x5w9QbblZ-16" value="" style="endArrow=classic;html=1;" edge="1" parent="EAjtQnlSvajGU_DfiBUz-1">
          <mxGeometry width="50" height="50" relative="1" as="geometry">
            <mxPoint x="350" y="560" as="sourcePoint" />
            <mxPoint x="350" y="590" as="targetPoint" />
            <Array as="points">
              <mxPoint x="420" y="560" />
              <mxPoint x="420" y="590" />
            </Array>
          </mxGeometry>
        </mxCell>
        <mxCell id="_zvlmkg_Ug1x5w9QbblZ-18" value="UpdateTx(Status = Fail)" style="text;html=1;strokeColor=none;fillColor=none;align=center;verticalAlign=middle;whiteSpace=wrap;rounded=0;" vertex="1" parent="EAjtQnlSvajGU_DfiBUz-1">
          <mxGeometry x="460" y="565" width="40" height="20" as="geometry" />
        </mxCell>
        <mxCell id="_zvlmkg_Ug1x5w9QbblZ-19" value="" style="endArrow=classic;html=1;" edge="1" parent="EAjtQnlSvajGU_DfiBUz-1">
          <mxGeometry width="50" height="50" relative="1" as="geometry">
            <mxPoint x="350" y="760" as="sourcePoint" />
            <mxPoint x="350" y="800" as="targetPoint" />
            <Array as="points">
              <mxPoint x="420" y="760" />
              <mxPoint x="420" y="800" />
            </Array>
          </mxGeometry>
        </mxCell>
      </root>
    </mxGraphModel>
  </diagram>
  <diagram id="d20XoGyHaijsf94EEiEO" name="AccountTransfer">
    <mxGraphModel dx="739" dy="481" grid="1" gridSize="10" guides="1" tooltips="1" connect="1" arrows="1" fold="1" page="1" pageScale="1" pageWidth="827" pageHeight="1169" math="0" shadow="0">
      <root>
        <mxCell id="EXkEs9yRwKH3S-IUu1W--0" />
        <mxCell id="EXkEs9yRwKH3S-IUu1W--1" parent="EXkEs9yRwKH3S-IUu1W--0" />
        <mxCell id="EXkEs9yRwKH3S-IUu1W--2" value="API" style="rounded=1;whiteSpace=wrap;html=1;" vertex="1" parent="EXkEs9yRwKH3S-IUu1W--1">
          <mxGeometry x="290" y="170" width="120" height="60" as="geometry" />
        </mxCell>
        <mxCell id="EXkEs9yRwKH3S-IUu1W--3" value="Client" style="rounded=1;whiteSpace=wrap;html=1;" vertex="1" parent="EXkEs9yRwKH3S-IUu1W--1">
          <mxGeometry x="510" y="170" width="120" height="60" as="geometry" />
        </mxCell>
        <mxCell id="EXkEs9yRwKH3S-IUu1W--4" value="Fabric" style="rounded=1;whiteSpace=wrap;html=1;" vertex="1" parent="EXkEs9yRwKH3S-IUu1W--1">
          <mxGeometry x="740" y="170" width="120" height="60" as="geometry" />
        </mxCell>
        <mxCell id="EXkEs9yRwKH3S-IUu1W--5" value="" style="endArrow=none;dashed=1;html=1;dashPattern=1 3;strokeWidth=2;entryX=0.5;entryY=1;entryDx=0;entryDy=0;" edge="1" target="EXkEs9yRwKH3S-IUu1W--2" parent="EXkEs9yRwKH3S-IUu1W--1">
          <mxGeometry width="50" height="50" relative="1" as="geometry">
            <mxPoint x="350" y="1400" as="sourcePoint" />
            <mxPoint x="660" y="360" as="targetPoint" />
          </mxGeometry>
        </mxCell>
        <mxCell id="EXkEs9yRwKH3S-IUu1W--6" value="" style="endArrow=none;dashed=1;html=1;dashPattern=1 3;strokeWidth=2;entryX=0.5;entryY=1;entryDx=0;entryDy=0;exitX=0.5;exitY=0;exitDx=0;exitDy=0;startArrow=none;" edge="1" target="EXkEs9yRwKH3S-IUu1W--3" parent="EXkEs9yRwKH3S-IUu1W--1" source="fQ9znI81ZtDvg8frEa3h-1">
          <mxGeometry width="50" height="50" relative="1" as="geometry">
            <mxPoint x="570" y="910" as="sourcePoint" />
            <mxPoint x="660" y="360" as="targetPoint" />
          </mxGeometry>
        </mxCell>
        <mxCell id="EXkEs9yRwKH3S-IUu1W--7" value="" style="endArrow=classic;html=1;" edge="1" parent="EXkEs9yRwKH3S-IUu1W--1">
          <mxGeometry width="50" height="50" relative="1" as="geometry">
            <mxPoint x="240" y="280" as="sourcePoint" />
            <mxPoint x="350" y="280" as="targetPoint" />
          </mxGeometry>
        </mxCell>
        <mxCell id="EXkEs9yRwKH3S-IUu1W--8" value="&lt;div&gt;AccountTransfer&lt;/div&gt;" style="text;html=1;strokeColor=none;fillColor=none;align=center;verticalAlign=middle;whiteSpace=wrap;rounded=0;" vertex="1" parent="EXkEs9yRwKH3S-IUu1W--1">
          <mxGeometry x="270" y="250" width="40" height="20" as="geometry" />
        </mxCell>
        <mxCell id="EXkEs9yRwKH3S-IUu1W--9" value="" style="endArrow=classic;html=1;" edge="1" parent="EXkEs9yRwKH3S-IUu1W--1">
          <mxGeometry width="50" height="50" relative="1" as="geometry">
            <mxPoint x="350" y="299.5" as="sourcePoint" />
            <mxPoint x="570" y="299.5" as="targetPoint" />
          </mxGeometry>
        </mxCell>
        <mxCell id="EXkEs9yRwKH3S-IUu1W--10" value="" style="endArrow=classic;html=1;" edge="1" parent="EXkEs9yRwKH3S-IUu1W--1">
          <mxGeometry width="50" height="50" relative="1" as="geometry">
            <mxPoint x="570" y="389.5" as="sourcePoint" />
            <mxPoint x="800" y="389.5" as="targetPoint" />
          </mxGeometry>
        </mxCell>
        <mxCell id="EXkEs9yRwKH3S-IUu1W--11" value="" style="endArrow=none;dashed=1;html=1;dashPattern=1 3;strokeWidth=2;entryX=0.5;entryY=1;entryDx=0;entryDy=0;exitX=0.5;exitY=0;exitDx=0;exitDy=0;" edge="1" source="EXkEs9yRwKH3S-IUu1W--14" target="EXkEs9yRwKH3S-IUu1W--4" parent="EXkEs9yRwKH3S-IUu1W--1">
          <mxGeometry width="50" height="50" relative="1" as="geometry">
            <mxPoint x="800" y="420" as="sourcePoint" />
            <mxPoint x="660" y="360" as="targetPoint" />
          </mxGeometry>
        </mxCell>
        <mxCell id="EXkEs9yRwKH3S-IUu1W--12" value="&lt;div&gt;AccountTransfer(Tx.From, Tx.To, Tx.Amount)&lt;/div&gt;" style="text;html=1;strokeColor=none;fillColor=none;align=center;verticalAlign=middle;whiteSpace=wrap;rounded=0;" vertex="1" parent="EXkEs9yRwKH3S-IUu1W--1">
          <mxGeometry x="670" y="400" width="40" height="20" as="geometry" />
        </mxCell>
        <mxCell id="EXkEs9yRwKH3S-IUu1W--13" value="Tx" style="text;html=1;strokeColor=none;fillColor=none;align=center;verticalAlign=middle;whiteSpace=wrap;rounded=0;" vertex="1" parent="EXkEs9yRwKH3S-IUu1W--1">
          <mxGeometry x="270" y="290" width="40" height="20" as="geometry" />
        </mxCell>
        <mxCell id="EXkEs9yRwKH3S-IUu1W--14" value="Error ?" style="rhombus;whiteSpace=wrap;html=1;" vertex="1" parent="EXkEs9yRwKH3S-IUu1W--1">
          <mxGeometry x="760" y="460" width="80" height="40" as="geometry" />
        </mxCell>
        <mxCell id="EXkEs9yRwKH3S-IUu1W--15" value="" style="endArrow=classic;html=1;" edge="1" parent="EXkEs9yRwKH3S-IUu1W--1">
          <mxGeometry width="50" height="50" relative="1" as="geometry">
            <mxPoint x="797" y="410" as="sourcePoint" />
            <mxPoint x="797" y="440" as="targetPoint" />
            <Array as="points">
              <mxPoint x="897" y="410" />
              <mxPoint x="897" y="440" />
            </Array>
          </mxGeometry>
        </mxCell>
        <mxCell id="EXkEs9yRwKH3S-IUu1W--16" value="&lt;div&gt;GetState(Tx.From)&lt;/div&gt;" style="text;html=1;strokeColor=none;fillColor=none;align=center;verticalAlign=middle;whiteSpace=wrap;rounded=0;" vertex="1" parent="EXkEs9yRwKH3S-IUu1W--1">
          <mxGeometry x="950" y="380" width="40" height="20" as="geometry" />
        </mxCell>
        <mxCell id="EXkEs9yRwKH3S-IUu1W--17" value="" style="endArrow=classic;html=1;dashed=1;strokeColor=#FF0000;exitX=-0.075;exitY=0.5;exitDx=0;exitDy=0;exitPerimeter=0;" edge="1" source="EXkEs9yRwKH3S-IUu1W--14" parent="EXkEs9yRwKH3S-IUu1W--1">
          <mxGeometry width="50" height="50" relative="1" as="geometry">
            <mxPoint x="610" y="440" as="sourcePoint" />
            <mxPoint x="570" y="480" as="targetPoint" />
            <Array as="points" />
          </mxGeometry>
        </mxCell>
        <mxCell id="EXkEs9yRwKH3S-IUu1W--18" value="" style="endArrow=classic;html=1;exitX=1;exitY=0.5;exitDx=0;exitDy=0;" edge="1" source="EXkEs9yRwKH3S-IUu1W--14" parent="EXkEs9yRwKH3S-IUu1W--1">
          <mxGeometry width="50" height="50" relative="1" as="geometry">
            <mxPoint x="610" y="440" as="sourcePoint" />
            <mxPoint x="800" y="510" as="targetPoint" />
            <Array as="points">
              <mxPoint x="900" y="480" />
              <mxPoint x="900" y="510" />
              <mxPoint x="890" y="510" />
              <mxPoint x="850" y="510" />
            </Array>
          </mxGeometry>
        </mxCell>
        <mxCell id="EXkEs9yRwKH3S-IUu1W--19" value="" style="endArrow=none;dashed=1;html=1;dashPattern=1 3;strokeWidth=2;entryX=0.5;entryY=1;entryDx=0;entryDy=0;exitX=0.5;exitY=0;exitDx=0;exitDy=0;" edge="1" target="EXkEs9yRwKH3S-IUu1W--14" parent="EXkEs9yRwKH3S-IUu1W--1" source="EXkEs9yRwKH3S-IUu1W--24">
          <mxGeometry width="50" height="50" relative="1" as="geometry">
            <mxPoint x="800" y="650" as="sourcePoint" />
            <mxPoint x="660" y="390" as="targetPoint" />
          </mxGeometry>
        </mxCell>
        <mxCell id="EXkEs9yRwKH3S-IUu1W--20" value="No" style="text;html=1;strokeColor=none;fillColor=none;align=center;verticalAlign=middle;whiteSpace=wrap;rounded=0;" vertex="1" parent="EXkEs9yRwKH3S-IUu1W--1">
          <mxGeometry x="850" y="450" width="40" height="20" as="geometry" />
        </mxCell>
        <mxCell id="EXkEs9yRwKH3S-IUu1W--21" value="Yes" style="text;html=1;strokeColor=none;fillColor=none;align=center;verticalAlign=middle;whiteSpace=wrap;rounded=0;" vertex="1" parent="EXkEs9yRwKH3S-IUu1W--1">
          <mxGeometry x="660" y="460" width="40" height="20" as="geometry" />
        </mxCell>
        <mxCell id="EXkEs9yRwKH3S-IUu1W--22" value="" style="endArrow=classic;html=1;" edge="1" parent="EXkEs9yRwKH3S-IUu1W--1">
          <mxGeometry width="50" height="50" relative="1" as="geometry">
            <mxPoint x="800" y="630" as="sourcePoint" />
            <mxPoint x="800" y="670" as="targetPoint" />
            <Array as="points">
              <mxPoint x="910" y="630" />
              <mxPoint x="910" y="650" />
              <mxPoint x="910" y="670" />
            </Array>
          </mxGeometry>
        </mxCell>
        <mxCell id="EXkEs9yRwKH3S-IUu1W--23" value="PutState(Tx.From,&amp;nbsp; Account.Balance - Tx.Amount)" style="text;html=1;strokeColor=none;fillColor=none;align=center;verticalAlign=middle;whiteSpace=wrap;rounded=0;" vertex="1" parent="EXkEs9yRwKH3S-IUu1W--1">
          <mxGeometry x="950" y="710" width="40" height="20" as="geometry" />
        </mxCell>
        <mxCell id="EXkEs9yRwKH3S-IUu1W--24" value="Error ?" style="rhombus;whiteSpace=wrap;html=1;" vertex="1" parent="EXkEs9yRwKH3S-IUu1W--1">
          <mxGeometry x="760" y="610" width="80" height="40" as="geometry" />
        </mxCell>
        <mxCell id="EXkEs9yRwKH3S-IUu1W--25" value="" style="endArrow=classic;html=1;dashed=1;strokeColor=#FF0000;" edge="1" parent="EXkEs9yRwKH3S-IUu1W--1">
          <mxGeometry width="50" height="50" relative="1" as="geometry">
            <mxPoint x="760" y="630" as="sourcePoint" />
            <mxPoint x="570" y="630" as="targetPoint" />
            <Array as="points">
              <mxPoint x="710" y="630.5" />
            </Array>
          </mxGeometry>
        </mxCell>
        <mxCell id="EXkEs9yRwKH3S-IUu1W--26" value="" style="endArrow=classic;html=1;" edge="1" parent="EXkEs9yRwKH3S-IUu1W--1">
          <mxGeometry width="50" height="50" relative="1" as="geometry">
            <mxPoint x="800" y="700" as="sourcePoint" />
            <mxPoint x="800" y="730" as="targetPoint" />
            <Array as="points">
              <mxPoint x="850" y="700" />
              <mxPoint x="870" y="700" />
              <mxPoint x="910" y="700" />
              <mxPoint x="910" y="730" />
              <mxPoint x="850" y="730" />
            </Array>
          </mxGeometry>
        </mxCell>
        <mxCell id="EXkEs9yRwKH3S-IUu1W--27" value="" style="endArrow=none;dashed=1;html=1;dashPattern=1 3;strokeWidth=2;entryX=0.5;entryY=1;entryDx=0;entryDy=0;" edge="1" target="EXkEs9yRwKH3S-IUu1W--24" parent="EXkEs9yRwKH3S-IUu1W--1">
          <mxGeometry width="50" height="50" relative="1" as="geometry">
            <mxPoint x="800" y="1400" as="sourcePoint" />
            <mxPoint x="730" y="550" as="targetPoint" />
          </mxGeometry>
        </mxCell>
        <mxCell id="EXkEs9yRwKH3S-IUu1W--28" value="No" style="text;html=1;strokeColor=none;fillColor=none;align=center;verticalAlign=middle;whiteSpace=wrap;rounded=0;" vertex="1" parent="EXkEs9yRwKH3S-IUu1W--1">
          <mxGeometry x="850" y="610" width="40" height="20" as="geometry" />
        </mxCell>
        <mxCell id="EXkEs9yRwKH3S-IUu1W--29" value="Yes" style="text;html=1;strokeColor=none;fillColor=none;align=center;verticalAlign=middle;whiteSpace=wrap;rounded=0;" vertex="1" parent="EXkEs9yRwKH3S-IUu1W--1">
          <mxGeometry x="670" y="610" width="40" height="20" as="geometry" />
        </mxCell>
        <mxCell id="EXkEs9yRwKH3S-IUu1W--30" value="Updated Sender Successfully" style="text;html=1;strokeColor=none;fillColor=none;align=center;verticalAlign=middle;whiteSpace=wrap;rounded=0;" vertex="1" parent="EXkEs9yRwKH3S-IUu1W--1">
          <mxGeometry x="827" y="850" width="40" height="20" as="geometry" />
        </mxCell>
        <mxCell id="EXkEs9yRwKH3S-IUu1W--31" value="" style="endArrow=classic;html=1;dashed=1;strokeColor=#FF0000;" edge="1" parent="EXkEs9yRwKH3S-IUu1W--1">
          <mxGeometry width="50" height="50" relative="1" as="geometry">
            <mxPoint x="760" y="779.5" as="sourcePoint" />
            <mxPoint x="570" y="780" as="targetPoint" />
            <Array as="points">
              <mxPoint x="670" y="780" />
            </Array>
          </mxGeometry>
        </mxCell>
        <mxCell id="EXkEs9yRwKH3S-IUu1W--33" value="UpdateBalance(Tx.From, Account.Balance - Tx.Amount)" style="text;html=1;strokeColor=none;fillColor=none;align=center;verticalAlign=middle;whiteSpace=wrap;rounded=0;" vertex="1" parent="EXkEs9yRwKH3S-IUu1W--1">
          <mxGeometry x="670" y="1160" width="40" height="20" as="geometry" />
        </mxCell>
        <mxCell id="EXkEs9yRwKH3S-IUu1W--80" style="edgeStyle=none;orthogonalLoop=1;jettySize=auto;html=1;exitX=0.5;exitY=1;exitDx=0;exitDy=0;dashed=1;strokeColor=#FF0000;" edge="1" parent="EXkEs9yRwKH3S-IUu1W--1" source="EXkEs9yRwKH3S-IUu1W--34">
          <mxGeometry relative="1" as="geometry">
            <mxPoint x="570" y="1250" as="targetPoint" />
          </mxGeometry>
        </mxCell>
        <mxCell id="EXkEs9yRwKH3S-IUu1W--34" value="Error ?" style="rhombus;whiteSpace=wrap;html=1;" vertex="1" parent="EXkEs9yRwKH3S-IUu1W--1">
          <mxGeometry x="530" y="1250" width="80" height="40" as="geometry" />
        </mxCell>
        <mxCell id="EXkEs9yRwKH3S-IUu1W--43" value="" style="endArrow=classic;html=1;dashed=1;strokeColor=#FF0000;" edge="1" parent="EXkEs9yRwKH3S-IUu1W--1">
          <mxGeometry width="50" height="50" relative="1" as="geometry">
            <mxPoint x="570" y="650" as="sourcePoint" />
            <mxPoint x="350" y="650" as="targetPoint" />
            <Array as="points">
              <mxPoint x="460" y="650" />
            </Array>
          </mxGeometry>
        </mxCell>
        <mxCell id="EXkEs9yRwKH3S-IUu1W--44" value="" style="endArrow=classic;html=1;dashed=1;strokeColor=#FF0000;" edge="1" parent="EXkEs9yRwKH3S-IUu1W--1">
          <mxGeometry width="50" height="50" relative="1" as="geometry">
            <mxPoint x="350" y="670" as="sourcePoint" />
            <mxPoint x="250" y="670" as="targetPoint" />
          </mxGeometry>
        </mxCell>
        <mxCell id="EXkEs9yRwKH3S-IUu1W--46" value="" style="endArrow=classic;html=1;dashed=1;strokeColor=#FF0000;" edge="1" parent="EXkEs9yRwKH3S-IUu1W--1">
          <mxGeometry width="50" height="50" relative="1" as="geometry">
            <mxPoint x="570" y="500" as="sourcePoint" />
            <mxPoint x="350" y="500" as="targetPoint" />
          </mxGeometry>
        </mxCell>
        <mxCell id="EXkEs9yRwKH3S-IUu1W--47" value="" style="endArrow=classic;html=1;dashed=1;strokeColor=#FF0000;" edge="1" parent="EXkEs9yRwKH3S-IUu1W--1">
          <mxGeometry width="50" height="50" relative="1" as="geometry">
            <mxPoint x="350" y="520" as="sourcePoint" />
            <mxPoint x="250" y="520" as="targetPoint" />
          </mxGeometry>
        </mxCell>
        <mxCell id="EXkEs9yRwKH3S-IUu1W--49" value="" style="endArrow=classic;html=1;strokeColor=#000000;" edge="1" parent="EXkEs9yRwKH3S-IUu1W--1">
          <mxGeometry width="50" height="50" relative="1" as="geometry">
            <mxPoint x="800" y="550" as="sourcePoint" />
            <mxPoint x="800" y="590" as="targetPoint" />
            <Array as="points">
              <mxPoint x="900" y="550" />
              <mxPoint x="900" y="590" />
            </Array>
          </mxGeometry>
        </mxCell>
        <mxCell id="EXkEs9yRwKH3S-IUu1W--52" style="edgeStyle=none;orthogonalLoop=1;jettySize=auto;html=1;exitX=0.25;exitY=0;exitDx=0;exitDy=0;strokeColor=#000000;" edge="1" parent="EXkEs9yRwKH3S-IUu1W--1" source="EXkEs9yRwKH3S-IUu1W--30" target="EXkEs9yRwKH3S-IUu1W--30">
          <mxGeometry relative="1" as="geometry" />
        </mxCell>
        <mxCell id="EXkEs9yRwKH3S-IUu1W--55" value="GetState(Tx.To)" style="text;html=1;strokeColor=none;fillColor=none;align=center;verticalAlign=middle;whiteSpace=wrap;rounded=0;" vertex="1" parent="EXkEs9yRwKH3S-IUu1W--1">
          <mxGeometry x="940" y="550" width="40" height="20" as="geometry" />
        </mxCell>
        <mxCell id="EXkEs9yRwKH3S-IUu1W--56" value="Error ?" style="rhombus;whiteSpace=wrap;html=1;" vertex="1" parent="EXkEs9yRwKH3S-IUu1W--1">
          <mxGeometry x="760" y="760" width="80" height="40" as="geometry" />
        </mxCell>
        <mxCell id="EXkEs9yRwKH3S-IUu1W--57" value="" style="endArrow=classic;html=1;strokeColor=#000000;exitX=1;exitY=0.5;exitDx=0;exitDy=0;" edge="1" parent="EXkEs9yRwKH3S-IUu1W--1" source="EXkEs9yRwKH3S-IUu1W--56">
          <mxGeometry width="50" height="50" relative="1" as="geometry">
            <mxPoint x="700" y="790" as="sourcePoint" />
            <mxPoint x="800" y="830" as="targetPoint" />
            <Array as="points">
              <mxPoint x="920" y="780" />
              <mxPoint x="920" y="830" />
            </Array>
          </mxGeometry>
        </mxCell>
        <mxCell id="EXkEs9yRwKH3S-IUu1W--60" value="No" style="text;html=1;strokeColor=none;fillColor=none;align=center;verticalAlign=middle;whiteSpace=wrap;rounded=0;" vertex="1" parent="EXkEs9yRwKH3S-IUu1W--1">
          <mxGeometry x="860" y="760" width="40" height="20" as="geometry" />
        </mxCell>
        <mxCell id="EXkEs9yRwKH3S-IUu1W--61" value="Yes" style="text;html=1;strokeColor=none;fillColor=none;align=center;verticalAlign=middle;whiteSpace=wrap;rounded=0;" vertex="1" parent="EXkEs9yRwKH3S-IUu1W--1">
          <mxGeometry x="670" y="760" width="40" height="20" as="geometry" />
        </mxCell>
        <mxCell id="EXkEs9yRwKH3S-IUu1W--62" value="" style="endArrow=classic;html=1;" edge="1" parent="EXkEs9yRwKH3S-IUu1W--1">
          <mxGeometry width="50" height="50" relative="1" as="geometry">
            <mxPoint x="800" y="900" as="sourcePoint" />
            <mxPoint x="800" y="940" as="targetPoint" />
            <Array as="points">
              <mxPoint x="910" y="900" />
              <mxPoint x="910" y="920" />
              <mxPoint x="910" y="940" />
              <mxPoint x="810" y="940" />
            </Array>
          </mxGeometry>
        </mxCell>
        <mxCell id="EXkEs9yRwKH3S-IUu1W--63" value="" style="endArrow=classic;html=1;" edge="1" parent="EXkEs9yRwKH3S-IUu1W--1">
          <mxGeometry width="50" height="50" relative="1" as="geometry">
            <mxPoint x="842" y="980" as="sourcePoint" />
            <mxPoint x="800" y="1050" as="targetPoint" />
            <Array as="points">
              <mxPoint x="892" y="980" />
              <mxPoint x="920" y="980" />
              <mxPoint x="920" y="1050" />
              <mxPoint x="892" y="1050" />
            </Array>
          </mxGeometry>
        </mxCell>
        <mxCell id="EXkEs9yRwKH3S-IUu1W--64" value="PutState(Tx.To, Account.Balance + Tx.Amount)" style="text;html=1;strokeColor=none;fillColor=none;align=center;verticalAlign=middle;whiteSpace=wrap;rounded=0;" vertex="1" parent="EXkEs9yRwKH3S-IUu1W--1">
          <mxGeometry x="950" y="910" width="40" height="20" as="geometry" />
        </mxCell>
        <mxCell id="EXkEs9yRwKH3S-IUu1W--65" value="Error ?" style="rhombus;whiteSpace=wrap;html=1;" vertex="1" parent="EXkEs9yRwKH3S-IUu1W--1">
          <mxGeometry x="760" y="960" width="80" height="40" as="geometry" />
        </mxCell>
        <mxCell id="EXkEs9yRwKH3S-IUu1W--66" value="" style="endArrow=classic;html=1;strokeColor=#000000;" edge="1" parent="EXkEs9yRwKH3S-IUu1W--1">
          <mxGeometry width="50" height="50" relative="1" as="geometry">
            <mxPoint x="795" y="1190" as="sourcePoint" />
            <mxPoint x="565" y="1190" as="targetPoint" />
          </mxGeometry>
        </mxCell>
        <mxCell id="EXkEs9yRwKH3S-IUu1W--67" value="No" style="text;html=1;strokeColor=none;fillColor=none;align=center;verticalAlign=middle;whiteSpace=wrap;rounded=0;" vertex="1" parent="EXkEs9yRwKH3S-IUu1W--1">
          <mxGeometry x="850" y="960" width="40" height="20" as="geometry" />
        </mxCell>
        <mxCell id="EXkEs9yRwKH3S-IUu1W--68" value="" style="endArrow=classic;html=1;exitX=0;exitY=0.5;exitDx=0;exitDy=0;strokeColor=#FF0000;dashed=1;" edge="1" parent="EXkEs9yRwKH3S-IUu1W--1" source="EXkEs9yRwKH3S-IUu1W--65">
          <mxGeometry width="50" height="50" relative="1" as="geometry">
            <mxPoint x="590" y="1030" as="sourcePoint" />
            <mxPoint x="570" y="980" as="targetPoint" />
            <Array as="points" />
          </mxGeometry>
        </mxCell>
        <mxCell id="EXkEs9yRwKH3S-IUu1W--69" value="" style="endArrow=classic;html=1;strokeColor=#FF0000;dashed=1;" edge="1" parent="EXkEs9yRwKH3S-IUu1W--1">
          <mxGeometry width="50" height="50" relative="1" as="geometry">
            <mxPoint x="570" y="1060" as="sourcePoint" />
            <mxPoint x="350" y="1060" as="targetPoint" />
          </mxGeometry>
        </mxCell>
        <mxCell id="EXkEs9yRwKH3S-IUu1W--70" value="" style="endArrow=classic;html=1;strokeColor=#FF0000;dashed=1;" edge="1" parent="EXkEs9yRwKH3S-IUu1W--1">
          <mxGeometry width="50" height="50" relative="1" as="geometry">
            <mxPoint x="345" y="1079.5" as="sourcePoint" />
            <mxPoint x="235" y="1079.5" as="targetPoint" />
          </mxGeometry>
        </mxCell>
        <mxCell id="EXkEs9yRwKH3S-IUu1W--71" value="Yes" style="text;html=1;strokeColor=none;fillColor=none;align=center;verticalAlign=middle;whiteSpace=wrap;rounded=0;" vertex="1" parent="EXkEs9yRwKH3S-IUu1W--1">
          <mxGeometry x="670" y="960" width="40" height="20" as="geometry" />
        </mxCell>
        <mxCell id="EXkEs9yRwKH3S-IUu1W--72" value="Updated Receiver Successfully" style="text;html=1;strokeColor=none;fillColor=none;align=center;verticalAlign=middle;whiteSpace=wrap;rounded=0;" vertex="1" parent="EXkEs9yRwKH3S-IUu1W--1">
          <mxGeometry x="827" y="1070" width="40" height="20" as="geometry" />
        </mxCell>
        <mxCell id="EXkEs9yRwKH3S-IUu1W--73" value="" style="endArrow=classic;html=1;strokeColor=#000000;exitX=1;exitY=0.5;exitDx=0;exitDy=0;" edge="1" parent="EXkEs9yRwKH3S-IUu1W--1" source="EXkEs9yRwKH3S-IUu1W--34">
          <mxGeometry width="50" height="50" relative="1" as="geometry">
            <mxPoint x="590" y="1120" as="sourcePoint" />
            <mxPoint x="570" y="1320" as="targetPoint" />
            <Array as="points">
              <mxPoint x="680" y="1270" />
              <mxPoint x="680" y="1320" />
              <mxPoint x="650" y="1320" />
            </Array>
          </mxGeometry>
        </mxCell>
        <mxCell id="EXkEs9yRwKH3S-IUu1W--74" value="" style="endArrow=classic;html=1;exitX=0;exitY=0.5;exitDx=0;exitDy=0;strokeColor=#FF0000;dashed=1;" edge="1" parent="EXkEs9yRwKH3S-IUu1W--1" source="EXkEs9yRwKH3S-IUu1W--34">
          <mxGeometry width="50" height="50" relative="1" as="geometry">
            <mxPoint x="590" y="1120" as="sourcePoint" />
            <mxPoint x="350" y="1270" as="targetPoint" />
          </mxGeometry>
        </mxCell>
        <mxCell id="EXkEs9yRwKH3S-IUu1W--76" value="" style="endArrow=classic;html=1;strokeColor=#FF0000;dashed=1;" edge="1" parent="EXkEs9yRwKH3S-IUu1W--1">
          <mxGeometry width="50" height="50" relative="1" as="geometry">
            <mxPoint x="570" y="800" as="sourcePoint" />
            <mxPoint x="350" y="800" as="targetPoint" />
          </mxGeometry>
        </mxCell>
        <mxCell id="EXkEs9yRwKH3S-IUu1W--77" value="" style="endArrow=classic;html=1;strokeColor=#FF0000;dashed=1;" edge="1" parent="EXkEs9yRwKH3S-IUu1W--1">
          <mxGeometry width="50" height="50" relative="1" as="geometry">
            <mxPoint x="350" y="820" as="sourcePoint" />
            <mxPoint x="250" y="820" as="targetPoint" />
          </mxGeometry>
        </mxCell>
        <mxCell id="EXkEs9yRwKH3S-IUu1W--79" value="Yes" style="text;html=1;strokeColor=none;fillColor=none;align=center;verticalAlign=middle;whiteSpace=wrap;rounded=0;" vertex="1" parent="EXkEs9yRwKH3S-IUu1W--1">
          <mxGeometry x="440" y="1250" width="40" height="20" as="geometry" />
        </mxCell>
        <mxCell id="EXkEs9yRwKH3S-IUu1W--81" value="&amp;amp; UpdateBalance(Tx.To, Account.Balance + Tx.Amount)" style="text;html=1;strokeColor=none;fillColor=none;align=center;verticalAlign=middle;whiteSpace=wrap;rounded=0;" vertex="1" parent="EXkEs9yRwKH3S-IUu1W--1">
          <mxGeometry x="670" y="1220" width="40" as="geometry" />
        </mxCell>
        <mxCell id="EXkEs9yRwKH3S-IUu1W--82" value="" style="endArrow=none;dashed=1;html=1;dashPattern=1 3;strokeWidth=2;" edge="1" parent="EXkEs9yRwKH3S-IUu1W--1">
          <mxGeometry width="50" height="50" relative="1" as="geometry">
            <mxPoint x="570" y="1290" as="sourcePoint" />
            <mxPoint x="570" y="1400" as="targetPoint" />
          </mxGeometry>
        </mxCell>
        <mxCell id="EXkEs9yRwKH3S-IUu1W--83" value="" style="endArrow=classic;html=1;" edge="1" parent="EXkEs9yRwKH3S-IUu1W--1">
          <mxGeometry width="50" height="50" relative="1" as="geometry">
            <mxPoint x="570" y="1339.5" as="sourcePoint" />
            <mxPoint x="350" y="1339.5" as="targetPoint" />
          </mxGeometry>
        </mxCell>
        <mxCell id="EXkEs9yRwKH3S-IUu1W--84" value="" style="endArrow=classic;html=1;dashed=1;strokeColor=#FF0000;" edge="1" parent="EXkEs9yRwKH3S-IUu1W--1">
          <mxGeometry width="50" height="50" relative="1" as="geometry">
            <mxPoint x="345" y="1290" as="sourcePoint" />
            <mxPoint x="235" y="1290" as="targetPoint" />
          </mxGeometry>
        </mxCell>
        <mxCell id="EXkEs9yRwKH3S-IUu1W--85" value="" style="endArrow=classic;html=1;strokeColor=#000000;" edge="1" parent="EXkEs9yRwKH3S-IUu1W--1">
          <mxGeometry width="50" height="50" relative="1" as="geometry">
            <mxPoint x="350" y="1360" as="sourcePoint" />
            <mxPoint x="240" y="1360" as="targetPoint" />
          </mxGeometry>
        </mxCell>
        <mxCell id="EXkEs9yRwKH3S-IUu1W--86" value="[]Accounts" style="text;html=1;strokeColor=none;fillColor=none;align=center;verticalAlign=middle;whiteSpace=wrap;rounded=0;" vertex="1" parent="EXkEs9yRwKH3S-IUu1W--1">
          <mxGeometry x="260" y="1330" width="40" height="20" as="geometry" />
        </mxCell>
        <mxCell id="fQ9znI81ZtDvg8frEa3h-0" value="CreateTx(Status = processing)" style="text;html=1;strokeColor=none;fillColor=none;align=center;verticalAlign=middle;whiteSpace=wrap;rounded=0;" vertex="1" parent="EXkEs9yRwKH3S-IUu1W--1">
          <mxGeometry x="450" y="270" width="40" height="20" as="geometry" />
        </mxCell>
        <mxCell id="fQ9znI81ZtDvg8frEa3h-1" value="Error ?" style="rhombus;whiteSpace=wrap;html=1;" vertex="1" parent="EXkEs9yRwKH3S-IUu1W--1">
          <mxGeometry x="530" y="320" width="80" height="30" as="geometry" />
        </mxCell>
        <mxCell id="fQ9znI81ZtDvg8frEa3h-2" value="" style="endArrow=none;dashed=1;html=1;dashPattern=1 3;strokeWidth=2;entryX=0.5;entryY=1;entryDx=0;entryDy=0;" edge="1" parent="EXkEs9yRwKH3S-IUu1W--1" target="fQ9znI81ZtDvg8frEa3h-1">
          <mxGeometry width="50" height="50" relative="1" as="geometry">
            <mxPoint x="570" y="1250" as="sourcePoint" />
            <mxPoint x="570" y="230" as="targetPoint" />
          </mxGeometry>
        </mxCell>
        <mxCell id="fQ9znI81ZtDvg8frEa3h-3" value="" style="endArrow=classic;html=1;strokeColor=#000000;startArrow=none;" edge="1" parent="EXkEs9yRwKH3S-IUu1W--1">
          <mxGeometry width="50" height="50" relative="1" as="geometry">
            <mxPoint x="640" y="370" as="sourcePoint" />
            <mxPoint x="570" y="370" as="targetPoint" />
            <Array as="points">
              <mxPoint x="640" y="370" />
            </Array>
          </mxGeometry>
        </mxCell>
        <mxCell id="fQ9znI81ZtDvg8frEa3h-4" value="" style="endArrow=classic;html=1;exitX=0;exitY=0.5;exitDx=0;exitDy=0;dashed=1;strokeColor=#FF0000;startArrow=none;" edge="1" parent="EXkEs9yRwKH3S-IUu1W--1" source="fQ9znI81ZtDvg8frEa3h-1">
          <mxGeometry width="50" height="50" relative="1" as="geometry">
            <mxPoint x="460" y="400" as="sourcePoint" />
            <mxPoint x="350" y="335" as="targetPoint" />
          </mxGeometry>
        </mxCell>
        <mxCell id="fQ9znI81ZtDvg8frEa3h-5" value="" style="endArrow=classic;html=1;dashed=1;strokeColor=#FF0000;" edge="1" parent="EXkEs9yRwKH3S-IUu1W--1">
          <mxGeometry width="50" height="50" relative="1" as="geometry">
            <mxPoint x="350" y="360" as="sourcePoint" />
            <mxPoint x="240" y="360" as="targetPoint" />
          </mxGeometry>
        </mxCell>
        <mxCell id="fQ9znI81ZtDvg8frEa3h-6" value="No" style="text;html=1;strokeColor=none;fillColor=none;align=center;verticalAlign=middle;whiteSpace=wrap;rounded=0;" vertex="1" parent="EXkEs9yRwKH3S-IUu1W--1">
          <mxGeometry x="620" y="320" width="40" height="20" as="geometry" />
        </mxCell>
        <mxCell id="fQ9znI81ZtDvg8frEa3h-7" value="" style="endArrow=none;html=1;strokeColor=#000000;exitX=1;exitY=0.5;exitDx=0;exitDy=0;" edge="1" parent="EXkEs9yRwKH3S-IUu1W--1" source="fQ9znI81ZtDvg8frEa3h-1">
          <mxGeometry width="50" height="50" relative="1" as="geometry">
            <mxPoint x="610" y="335" as="sourcePoint" />
            <mxPoint x="640" y="370" as="targetPoint" />
            <Array as="points">
              <mxPoint x="670" y="335" />
              <mxPoint x="670" y="370" />
            </Array>
          </mxGeometry>
        </mxCell>
        <mxCell id="fQ9znI81ZtDvg8frEa3h-11" value="Yes" style="text;html=1;strokeColor=none;fillColor=none;align=center;verticalAlign=middle;whiteSpace=wrap;rounded=0;" vertex="1" parent="EXkEs9yRwKH3S-IUu1W--1">
          <mxGeometry x="440" y="320" width="40" height="20" as="geometry" />
        </mxCell>
        <mxCell id="9DNf2e1nq1W-fkDtGnYb-0" value="" style="endArrow=classic;html=1;" edge="1" parent="EXkEs9yRwKH3S-IUu1W--1">
          <mxGeometry width="50" height="50" relative="1" as="geometry">
            <mxPoint x="570" y="1010" as="sourcePoint" />
            <mxPoint x="570" y="1040" as="targetPoint" />
            <Array as="points">
              <mxPoint x="640" y="1010" />
              <mxPoint x="640" y="1030" />
              <mxPoint x="640" y="1040" />
            </Array>
          </mxGeometry>
        </mxCell>
        <mxCell id="9DNf2e1nq1W-fkDtGnYb-1" value="UpdateTx(Status = Fail)" style="text;html=1;strokeColor=none;fillColor=none;align=center;verticalAlign=middle;whiteSpace=wrap;rounded=0;" vertex="1" parent="EXkEs9yRwKH3S-IUu1W--1">
          <mxGeometry x="680" y="1020" width="40" height="20" as="geometry" />
        </mxCell>
        <mxCell id="KKk8K0Iou6dGmCaiwxt1-0" value="No" style="text;html=1;strokeColor=none;fillColor=none;align=center;verticalAlign=middle;whiteSpace=wrap;rounded=0;" vertex="1" parent="EXkEs9yRwKH3S-IUu1W--1">
          <mxGeometry x="620" y="1250" width="40" height="20" as="geometry" />
        </mxCell>
        <mxCell id="KKk8K0Iou6dGmCaiwxt1-1" value="" style="endArrow=classic;html=1;" edge="1" parent="EXkEs9yRwKH3S-IUu1W--1">
          <mxGeometry width="50" height="50" relative="1" as="geometry">
            <mxPoint x="570" y="1090" as="sourcePoint" />
            <mxPoint x="570" y="1120" as="targetPoint" />
            <Array as="points">
              <mxPoint x="640" y="1090" />
              <mxPoint x="640" y="1120" />
            </Array>
          </mxGeometry>
        </mxCell>
        <mxCell id="KKk8K0Iou6dGmCaiwxt1-2" value="UpdateTx(Status = Success)" style="text;html=1;strokeColor=none;fillColor=none;align=center;verticalAlign=middle;whiteSpace=wrap;rounded=0;" vertex="1" parent="EXkEs9yRwKH3S-IUu1W--1">
          <mxGeometry x="680" y="1100" width="40" height="20" as="geometry" />
        </mxCell>
      </root>
    </mxGraphModel>
  </diagram>
  <diagram id="TKhGyIiDG1Yjo9eNVVsQ" name="AddTransaction">
    <mxGraphModel dx="739" dy="481" grid="1" gridSize="10" guides="1" tooltips="1" connect="1" arrows="1" fold="1" page="1" pageScale="1" pageWidth="827" pageHeight="1169" math="0" shadow="0">
      <root>
        <mxCell id="qJ80bgETmXWATrynnB9Z-0" />
        <mxCell id="qJ80bgETmXWATrynnB9Z-1" parent="qJ80bgETmXWATrynnB9Z-0" />
        <mxCell id="S7SvqYgb1AWv7s5oM8gQ-0" value="API&lt;span style=&quot;white-space: pre&quot;&gt;	&lt;/span&gt;" style="rounded=1;whiteSpace=wrap;html=1;" vertex="1" parent="qJ80bgETmXWATrynnB9Z-1">
          <mxGeometry x="100" y="80" width="120" height="60" as="geometry" />
        </mxCell>
        <mxCell id="S7SvqYgb1AWv7s5oM8gQ-1" value="Client" style="rounded=1;whiteSpace=wrap;html=1;" vertex="1" parent="qJ80bgETmXWATrynnB9Z-1">
          <mxGeometry x="320" y="80" width="120" height="60" as="geometry" />
        </mxCell>
        <mxCell id="S7SvqYgb1AWv7s5oM8gQ-2" value="Fabric" style="rounded=1;whiteSpace=wrap;html=1;" vertex="1" parent="qJ80bgETmXWATrynnB9Z-1">
          <mxGeometry x="550" y="80" width="120" height="60" as="geometry" />
        </mxCell>
        <mxCell id="S7SvqYgb1AWv7s5oM8gQ-3" value="" style="endArrow=none;dashed=1;html=1;dashPattern=1 3;strokeWidth=2;entryX=0.5;entryY=1;entryDx=0;entryDy=0;" edge="1" parent="qJ80bgETmXWATrynnB9Z-1" target="S7SvqYgb1AWv7s5oM8gQ-0">
          <mxGeometry width="50" height="50" relative="1" as="geometry">
            <mxPoint x="160" y="800" as="sourcePoint" />
            <mxPoint x="440" y="290" as="targetPoint" />
          </mxGeometry>
        </mxCell>
        <mxCell id="S7SvqYgb1AWv7s5oM8gQ-4" value="" style="endArrow=none;dashed=1;html=1;dashPattern=1 3;strokeWidth=2;" edge="1" parent="qJ80bgETmXWATrynnB9Z-1">
          <mxGeometry width="50" height="50" relative="1" as="geometry">
            <mxPoint x="380" y="650" as="sourcePoint" />
            <mxPoint x="379.5" y="140" as="targetPoint" />
          </mxGeometry>
        </mxCell>
        <mxCell id="S7SvqYgb1AWv7s5oM8gQ-5" value="" style="endArrow=none;dashed=1;html=1;dashPattern=1 3;strokeWidth=2;entryX=0.558;entryY=1.067;entryDx=0;entryDy=0;entryPerimeter=0;" edge="1" parent="qJ80bgETmXWATrynnB9Z-1" target="S7SvqYgb1AWv7s5oM8gQ-2">
          <mxGeometry width="50" height="50" relative="1" as="geometry">
            <mxPoint x="617" y="320" as="sourcePoint" />
            <mxPoint x="440" y="290" as="targetPoint" />
          </mxGeometry>
        </mxCell>
        <mxCell id="S7SvqYgb1AWv7s5oM8gQ-6" value="" style="endArrow=classic;html=1;" edge="1" parent="qJ80bgETmXWATrynnB9Z-1">
          <mxGeometry width="50" height="50" relative="1" as="geometry">
            <mxPoint x="40" y="200" as="sourcePoint" />
            <mxPoint x="160" y="200" as="targetPoint" />
          </mxGeometry>
        </mxCell>
        <mxCell id="S7SvqYgb1AWv7s5oM8gQ-7" value="AddTransaction" style="text;html=1;strokeColor=none;fillColor=none;align=center;verticalAlign=middle;whiteSpace=wrap;rounded=0;" vertex="1" parent="qJ80bgETmXWATrynnB9Z-1">
          <mxGeometry x="70" y="170" width="40" height="20" as="geometry" />
        </mxCell>
        <mxCell id="S7SvqYgb1AWv7s5oM8gQ-8" value="" style="endArrow=classic;html=1;" edge="1" parent="qJ80bgETmXWATrynnB9Z-1">
          <mxGeometry width="50" height="50" relative="1" as="geometry">
            <mxPoint x="160" y="240" as="sourcePoint" />
            <mxPoint x="380" y="240" as="targetPoint" />
          </mxGeometry>
        </mxCell>
        <mxCell id="S7SvqYgb1AWv7s5oM8gQ-9" value="" style="endArrow=classic;html=1;strokeColor=#000000;" edge="1" parent="qJ80bgETmXWATrynnB9Z-1">
          <mxGeometry width="50" height="50" relative="1" as="geometry">
            <mxPoint x="380" y="280" as="sourcePoint" />
            <mxPoint x="620" y="280" as="targetPoint" />
          </mxGeometry>
        </mxCell>
        <mxCell id="S7SvqYgb1AWv7s5oM8gQ-10" value="AddTransaction" style="text;html=1;strokeColor=none;fillColor=none;align=center;verticalAlign=middle;whiteSpace=wrap;rounded=0;" vertex="1" parent="qJ80bgETmXWATrynnB9Z-1">
          <mxGeometry x="480" y="250" width="40" height="20" as="geometry" />
        </mxCell>
        <mxCell id="S7SvqYgb1AWv7s5oM8gQ-11" value="Existed ?" style="rhombus;whiteSpace=wrap;html=1;" vertex="1" parent="qJ80bgETmXWATrynnB9Z-1">
          <mxGeometry x="580" y="320" width="80" height="40" as="geometry" />
        </mxCell>
        <mxCell id="S7SvqYgb1AWv7s5oM8gQ-12" value="" style="endArrow=classic;html=1;strokeColor=#000000;exitX=1;exitY=0.5;exitDx=0;exitDy=0;exitPerimeter=0;" edge="1" parent="qJ80bgETmXWATrynnB9Z-1" source="S7SvqYgb1AWv7s5oM8gQ-11">
          <mxGeometry width="50" height="50" relative="1" as="geometry">
            <mxPoint x="620" y="390" as="sourcePoint" />
            <mxPoint x="620" y="390" as="targetPoint" />
            <Array as="points">
              <mxPoint x="720" y="340" />
              <mxPoint x="720" y="390" />
            </Array>
          </mxGeometry>
        </mxCell>
        <mxCell id="S7SvqYgb1AWv7s5oM8gQ-13" value="" style="endArrow=none;dashed=1;html=1;dashPattern=1 3;strokeWidth=2;entryX=0.5;entryY=1;entryDx=0;entryDy=0;" edge="1" parent="qJ80bgETmXWATrynnB9Z-1" target="S7SvqYgb1AWv7s5oM8gQ-11">
          <mxGeometry width="50" height="50" relative="1" as="geometry">
            <mxPoint x="620" y="490" as="sourcePoint" />
            <mxPoint x="440" y="320" as="targetPoint" />
          </mxGeometry>
        </mxCell>
        <mxCell id="S7SvqYgb1AWv7s5oM8gQ-14" value="No" style="text;html=1;strokeColor=none;fillColor=none;align=center;verticalAlign=middle;whiteSpace=wrap;rounded=0;" vertex="1" parent="qJ80bgETmXWATrynnB9Z-1">
          <mxGeometry x="720" y="350" width="40" height="20" as="geometry" />
        </mxCell>
        <mxCell id="S7SvqYgb1AWv7s5oM8gQ-15" value="" style="endArrow=classic;html=1;strokeColor=#000000;" edge="1" parent="qJ80bgETmXWATrynnB9Z-1">
          <mxGeometry width="50" height="50" relative="1" as="geometry">
            <mxPoint x="620" y="290" as="sourcePoint" />
            <mxPoint x="620" y="310" as="targetPoint" />
            <Array as="points">
              <mxPoint x="720" y="290" />
              <mxPoint x="720" y="310" />
            </Array>
          </mxGeometry>
        </mxCell>
        <mxCell id="S7SvqYgb1AWv7s5oM8gQ-16" value="" style="endArrow=classic;html=1;exitX=0;exitY=0.5;exitDx=0;exitDy=0;dashed=1;strokeColor=#FF0000;" edge="1" parent="qJ80bgETmXWATrynnB9Z-1" source="S7SvqYgb1AWv7s5oM8gQ-11">
          <mxGeometry width="50" height="50" relative="1" as="geometry">
            <mxPoint x="390" y="280" as="sourcePoint" />
            <mxPoint x="380" y="340" as="targetPoint" />
          </mxGeometry>
        </mxCell>
        <mxCell id="S7SvqYgb1AWv7s5oM8gQ-17" value="" style="endArrow=classic;html=1;dashed=1;strokeColor=#FF0000;" edge="1" parent="qJ80bgETmXWATrynnB9Z-1">
          <mxGeometry width="50" height="50" relative="1" as="geometry">
            <mxPoint x="380" y="360" as="sourcePoint" />
            <mxPoint x="160" y="360" as="targetPoint" />
          </mxGeometry>
        </mxCell>
        <mxCell id="S7SvqYgb1AWv7s5oM8gQ-18" value="Yes" style="text;html=1;strokeColor=none;fillColor=none;align=center;verticalAlign=middle;whiteSpace=wrap;rounded=0;" vertex="1" parent="qJ80bgETmXWATrynnB9Z-1">
          <mxGeometry x="460" y="310" width="40" height="20" as="geometry" />
        </mxCell>
        <mxCell id="S7SvqYgb1AWv7s5oM8gQ-19" value="TransactionExists(id)" style="text;html=1;strokeColor=none;fillColor=none;align=center;verticalAlign=middle;whiteSpace=wrap;rounded=0;" vertex="1" parent="qJ80bgETmXWATrynnB9Z-1">
          <mxGeometry x="690" y="260" width="40" height="20" as="geometry" />
        </mxCell>
        <mxCell id="S7SvqYgb1AWv7s5oM8gQ-20" value="" style="endArrow=classic;html=1;strokeColor=#000000;" edge="1" parent="qJ80bgETmXWATrynnB9Z-1">
          <mxGeometry width="50" height="50" relative="1" as="geometry">
            <mxPoint x="620" y="420" as="sourcePoint" />
            <mxPoint x="620" y="470" as="targetPoint" />
            <Array as="points">
              <mxPoint x="720" y="420" />
              <mxPoint x="720" y="470" />
            </Array>
          </mxGeometry>
        </mxCell>
        <mxCell id="S7SvqYgb1AWv7s5oM8gQ-21" value="PutState(id)" style="text;html=1;strokeColor=none;fillColor=none;align=center;verticalAlign=middle;whiteSpace=wrap;rounded=0;" vertex="1" parent="qJ80bgETmXWATrynnB9Z-1">
          <mxGeometry x="750" y="430" width="40" height="20" as="geometry" />
        </mxCell>
        <mxCell id="S7SvqYgb1AWv7s5oM8gQ-22" value="Error ?" style="rhombus;whiteSpace=wrap;html=1;" vertex="1" parent="qJ80bgETmXWATrynnB9Z-1">
          <mxGeometry x="580" y="490" width="80" height="40" as="geometry" />
        </mxCell>
        <mxCell id="S7SvqYgb1AWv7s5oM8gQ-23" value="" style="endArrow=none;dashed=1;html=1;dashPattern=1 3;strokeWidth=2;entryX=0.5;entryY=1;entryDx=0;entryDy=0;" edge="1" parent="qJ80bgETmXWATrynnB9Z-1" target="S7SvqYgb1AWv7s5oM8gQ-22">
          <mxGeometry width="50" height="50" relative="1" as="geometry">
            <mxPoint x="620" y="800" as="sourcePoint" />
            <mxPoint x="440" y="380" as="targetPoint" />
          </mxGeometry>
        </mxCell>
        <mxCell id="S7SvqYgb1AWv7s5oM8gQ-24" value="" style="endArrow=classic;html=1;exitX=0;exitY=0.5;exitDx=0;exitDy=0;dashed=1;strokeColor=#FF0000;" edge="1" parent="qJ80bgETmXWATrynnB9Z-1" source="S7SvqYgb1AWv7s5oM8gQ-22">
          <mxGeometry width="50" height="50" relative="1" as="geometry">
            <mxPoint x="390" y="430" as="sourcePoint" />
            <mxPoint x="380" y="510" as="targetPoint" />
          </mxGeometry>
        </mxCell>
        <mxCell id="S7SvqYgb1AWv7s5oM8gQ-25" value="" style="endArrow=classic;html=1;strokeColor=#000000;exitX=1;exitY=0.5;exitDx=0;exitDy=0;" edge="1" parent="qJ80bgETmXWATrynnB9Z-1" source="S7SvqYgb1AWv7s5oM8gQ-22">
          <mxGeometry width="50" height="50" relative="1" as="geometry">
            <mxPoint x="390" y="430" as="sourcePoint" />
            <mxPoint x="620" y="560" as="targetPoint" />
            <Array as="points">
              <mxPoint x="720" y="510" />
              <mxPoint x="720" y="560" />
            </Array>
          </mxGeometry>
        </mxCell>
        <mxCell id="S7SvqYgb1AWv7s5oM8gQ-26" value="No" style="text;html=1;strokeColor=none;fillColor=none;align=center;verticalAlign=middle;whiteSpace=wrap;rounded=0;" vertex="1" parent="qJ80bgETmXWATrynnB9Z-1">
          <mxGeometry x="720" y="520" width="40" height="20" as="geometry" />
        </mxCell>
        <mxCell id="S7SvqYgb1AWv7s5oM8gQ-27" value="Yes" style="text;strokeColor=none;fillColor=none;align=left;verticalAlign=top;spacingLeft=4;spacingRight=4;overflow=hidden;rotatable=0;points=[[0,0.5],[1,0.5]];portConstraint=eastwest;" vertex="1" parent="qJ80bgETmXWATrynnB9Z-1">
          <mxGeometry x="460" y="480" width="60" height="26" as="geometry" />
        </mxCell>
        <mxCell id="S7SvqYgb1AWv7s5oM8gQ-28" value="" style="endArrow=classic;html=1;dashed=1;strokeColor=#FF0000;" edge="1" parent="qJ80bgETmXWATrynnB9Z-1">
          <mxGeometry width="50" height="50" relative="1" as="geometry">
            <mxPoint x="380" y="540" as="sourcePoint" />
            <mxPoint x="160" y="540" as="targetPoint" />
          </mxGeometry>
        </mxCell>
        <mxCell id="S7SvqYgb1AWv7s5oM8gQ-29" value="" style="endArrow=classic;html=1;strokeColor=#000000;" edge="1" parent="qJ80bgETmXWATrynnB9Z-1">
          <mxGeometry width="50" height="50" relative="1" as="geometry">
            <mxPoint x="620" y="590" as="sourcePoint" />
            <mxPoint x="380" y="590" as="targetPoint" />
          </mxGeometry>
        </mxCell>
        <mxCell id="S7SvqYgb1AWv7s5oM8gQ-30" value="CreateTransaction" style="text;html=1;strokeColor=none;fillColor=none;align=center;verticalAlign=middle;whiteSpace=wrap;rounded=0;" vertex="1" parent="qJ80bgETmXWATrynnB9Z-1">
          <mxGeometry x="480" y="565" width="40" height="20" as="geometry" />
        </mxCell>
        <mxCell id="S7SvqYgb1AWv7s5oM8gQ-31" value="Error?" style="rhombus;whiteSpace=wrap;html=1;" vertex="1" parent="qJ80bgETmXWATrynnB9Z-1">
          <mxGeometry x="340" y="650" width="80" height="40" as="geometry" />
        </mxCell>
        <mxCell id="S7SvqYgb1AWv7s5oM8gQ-32" value="Yes" style="text;strokeColor=none;fillColor=none;align=left;verticalAlign=top;spacingLeft=4;spacingRight=4;overflow=hidden;rotatable=0;points=[[0,0.5],[1,0.5]];portConstraint=eastwest;" vertex="1" parent="qJ80bgETmXWATrynnB9Z-1">
          <mxGeometry x="240" y="640" width="60" height="26" as="geometry" />
        </mxCell>
        <mxCell id="S7SvqYgb1AWv7s5oM8gQ-33" value="" style="endArrow=classic;html=1;strokeColor=#000000;exitX=1;exitY=0.5;exitDx=0;exitDy=0;" edge="1" parent="qJ80bgETmXWATrynnB9Z-1" source="S7SvqYgb1AWv7s5oM8gQ-31">
          <mxGeometry width="50" height="50" relative="1" as="geometry">
            <mxPoint x="390" y="550" as="sourcePoint" />
            <mxPoint x="380" y="720" as="targetPoint" />
            <Array as="points">
              <mxPoint x="480" y="670" />
              <mxPoint x="480" y="720" />
            </Array>
          </mxGeometry>
        </mxCell>
        <mxCell id="S7SvqYgb1AWv7s5oM8gQ-34" value="" style="endArrow=none;dashed=1;html=1;dashPattern=1 3;strokeWidth=2;exitX=0.5;exitY=1;exitDx=0;exitDy=0;exitPerimeter=0;" edge="1" parent="qJ80bgETmXWATrynnB9Z-1" source="S7SvqYgb1AWv7s5oM8gQ-31">
          <mxGeometry width="50" height="50" relative="1" as="geometry">
            <mxPoint x="390" y="610" as="sourcePoint" />
            <mxPoint x="380" y="800" as="targetPoint" />
          </mxGeometry>
        </mxCell>
        <mxCell id="S7SvqYgb1AWv7s5oM8gQ-35" value="No" style="text;strokeColor=none;fillColor=none;align=left;verticalAlign=top;spacingLeft=4;spacingRight=4;overflow=hidden;rotatable=0;points=[[0,0.5],[1,0.5]];portConstraint=eastwest;" vertex="1" parent="qJ80bgETmXWATrynnB9Z-1">
          <mxGeometry x="450" y="640" width="60" height="26" as="geometry" />
        </mxCell>
        <mxCell id="S7SvqYgb1AWv7s5oM8gQ-36" value="" style="endArrow=classic;html=1;dashed=1;strokeColor=#FF0000;exitX=0;exitY=0.5;exitDx=0;exitDy=0;" edge="1" parent="qJ80bgETmXWATrynnB9Z-1" source="S7SvqYgb1AWv7s5oM8gQ-31">
          <mxGeometry width="50" height="50" relative="1" as="geometry">
            <mxPoint x="390" y="640" as="sourcePoint" />
            <mxPoint x="160" y="670" as="targetPoint" />
          </mxGeometry>
        </mxCell>
        <mxCell id="S7SvqYgb1AWv7s5oM8gQ-37" value="" style="endArrow=classic;html=1;dashed=1;strokeColor=#FF0000;" edge="1" parent="qJ80bgETmXWATrynnB9Z-1">
          <mxGeometry width="50" height="50" relative="1" as="geometry">
            <mxPoint x="160" y="690" as="sourcePoint" />
            <mxPoint x="60" y="690" as="targetPoint" />
          </mxGeometry>
        </mxCell>
        <mxCell id="S7SvqYgb1AWv7s5oM8gQ-38" value="" style="endArrow=classic;html=1;dashed=1;strokeColor=#FF0000;" edge="1" parent="qJ80bgETmXWATrynnB9Z-1">
          <mxGeometry width="50" height="50" relative="1" as="geometry">
            <mxPoint x="160" y="560" as="sourcePoint" />
            <mxPoint x="70" y="560" as="targetPoint" />
          </mxGeometry>
        </mxCell>
        <mxCell id="S7SvqYgb1AWv7s5oM8gQ-39" value="" style="endArrow=classic;html=1;dashed=1;strokeColor=#FF0000;" edge="1" parent="qJ80bgETmXWATrynnB9Z-1">
          <mxGeometry width="50" height="50" relative="1" as="geometry">
            <mxPoint x="160" y="380" as="sourcePoint" />
            <mxPoint x="70" y="380" as="targetPoint" />
          </mxGeometry>
        </mxCell>
        <mxCell id="S7SvqYgb1AWv7s5oM8gQ-40" value="Created Successfully" style="text;html=1;strokeColor=none;fillColor=none;align=center;verticalAlign=middle;whiteSpace=wrap;rounded=0;" vertex="1" parent="qJ80bgETmXWATrynnB9Z-1">
          <mxGeometry x="410" y="730" width="40" height="20" as="geometry" />
        </mxCell>
        <mxCell id="S7SvqYgb1AWv7s5oM8gQ-41" style="edgeStyle=none;rounded=0;orthogonalLoop=1;jettySize=auto;html=1;exitX=0.75;exitY=1;exitDx=0;exitDy=0;dashed=1;strokeColor=#FF0000;" edge="1" parent="qJ80bgETmXWATrynnB9Z-1" source="S7SvqYgb1AWv7s5oM8gQ-40" target="S7SvqYgb1AWv7s5oM8gQ-40">
          <mxGeometry relative="1" as="geometry" />
        </mxCell>
        <mxCell id="S7SvqYgb1AWv7s5oM8gQ-42" value="Created Successfully" style="text;html=1;strokeColor=none;fillColor=none;align=center;verticalAlign=middle;whiteSpace=wrap;rounded=0;" vertex="1" parent="qJ80bgETmXWATrynnB9Z-1">
          <mxGeometry x="650" y="565" width="40" height="20" as="geometry" />
        </mxCell>
        <mxCell id="S7SvqYgb1AWv7s5oM8gQ-43" value="" style="endArrow=classic;html=1;strokeColor=#000000;" edge="1" parent="qJ80bgETmXWATrynnB9Z-1">
          <mxGeometry width="50" height="50" relative="1" as="geometry">
            <mxPoint x="380" y="750" as="sourcePoint" />
            <mxPoint x="160" y="750" as="targetPoint" />
          </mxGeometry>
        </mxCell>
        <mxCell id="S7SvqYgb1AWv7s5oM8gQ-44" value="" style="endArrow=classic;html=1;strokeColor=#000000;" edge="1" parent="qJ80bgETmXWATrynnB9Z-1">
          <mxGeometry width="50" height="50" relative="1" as="geometry">
            <mxPoint x="160" y="780" as="sourcePoint" />
            <mxPoint x="70" y="780" as="targetPoint" />
          </mxGeometry>
        </mxCell>
        <mxCell id="S7SvqYgb1AWv7s5oM8gQ-47" value="&lt;div&gt;Transaction&lt;/div&gt;" style="text;html=1;strokeColor=none;fillColor=none;align=center;verticalAlign=middle;whiteSpace=wrap;rounded=0;" vertex="1" parent="qJ80bgETmXWATrynnB9Z-1">
          <mxGeometry x="90" y="780" width="40" height="20" as="geometry" />
        </mxCell>
      </root>
    </mxGraphModel>
  </diagram>
  <diagram id="Qe18SZ9dvI9jpGsXbrOf" name="AddAction">
    <mxGraphModel dx="739" dy="481" grid="1" gridSize="10" guides="1" tooltips="1" connect="1" arrows="1" fold="1" page="1" pageScale="1" pageWidth="827" pageHeight="1169" math="0" shadow="0">
      <root>
        <mxCell id="12V6Xu6qoPDqTPFjvzaM-0" />
        <mxCell id="12V6Xu6qoPDqTPFjvzaM-1" parent="12V6Xu6qoPDqTPFjvzaM-0" />
        <mxCell id="12V6Xu6qoPDqTPFjvzaM-2" value="API&lt;span style=&quot;white-space: pre&quot;&gt;	&lt;/span&gt;" style="rounded=1;whiteSpace=wrap;html=1;" vertex="1" parent="12V6Xu6qoPDqTPFjvzaM-1">
          <mxGeometry x="100" y="80" width="120" height="60" as="geometry" />
        </mxCell>
        <mxCell id="12V6Xu6qoPDqTPFjvzaM-3" value="Client" style="rounded=1;whiteSpace=wrap;html=1;" vertex="1" parent="12V6Xu6qoPDqTPFjvzaM-1">
          <mxGeometry x="320" y="80" width="120" height="60" as="geometry" />
        </mxCell>
        <mxCell id="12V6Xu6qoPDqTPFjvzaM-4" value="Fabric" style="rounded=1;whiteSpace=wrap;html=1;" vertex="1" parent="12V6Xu6qoPDqTPFjvzaM-1">
          <mxGeometry x="550" y="80" width="120" height="60" as="geometry" />
        </mxCell>
        <mxCell id="12V6Xu6qoPDqTPFjvzaM-5" value="" style="endArrow=none;dashed=1;html=1;dashPattern=1 3;strokeWidth=2;entryX=0.5;entryY=1;entryDx=0;entryDy=0;" edge="1" parent="12V6Xu6qoPDqTPFjvzaM-1" target="12V6Xu6qoPDqTPFjvzaM-2">
          <mxGeometry width="50" height="50" relative="1" as="geometry">
            <mxPoint x="160" y="800" as="sourcePoint" />
            <mxPoint x="440" y="290" as="targetPoint" />
          </mxGeometry>
        </mxCell>
        <mxCell id="12V6Xu6qoPDqTPFjvzaM-6" value="" style="endArrow=none;dashed=1;html=1;dashPattern=1 3;strokeWidth=2;" edge="1" parent="12V6Xu6qoPDqTPFjvzaM-1">
          <mxGeometry width="50" height="50" relative="1" as="geometry">
            <mxPoint x="380" y="650" as="sourcePoint" />
            <mxPoint x="379.5" y="140" as="targetPoint" />
          </mxGeometry>
        </mxCell>
        <mxCell id="12V6Xu6qoPDqTPFjvzaM-7" value="" style="endArrow=none;dashed=1;html=1;dashPattern=1 3;strokeWidth=2;entryX=0.558;entryY=1.067;entryDx=0;entryDy=0;entryPerimeter=0;" edge="1" parent="12V6Xu6qoPDqTPFjvzaM-1" target="12V6Xu6qoPDqTPFjvzaM-4">
          <mxGeometry width="50" height="50" relative="1" as="geometry">
            <mxPoint x="617" y="320" as="sourcePoint" />
            <mxPoint x="440" y="290" as="targetPoint" />
          </mxGeometry>
        </mxCell>
        <mxCell id="12V6Xu6qoPDqTPFjvzaM-8" value="" style="endArrow=classic;html=1;" edge="1" parent="12V6Xu6qoPDqTPFjvzaM-1">
          <mxGeometry width="50" height="50" relative="1" as="geometry">
            <mxPoint x="40" y="200" as="sourcePoint" />
            <mxPoint x="160" y="200" as="targetPoint" />
          </mxGeometry>
        </mxCell>
        <mxCell id="12V6Xu6qoPDqTPFjvzaM-9" value="AddAction" style="text;html=1;strokeColor=none;fillColor=none;align=center;verticalAlign=middle;whiteSpace=wrap;rounded=0;" vertex="1" parent="12V6Xu6qoPDqTPFjvzaM-1">
          <mxGeometry x="70" y="170" width="40" height="20" as="geometry" />
        </mxCell>
        <mxCell id="12V6Xu6qoPDqTPFjvzaM-10" value="" style="endArrow=classic;html=1;" edge="1" parent="12V6Xu6qoPDqTPFjvzaM-1">
          <mxGeometry width="50" height="50" relative="1" as="geometry">
            <mxPoint x="160" y="240" as="sourcePoint" />
            <mxPoint x="380" y="240" as="targetPoint" />
          </mxGeometry>
        </mxCell>
        <mxCell id="12V6Xu6qoPDqTPFjvzaM-11" value="" style="endArrow=classic;html=1;strokeColor=#000000;" edge="1" parent="12V6Xu6qoPDqTPFjvzaM-1">
          <mxGeometry width="50" height="50" relative="1" as="geometry">
            <mxPoint x="380" y="280" as="sourcePoint" />
            <mxPoint x="620" y="280" as="targetPoint" />
          </mxGeometry>
        </mxCell>
        <mxCell id="12V6Xu6qoPDqTPFjvzaM-12" value="AddAction" style="text;html=1;strokeColor=none;fillColor=none;align=center;verticalAlign=middle;whiteSpace=wrap;rounded=0;" vertex="1" parent="12V6Xu6qoPDqTPFjvzaM-1">
          <mxGeometry x="480" y="250" width="40" height="20" as="geometry" />
        </mxCell>
        <mxCell id="12V6Xu6qoPDqTPFjvzaM-13" value="Existed ?" style="rhombus;whiteSpace=wrap;html=1;" vertex="1" parent="12V6Xu6qoPDqTPFjvzaM-1">
          <mxGeometry x="580" y="320" width="80" height="40" as="geometry" />
        </mxCell>
        <mxCell id="12V6Xu6qoPDqTPFjvzaM-14" value="" style="endArrow=classic;html=1;strokeColor=#000000;exitX=1;exitY=0.5;exitDx=0;exitDy=0;exitPerimeter=0;" edge="1" parent="12V6Xu6qoPDqTPFjvzaM-1" source="12V6Xu6qoPDqTPFjvzaM-13">
          <mxGeometry width="50" height="50" relative="1" as="geometry">
            <mxPoint x="620" y="390" as="sourcePoint" />
            <mxPoint x="620" y="390" as="targetPoint" />
            <Array as="points">
              <mxPoint x="720" y="340" />
              <mxPoint x="720" y="390" />
            </Array>
          </mxGeometry>
        </mxCell>
        <mxCell id="12V6Xu6qoPDqTPFjvzaM-15" value="" style="endArrow=none;dashed=1;html=1;dashPattern=1 3;strokeWidth=2;entryX=0.5;entryY=1;entryDx=0;entryDy=0;" edge="1" parent="12V6Xu6qoPDqTPFjvzaM-1" target="12V6Xu6qoPDqTPFjvzaM-13">
          <mxGeometry width="50" height="50" relative="1" as="geometry">
            <mxPoint x="620" y="490" as="sourcePoint" />
            <mxPoint x="440" y="320" as="targetPoint" />
          </mxGeometry>
        </mxCell>
        <mxCell id="12V6Xu6qoPDqTPFjvzaM-16" value="No" style="text;html=1;strokeColor=none;fillColor=none;align=center;verticalAlign=middle;whiteSpace=wrap;rounded=0;" vertex="1" parent="12V6Xu6qoPDqTPFjvzaM-1">
          <mxGeometry x="720" y="350" width="40" height="20" as="geometry" />
        </mxCell>
        <mxCell id="12V6Xu6qoPDqTPFjvzaM-17" value="" style="endArrow=classic;html=1;strokeColor=#000000;" edge="1" parent="12V6Xu6qoPDqTPFjvzaM-1">
          <mxGeometry width="50" height="50" relative="1" as="geometry">
            <mxPoint x="620" y="290" as="sourcePoint" />
            <mxPoint x="620" y="310" as="targetPoint" />
            <Array as="points">
              <mxPoint x="720" y="290" />
              <mxPoint x="720" y="310" />
            </Array>
          </mxGeometry>
        </mxCell>
        <mxCell id="12V6Xu6qoPDqTPFjvzaM-18" value="" style="endArrow=classic;html=1;exitX=0;exitY=0.5;exitDx=0;exitDy=0;dashed=1;strokeColor=#FF0000;" edge="1" parent="12V6Xu6qoPDqTPFjvzaM-1" source="12V6Xu6qoPDqTPFjvzaM-13">
          <mxGeometry width="50" height="50" relative="1" as="geometry">
            <mxPoint x="390" y="280" as="sourcePoint" />
            <mxPoint x="380" y="340" as="targetPoint" />
          </mxGeometry>
        </mxCell>
        <mxCell id="12V6Xu6qoPDqTPFjvzaM-19" value="" style="endArrow=classic;html=1;dashed=1;strokeColor=#FF0000;" edge="1" parent="12V6Xu6qoPDqTPFjvzaM-1">
          <mxGeometry width="50" height="50" relative="1" as="geometry">
            <mxPoint x="380" y="360" as="sourcePoint" />
            <mxPoint x="160" y="360" as="targetPoint" />
          </mxGeometry>
        </mxCell>
        <mxCell id="12V6Xu6qoPDqTPFjvzaM-20" value="Yes" style="text;html=1;strokeColor=none;fillColor=none;align=center;verticalAlign=middle;whiteSpace=wrap;rounded=0;" vertex="1" parent="12V6Xu6qoPDqTPFjvzaM-1">
          <mxGeometry x="460" y="310" width="40" height="20" as="geometry" />
        </mxCell>
        <mxCell id="12V6Xu6qoPDqTPFjvzaM-21" value="ActionExists(id)" style="text;html=1;strokeColor=none;fillColor=none;align=center;verticalAlign=middle;whiteSpace=wrap;rounded=0;" vertex="1" parent="12V6Xu6qoPDqTPFjvzaM-1">
          <mxGeometry x="690" y="260" width="40" height="20" as="geometry" />
        </mxCell>
        <mxCell id="12V6Xu6qoPDqTPFjvzaM-22" value="" style="endArrow=classic;html=1;strokeColor=#000000;" edge="1" parent="12V6Xu6qoPDqTPFjvzaM-1">
          <mxGeometry width="50" height="50" relative="1" as="geometry">
            <mxPoint x="620" y="420" as="sourcePoint" />
            <mxPoint x="620" y="470" as="targetPoint" />
            <Array as="points">
              <mxPoint x="720" y="420" />
              <mxPoint x="720" y="470" />
            </Array>
          </mxGeometry>
        </mxCell>
        <mxCell id="12V6Xu6qoPDqTPFjvzaM-23" value="PutState(id)" style="text;html=1;strokeColor=none;fillColor=none;align=center;verticalAlign=middle;whiteSpace=wrap;rounded=0;" vertex="1" parent="12V6Xu6qoPDqTPFjvzaM-1">
          <mxGeometry x="750" y="430" width="40" height="20" as="geometry" />
        </mxCell>
        <mxCell id="12V6Xu6qoPDqTPFjvzaM-24" value="Error ?" style="rhombus;whiteSpace=wrap;html=1;" vertex="1" parent="12V6Xu6qoPDqTPFjvzaM-1">
          <mxGeometry x="580" y="490" width="80" height="40" as="geometry" />
        </mxCell>
        <mxCell id="12V6Xu6qoPDqTPFjvzaM-25" value="" style="endArrow=none;dashed=1;html=1;dashPattern=1 3;strokeWidth=2;entryX=0.5;entryY=1;entryDx=0;entryDy=0;" edge="1" parent="12V6Xu6qoPDqTPFjvzaM-1" target="12V6Xu6qoPDqTPFjvzaM-24">
          <mxGeometry width="50" height="50" relative="1" as="geometry">
            <mxPoint x="620" y="800" as="sourcePoint" />
            <mxPoint x="440" y="380" as="targetPoint" />
          </mxGeometry>
        </mxCell>
        <mxCell id="12V6Xu6qoPDqTPFjvzaM-26" value="" style="endArrow=classic;html=1;exitX=0;exitY=0.5;exitDx=0;exitDy=0;dashed=1;strokeColor=#FF0000;" edge="1" parent="12V6Xu6qoPDqTPFjvzaM-1" source="12V6Xu6qoPDqTPFjvzaM-24">
          <mxGeometry width="50" height="50" relative="1" as="geometry">
            <mxPoint x="390" y="430" as="sourcePoint" />
            <mxPoint x="380" y="510" as="targetPoint" />
          </mxGeometry>
        </mxCell>
        <mxCell id="12V6Xu6qoPDqTPFjvzaM-27" value="" style="endArrow=classic;html=1;strokeColor=#000000;exitX=1;exitY=0.5;exitDx=0;exitDy=0;" edge="1" parent="12V6Xu6qoPDqTPFjvzaM-1" source="12V6Xu6qoPDqTPFjvzaM-24">
          <mxGeometry width="50" height="50" relative="1" as="geometry">
            <mxPoint x="390" y="430" as="sourcePoint" />
            <mxPoint x="620" y="560" as="targetPoint" />
            <Array as="points">
              <mxPoint x="720" y="510" />
              <mxPoint x="720" y="560" />
            </Array>
          </mxGeometry>
        </mxCell>
        <mxCell id="12V6Xu6qoPDqTPFjvzaM-28" value="No" style="text;html=1;strokeColor=none;fillColor=none;align=center;verticalAlign=middle;whiteSpace=wrap;rounded=0;" vertex="1" parent="12V6Xu6qoPDqTPFjvzaM-1">
          <mxGeometry x="720" y="520" width="40" height="20" as="geometry" />
        </mxCell>
        <mxCell id="12V6Xu6qoPDqTPFjvzaM-29" value="Yes" style="text;strokeColor=none;fillColor=none;align=left;verticalAlign=top;spacingLeft=4;spacingRight=4;overflow=hidden;rotatable=0;points=[[0,0.5],[1,0.5]];portConstraint=eastwest;" vertex="1" parent="12V6Xu6qoPDqTPFjvzaM-1">
          <mxGeometry x="460" y="480" width="60" height="26" as="geometry" />
        </mxCell>
        <mxCell id="12V6Xu6qoPDqTPFjvzaM-30" value="" style="endArrow=classic;html=1;dashed=1;strokeColor=#FF0000;" edge="1" parent="12V6Xu6qoPDqTPFjvzaM-1">
          <mxGeometry width="50" height="50" relative="1" as="geometry">
            <mxPoint x="380" y="540" as="sourcePoint" />
            <mxPoint x="160" y="540" as="targetPoint" />
          </mxGeometry>
        </mxCell>
        <mxCell id="12V6Xu6qoPDqTPFjvzaM-31" value="" style="endArrow=classic;html=1;strokeColor=#000000;" edge="1" parent="12V6Xu6qoPDqTPFjvzaM-1">
          <mxGeometry width="50" height="50" relative="1" as="geometry">
            <mxPoint x="620" y="590" as="sourcePoint" />
            <mxPoint x="380" y="590" as="targetPoint" />
          </mxGeometry>
        </mxCell>
        <mxCell id="12V6Xu6qoPDqTPFjvzaM-32" value="CreateDiary" style="text;html=1;strokeColor=none;fillColor=none;align=center;verticalAlign=middle;whiteSpace=wrap;rounded=0;" vertex="1" parent="12V6Xu6qoPDqTPFjvzaM-1">
          <mxGeometry x="480" y="565" width="40" height="20" as="geometry" />
        </mxCell>
        <mxCell id="12V6Xu6qoPDqTPFjvzaM-33" value="Error?" style="rhombus;whiteSpace=wrap;html=1;" vertex="1" parent="12V6Xu6qoPDqTPFjvzaM-1">
          <mxGeometry x="340" y="650" width="80" height="40" as="geometry" />
        </mxCell>
        <mxCell id="12V6Xu6qoPDqTPFjvzaM-34" value="Yes" style="text;strokeColor=none;fillColor=none;align=left;verticalAlign=top;spacingLeft=4;spacingRight=4;overflow=hidden;rotatable=0;points=[[0,0.5],[1,0.5]];portConstraint=eastwest;" vertex="1" parent="12V6Xu6qoPDqTPFjvzaM-1">
          <mxGeometry x="240" y="640" width="60" height="26" as="geometry" />
        </mxCell>
        <mxCell id="12V6Xu6qoPDqTPFjvzaM-35" value="" style="endArrow=classic;html=1;strokeColor=#000000;exitX=1;exitY=0.5;exitDx=0;exitDy=0;" edge="1" parent="12V6Xu6qoPDqTPFjvzaM-1" source="12V6Xu6qoPDqTPFjvzaM-33">
          <mxGeometry width="50" height="50" relative="1" as="geometry">
            <mxPoint x="390" y="550" as="sourcePoint" />
            <mxPoint x="380" y="720" as="targetPoint" />
            <Array as="points">
              <mxPoint x="480" y="670" />
              <mxPoint x="480" y="720" />
            </Array>
          </mxGeometry>
        </mxCell>
        <mxCell id="12V6Xu6qoPDqTPFjvzaM-36" value="" style="endArrow=none;dashed=1;html=1;dashPattern=1 3;strokeWidth=2;exitX=0.5;exitY=1;exitDx=0;exitDy=0;exitPerimeter=0;" edge="1" parent="12V6Xu6qoPDqTPFjvzaM-1" source="12V6Xu6qoPDqTPFjvzaM-33">
          <mxGeometry width="50" height="50" relative="1" as="geometry">
            <mxPoint x="390" y="610" as="sourcePoint" />
            <mxPoint x="380" y="800" as="targetPoint" />
          </mxGeometry>
        </mxCell>
        <mxCell id="12V6Xu6qoPDqTPFjvzaM-37" value="No" style="text;strokeColor=none;fillColor=none;align=left;verticalAlign=top;spacingLeft=4;spacingRight=4;overflow=hidden;rotatable=0;points=[[0,0.5],[1,0.5]];portConstraint=eastwest;" vertex="1" parent="12V6Xu6qoPDqTPFjvzaM-1">
          <mxGeometry x="450" y="640" width="60" height="26" as="geometry" />
        </mxCell>
        <mxCell id="12V6Xu6qoPDqTPFjvzaM-38" value="" style="endArrow=classic;html=1;dashed=1;strokeColor=#FF0000;exitX=0;exitY=0.5;exitDx=0;exitDy=0;" edge="1" parent="12V6Xu6qoPDqTPFjvzaM-1" source="12V6Xu6qoPDqTPFjvzaM-33">
          <mxGeometry width="50" height="50" relative="1" as="geometry">
            <mxPoint x="390" y="640" as="sourcePoint" />
            <mxPoint x="160" y="670" as="targetPoint" />
          </mxGeometry>
        </mxCell>
        <mxCell id="12V6Xu6qoPDqTPFjvzaM-39" value="" style="endArrow=classic;html=1;dashed=1;strokeColor=#FF0000;" edge="1" parent="12V6Xu6qoPDqTPFjvzaM-1">
          <mxGeometry width="50" height="50" relative="1" as="geometry">
            <mxPoint x="160" y="690" as="sourcePoint" />
            <mxPoint x="60" y="690" as="targetPoint" />
          </mxGeometry>
        </mxCell>
        <mxCell id="12V6Xu6qoPDqTPFjvzaM-40" value="" style="endArrow=classic;html=1;dashed=1;strokeColor=#FF0000;" edge="1" parent="12V6Xu6qoPDqTPFjvzaM-1">
          <mxGeometry width="50" height="50" relative="1" as="geometry">
            <mxPoint x="160" y="560" as="sourcePoint" />
            <mxPoint x="70" y="560" as="targetPoint" />
          </mxGeometry>
        </mxCell>
        <mxCell id="12V6Xu6qoPDqTPFjvzaM-41" value="" style="endArrow=classic;html=1;dashed=1;strokeColor=#FF0000;" edge="1" parent="12V6Xu6qoPDqTPFjvzaM-1">
          <mxGeometry width="50" height="50" relative="1" as="geometry">
            <mxPoint x="160" y="380" as="sourcePoint" />
            <mxPoint x="70" y="380" as="targetPoint" />
          </mxGeometry>
        </mxCell>
        <mxCell id="12V6Xu6qoPDqTPFjvzaM-42" value="Created Successfully" style="text;html=1;strokeColor=none;fillColor=none;align=center;verticalAlign=middle;whiteSpace=wrap;rounded=0;" vertex="1" parent="12V6Xu6qoPDqTPFjvzaM-1">
          <mxGeometry x="410" y="730" width="40" height="20" as="geometry" />
        </mxCell>
        <mxCell id="12V6Xu6qoPDqTPFjvzaM-43" style="edgeStyle=none;rounded=0;orthogonalLoop=1;jettySize=auto;html=1;exitX=0.75;exitY=1;exitDx=0;exitDy=0;dashed=1;strokeColor=#FF0000;" edge="1" parent="12V6Xu6qoPDqTPFjvzaM-1" source="12V6Xu6qoPDqTPFjvzaM-42" target="12V6Xu6qoPDqTPFjvzaM-42">
          <mxGeometry relative="1" as="geometry" />
        </mxCell>
        <mxCell id="12V6Xu6qoPDqTPFjvzaM-44" value="Created Successfully" style="text;html=1;strokeColor=none;fillColor=none;align=center;verticalAlign=middle;whiteSpace=wrap;rounded=0;" vertex="1" parent="12V6Xu6qoPDqTPFjvzaM-1">
          <mxGeometry x="650" y="565" width="40" height="20" as="geometry" />
        </mxCell>
        <mxCell id="12V6Xu6qoPDqTPFjvzaM-45" value="" style="endArrow=classic;html=1;strokeColor=#000000;" edge="1" parent="12V6Xu6qoPDqTPFjvzaM-1">
          <mxGeometry width="50" height="50" relative="1" as="geometry">
            <mxPoint x="380" y="750" as="sourcePoint" />
            <mxPoint x="160" y="750" as="targetPoint" />
          </mxGeometry>
        </mxCell>
        <mxCell id="12V6Xu6qoPDqTPFjvzaM-46" value="" style="endArrow=classic;html=1;strokeColor=#000000;" edge="1" parent="12V6Xu6qoPDqTPFjvzaM-1">
          <mxGeometry width="50" height="50" relative="1" as="geometry">
            <mxPoint x="160" y="780" as="sourcePoint" />
            <mxPoint x="70" y="780" as="targetPoint" />
          </mxGeometry>
        </mxCell>
        <mxCell id="12V6Xu6qoPDqTPFjvzaM-47" value="Diary" style="text;html=1;strokeColor=none;fillColor=none;align=center;verticalAlign=middle;whiteSpace=wrap;rounded=0;" vertex="1" parent="12V6Xu6qoPDqTPFjvzaM-1">
          <mxGeometry x="90" y="780" width="40" height="20" as="geometry" />
        </mxCell>
      </root>
    </mxGraphModel>
  </diagram>
  <diagram id="RS1J1sDi67TxN_65BP64" name="GetActionDetails">
    <mxGraphModel dx="739" dy="481" grid="1" gridSize="10" guides="1" tooltips="1" connect="1" arrows="1" fold="1" page="1" pageScale="1" pageWidth="827" pageHeight="1169" math="0" shadow="0">
      <root>
        <mxCell id="yG0zjlBZDkbxOGilnRkp-0" />
        <mxCell id="yG0zjlBZDkbxOGilnRkp-1" parent="yG0zjlBZDkbxOGilnRkp-0" />
        <mxCell id="yG0zjlBZDkbxOGilnRkp-2" value="API" style="rounded=1;whiteSpace=wrap;html=1;" vertex="1" parent="yG0zjlBZDkbxOGilnRkp-1">
          <mxGeometry x="80" y="40" width="120" height="60" as="geometry" />
        </mxCell>
        <mxCell id="yG0zjlBZDkbxOGilnRkp-3" value="Client" style="rounded=1;whiteSpace=wrap;html=1;" vertex="1" parent="yG0zjlBZDkbxOGilnRkp-1">
          <mxGeometry x="300" y="40" width="120" height="60" as="geometry" />
        </mxCell>
        <mxCell id="yG0zjlBZDkbxOGilnRkp-4" value="Fabric" style="rounded=1;whiteSpace=wrap;html=1;" vertex="1" parent="yG0zjlBZDkbxOGilnRkp-1">
          <mxGeometry x="530" y="40" width="120" height="60" as="geometry" />
        </mxCell>
        <mxCell id="BY3o3RGSyIS7Ii37n4F0-0" value="" style="endArrow=classic;html=1;strokeColor=#000000;" edge="1" parent="yG0zjlBZDkbxOGilnRkp-1">
          <mxGeometry width="50" height="50" relative="1" as="geometry">
            <mxPoint x="40" y="160" as="sourcePoint" />
            <mxPoint x="140" y="160" as="targetPoint" />
          </mxGeometry>
        </mxCell>
        <mxCell id="BY3o3RGSyIS7Ii37n4F0-1" value="" style="endArrow=none;dashed=1;html=1;dashPattern=1 3;strokeWidth=2;entryX=0.5;entryY=1;entryDx=0;entryDy=0;" edge="1" parent="yG0zjlBZDkbxOGilnRkp-1" target="yG0zjlBZDkbxOGilnRkp-2">
          <mxGeometry width="50" height="50" relative="1" as="geometry">
            <mxPoint x="140" y="450" as="sourcePoint" />
            <mxPoint x="220" y="190" as="targetPoint" />
          </mxGeometry>
        </mxCell>
        <mxCell id="BY3o3RGSyIS7Ii37n4F0-3" value="GetActionDetails" style="text;html=1;strokeColor=none;fillColor=none;align=center;verticalAlign=middle;whiteSpace=wrap;rounded=0;" vertex="1" parent="yG0zjlBZDkbxOGilnRkp-1">
          <mxGeometry x="60" y="130" width="40" height="20" as="geometry" />
        </mxCell>
        <mxCell id="BY3o3RGSyIS7Ii37n4F0-4" value="" style="endArrow=none;dashed=1;html=1;strokeColor=#000000;entryX=0.5;entryY=1;entryDx=0;entryDy=0;exitX=0.5;exitY=0;exitDx=0;exitDy=0;" edge="1" parent="yG0zjlBZDkbxOGilnRkp-1" source="BY3o3RGSyIS7Ii37n4F0-9" target="yG0zjlBZDkbxOGilnRkp-3">
          <mxGeometry width="50" height="50" relative="1" as="geometry">
            <mxPoint x="360" y="240" as="sourcePoint" />
            <mxPoint x="410" y="230" as="targetPoint" />
          </mxGeometry>
        </mxCell>
        <mxCell id="BY3o3RGSyIS7Ii37n4F0-5" value="" style="endArrow=classic;html=1;strokeColor=#000000;" edge="1" parent="yG0zjlBZDkbxOGilnRkp-1">
          <mxGeometry width="50" height="50" relative="1" as="geometry">
            <mxPoint x="140" y="200" as="sourcePoint" />
            <mxPoint x="360" y="200" as="targetPoint" />
          </mxGeometry>
        </mxCell>
        <mxCell id="BY3o3RGSyIS7Ii37n4F0-7" value="GetDiaryById" style="text;html=1;strokeColor=none;fillColor=none;align=center;verticalAlign=middle;whiteSpace=wrap;rounded=0;" vertex="1" parent="yG0zjlBZDkbxOGilnRkp-1">
          <mxGeometry x="460" y="230" width="40" height="20" as="geometry" />
        </mxCell>
        <mxCell id="BY3o3RGSyIS7Ii37n4F0-9" value="Error ?" style="rhombus;whiteSpace=wrap;html=1;" vertex="1" parent="yG0zjlBZDkbxOGilnRkp-1">
          <mxGeometry x="320" y="290" width="80" height="40" as="geometry" />
        </mxCell>
        <mxCell id="BY3o3RGSyIS7Ii37n4F0-10" value="" style="endArrow=classic;html=1;strokeColor=#000000;" edge="1" parent="yG0zjlBZDkbxOGilnRkp-1">
          <mxGeometry width="50" height="50" relative="1" as="geometry">
            <mxPoint x="360" y="220" as="sourcePoint" />
            <mxPoint x="360" y="260" as="targetPoint" />
            <Array as="points">
              <mxPoint x="430" y="220" />
              <mxPoint x="430" y="260" />
            </Array>
          </mxGeometry>
        </mxCell>
        <mxCell id="BY3o3RGSyIS7Ii37n4F0-12" value="" style="endArrow=none;dashed=1;html=1;strokeColor=#000000;exitX=0.5;exitY=1;exitDx=0;exitDy=0;" edge="1" parent="yG0zjlBZDkbxOGilnRkp-1" source="BY3o3RGSyIS7Ii37n4F0-9">
          <mxGeometry width="50" height="50" relative="1" as="geometry">
            <mxPoint x="360" y="340" as="sourcePoint" />
            <mxPoint x="360" y="450" as="targetPoint" />
          </mxGeometry>
        </mxCell>
        <mxCell id="BY3o3RGSyIS7Ii37n4F0-13" value="" style="endArrow=classic;html=1;exitX=0;exitY=0.5;exitDx=0;exitDy=0;strokeColor=#FF0000;dashed=1;" edge="1" parent="yG0zjlBZDkbxOGilnRkp-1" source="BY3o3RGSyIS7Ii37n4F0-9">
          <mxGeometry width="50" height="50" relative="1" as="geometry">
            <mxPoint x="360" y="340" as="sourcePoint" />
            <mxPoint x="140" y="310" as="targetPoint" />
          </mxGeometry>
        </mxCell>
        <mxCell id="BY3o3RGSyIS7Ii37n4F0-14" value="" style="endArrow=classic;html=1;strokeColor=#000000;exitX=1;exitY=0.5;exitDx=0;exitDy=0;" edge="1" parent="yG0zjlBZDkbxOGilnRkp-1" source="BY3o3RGSyIS7Ii37n4F0-9">
          <mxGeometry width="50" height="50" relative="1" as="geometry">
            <mxPoint x="360" y="340" as="sourcePoint" />
            <mxPoint x="360" y="360" as="targetPoint" />
            <Array as="points">
              <mxPoint x="450" y="310" />
              <mxPoint x="450" y="360" />
            </Array>
          </mxGeometry>
        </mxCell>
        <mxCell id="BY3o3RGSyIS7Ii37n4F0-15" value="No" style="text;html=1;strokeColor=none;fillColor=none;align=center;verticalAlign=middle;whiteSpace=wrap;rounded=0;" vertex="1" parent="yG0zjlBZDkbxOGilnRkp-1">
          <mxGeometry x="400" y="290" width="40" height="20" as="geometry" />
        </mxCell>
        <mxCell id="BY3o3RGSyIS7Ii37n4F0-16" value="Yes" style="text;html=1;strokeColor=none;fillColor=none;align=center;verticalAlign=middle;whiteSpace=wrap;rounded=0;" vertex="1" parent="yG0zjlBZDkbxOGilnRkp-1">
          <mxGeometry x="240" y="290" width="40" height="20" as="geometry" />
        </mxCell>
        <mxCell id="BY3o3RGSyIS7Ii37n4F0-17" value="" style="endArrow=classic;html=1;strokeColor=#000000;" edge="1" parent="yG0zjlBZDkbxOGilnRkp-1">
          <mxGeometry width="50" height="50" relative="1" as="geometry">
            <mxPoint x="360" y="400" as="sourcePoint" />
            <mxPoint x="140" y="400" as="targetPoint" />
          </mxGeometry>
        </mxCell>
        <mxCell id="BY3o3RGSyIS7Ii37n4F0-18" value="" style="endArrow=classic;html=1;strokeColor=#000000;" edge="1" parent="yG0zjlBZDkbxOGilnRkp-1">
          <mxGeometry width="50" height="50" relative="1" as="geometry">
            <mxPoint x="140" y="440" as="sourcePoint" />
            <mxPoint x="40" y="440" as="targetPoint" />
          </mxGeometry>
        </mxCell>
        <mxCell id="BY3o3RGSyIS7Ii37n4F0-21" value="Diary" style="text;html=1;strokeColor=none;fillColor=none;align=center;verticalAlign=middle;whiteSpace=wrap;rounded=0;" vertex="1" parent="yG0zjlBZDkbxOGilnRkp-1">
          <mxGeometry x="70" y="420" width="40" height="20" as="geometry" />
        </mxCell>
        <mxCell id="BY3o3RGSyIS7Ii37n4F0-23" value="" style="endArrow=classic;html=1;dashed=1;strokeColor=#FF0000;" edge="1" parent="yG0zjlBZDkbxOGilnRkp-1">
          <mxGeometry width="50" height="50" relative="1" as="geometry">
            <mxPoint x="140" y="340" as="sourcePoint" />
            <mxPoint x="40" y="340" as="targetPoint" />
          </mxGeometry>
        </mxCell>
      </root>
    </mxGraphModel>
  </diagram>
  <diagram id="89lN3ZM18eYR7bDkTqgJ" name="GetDiaryByProducts">
    <mxGraphModel dx="739" dy="481" grid="1" gridSize="10" guides="1" tooltips="1" connect="1" arrows="1" fold="1" page="1" pageScale="1" pageWidth="827" pageHeight="1169" math="0" shadow="0">
      <root>
        <mxCell id="d3Ykz-_s8KryhBkGhXRP-0" />
        <mxCell id="d3Ykz-_s8KryhBkGhXRP-1" parent="d3Ykz-_s8KryhBkGhXRP-0" />
        <mxCell id="d3Ykz-_s8KryhBkGhXRP-2" value="API" style="rounded=1;whiteSpace=wrap;html=1;" vertex="1" parent="d3Ykz-_s8KryhBkGhXRP-1">
          <mxGeometry x="80" y="40" width="120" height="60" as="geometry" />
        </mxCell>
        <mxCell id="d3Ykz-_s8KryhBkGhXRP-3" value="Client" style="rounded=1;whiteSpace=wrap;html=1;" vertex="1" parent="d3Ykz-_s8KryhBkGhXRP-1">
          <mxGeometry x="300" y="40" width="120" height="60" as="geometry" />
        </mxCell>
        <mxCell id="d3Ykz-_s8KryhBkGhXRP-4" value="Fabric" style="rounded=1;whiteSpace=wrap;html=1;" vertex="1" parent="d3Ykz-_s8KryhBkGhXRP-1">
          <mxGeometry x="530" y="40" width="120" height="60" as="geometry" />
        </mxCell>
        <mxCell id="d3Ykz-_s8KryhBkGhXRP-5" value="" style="endArrow=classic;html=1;strokeColor=#000000;" edge="1" parent="d3Ykz-_s8KryhBkGhXRP-1">
          <mxGeometry width="50" height="50" relative="1" as="geometry">
            <mxPoint x="10" y="160" as="sourcePoint" />
            <mxPoint x="140" y="160" as="targetPoint" />
          </mxGeometry>
        </mxCell>
        <mxCell id="d3Ykz-_s8KryhBkGhXRP-6" value="" style="endArrow=none;dashed=1;html=1;dashPattern=1 3;strokeWidth=2;entryX=0.5;entryY=1;entryDx=0;entryDy=0;" edge="1" parent="d3Ykz-_s8KryhBkGhXRP-1" target="d3Ykz-_s8KryhBkGhXRP-2">
          <mxGeometry width="50" height="50" relative="1" as="geometry">
            <mxPoint x="140" y="450" as="sourcePoint" />
            <mxPoint x="220" y="190" as="targetPoint" />
          </mxGeometry>
        </mxCell>
        <mxCell id="d3Ykz-_s8KryhBkGhXRP-7" value="GetDiaryByProducts" style="text;html=1;strokeColor=none;fillColor=none;align=center;verticalAlign=middle;whiteSpace=wrap;rounded=0;" vertex="1" parent="d3Ykz-_s8KryhBkGhXRP-1">
          <mxGeometry x="50" y="130" width="40" height="20" as="geometry" />
        </mxCell>
        <mxCell id="d3Ykz-_s8KryhBkGhXRP-8" value="" style="endArrow=none;dashed=1;html=1;strokeColor=#000000;entryX=0.5;entryY=1;entryDx=0;entryDy=0;exitX=0.5;exitY=0;exitDx=0;exitDy=0;" edge="1" parent="d3Ykz-_s8KryhBkGhXRP-1" source="d3Ykz-_s8KryhBkGhXRP-11" target="d3Ykz-_s8KryhBkGhXRP-3">
          <mxGeometry width="50" height="50" relative="1" as="geometry">
            <mxPoint x="360" y="240" as="sourcePoint" />
            <mxPoint x="410" y="230" as="targetPoint" />
          </mxGeometry>
        </mxCell>
        <mxCell id="d3Ykz-_s8KryhBkGhXRP-9" value="" style="endArrow=classic;html=1;strokeColor=#000000;" edge="1" parent="d3Ykz-_s8KryhBkGhXRP-1">
          <mxGeometry width="50" height="50" relative="1" as="geometry">
            <mxPoint x="140" y="200" as="sourcePoint" />
            <mxPoint x="360" y="200" as="targetPoint" />
          </mxGeometry>
        </mxCell>
        <mxCell id="d3Ykz-_s8KryhBkGhXRP-10" value="GetDiaryByProducts(ProductName)" style="text;html=1;strokeColor=none;fillColor=none;align=center;verticalAlign=middle;whiteSpace=wrap;rounded=0;" vertex="1" parent="d3Ykz-_s8KryhBkGhXRP-1">
          <mxGeometry x="530" y="230" width="40" height="20" as="geometry" />
        </mxCell>
        <mxCell id="d3Ykz-_s8KryhBkGhXRP-11" value="Error ?" style="rhombus;whiteSpace=wrap;html=1;" vertex="1" parent="d3Ykz-_s8KryhBkGhXRP-1">
          <mxGeometry x="320" y="290" width="80" height="40" as="geometry" />
        </mxCell>
        <mxCell id="d3Ykz-_s8KryhBkGhXRP-12" value="" style="endArrow=classic;html=1;strokeColor=#000000;" edge="1" parent="d3Ykz-_s8KryhBkGhXRP-1">
          <mxGeometry width="50" height="50" relative="1" as="geometry">
            <mxPoint x="360" y="220" as="sourcePoint" />
            <mxPoint x="360" y="260" as="targetPoint" />
            <Array as="points">
              <mxPoint x="430" y="220" />
              <mxPoint x="430" y="260" />
            </Array>
          </mxGeometry>
        </mxCell>
        <mxCell id="d3Ykz-_s8KryhBkGhXRP-13" value="" style="endArrow=none;dashed=1;html=1;strokeColor=#000000;exitX=0.5;exitY=1;exitDx=0;exitDy=0;" edge="1" parent="d3Ykz-_s8KryhBkGhXRP-1" source="d3Ykz-_s8KryhBkGhXRP-11">
          <mxGeometry width="50" height="50" relative="1" as="geometry">
            <mxPoint x="360" y="340" as="sourcePoint" />
            <mxPoint x="360" y="450" as="targetPoint" />
          </mxGeometry>
        </mxCell>
        <mxCell id="d3Ykz-_s8KryhBkGhXRP-14" value="" style="endArrow=classic;html=1;exitX=0;exitY=0.5;exitDx=0;exitDy=0;strokeColor=#FF0000;dashed=1;" edge="1" parent="d3Ykz-_s8KryhBkGhXRP-1" source="d3Ykz-_s8KryhBkGhXRP-11">
          <mxGeometry width="50" height="50" relative="1" as="geometry">
            <mxPoint x="360" y="340" as="sourcePoint" />
            <mxPoint x="140" y="310" as="targetPoint" />
          </mxGeometry>
        </mxCell>
        <mxCell id="d3Ykz-_s8KryhBkGhXRP-15" value="" style="endArrow=classic;html=1;strokeColor=#000000;exitX=1;exitY=0.5;exitDx=0;exitDy=0;" edge="1" parent="d3Ykz-_s8KryhBkGhXRP-1" source="d3Ykz-_s8KryhBkGhXRP-11">
          <mxGeometry width="50" height="50" relative="1" as="geometry">
            <mxPoint x="360" y="340" as="sourcePoint" />
            <mxPoint x="360" y="360" as="targetPoint" />
            <Array as="points">
              <mxPoint x="450" y="310" />
              <mxPoint x="450" y="360" />
            </Array>
          </mxGeometry>
        </mxCell>
        <mxCell id="d3Ykz-_s8KryhBkGhXRP-16" value="No" style="text;html=1;strokeColor=none;fillColor=none;align=center;verticalAlign=middle;whiteSpace=wrap;rounded=0;" vertex="1" parent="d3Ykz-_s8KryhBkGhXRP-1">
          <mxGeometry x="400" y="290" width="40" height="20" as="geometry" />
        </mxCell>
        <mxCell id="d3Ykz-_s8KryhBkGhXRP-17" value="Yes" style="text;html=1;strokeColor=none;fillColor=none;align=center;verticalAlign=middle;whiteSpace=wrap;rounded=0;" vertex="1" parent="d3Ykz-_s8KryhBkGhXRP-1">
          <mxGeometry x="240" y="290" width="40" height="20" as="geometry" />
        </mxCell>
        <mxCell id="d3Ykz-_s8KryhBkGhXRP-18" value="" style="endArrow=classic;html=1;strokeColor=#000000;" edge="1" parent="d3Ykz-_s8KryhBkGhXRP-1">
          <mxGeometry width="50" height="50" relative="1" as="geometry">
            <mxPoint x="360" y="400" as="sourcePoint" />
            <mxPoint x="140" y="400" as="targetPoint" />
          </mxGeometry>
        </mxCell>
        <mxCell id="d3Ykz-_s8KryhBkGhXRP-19" value="" style="endArrow=classic;html=1;strokeColor=#000000;" edge="1" parent="d3Ykz-_s8KryhBkGhXRP-1">
          <mxGeometry width="50" height="50" relative="1" as="geometry">
            <mxPoint x="140" y="440" as="sourcePoint" />
            <mxPoint x="40" y="440" as="targetPoint" />
          </mxGeometry>
        </mxCell>
        <mxCell id="d3Ykz-_s8KryhBkGhXRP-20" value="[]Diary" style="text;html=1;strokeColor=none;fillColor=none;align=center;verticalAlign=middle;whiteSpace=wrap;rounded=0;" vertex="1" parent="d3Ykz-_s8KryhBkGhXRP-1">
          <mxGeometry x="70" y="420" width="40" height="20" as="geometry" />
        </mxCell>
        <mxCell id="d3Ykz-_s8KryhBkGhXRP-21" value="" style="endArrow=classic;html=1;dashed=1;strokeColor=#FF0000;" edge="1" parent="d3Ykz-_s8KryhBkGhXRP-1">
          <mxGeometry width="50" height="50" relative="1" as="geometry">
            <mxPoint x="140" y="340" as="sourcePoint" />
            <mxPoint x="40" y="340" as="targetPoint" />
          </mxGeometry>
        </mxCell>
      </root>
    </mxGraphModel>
  </diagram>
</mxfile>
